ISO-10303-21;
HEADER;
/* Generated by software containing ST-Developer
 * from STEP Tools, Inc. (www.steptools.com) 
 */

FILE_DESCRIPTION(
/* description */ (''),
/* implementation_level */ '2;1');

FILE_NAME(
/* name */ 'summit-weight-internal-v3.step',
/* time_stamp */ '2024-07-10T01:43:50-07:00',
/* author */ (''),
/* organization */ (''),
/* preprocessor_version */ 'ST-DEVELOPER v20',
/* originating_system */ 'Autodesk Translation Framework v13.14.0.145',

/* authorisation */ '');

FILE_SCHEMA (('AUTOMOTIVE_DESIGN { 1 0 10303 214 3 1 1 }'));
ENDSEC;

DATA;
#10=MECHANICAL_DESIGN_GEOMETRIC_PRESENTATION_REPRESENTATION('',(#13),#1379);
#11=SHAPE_REPRESENTATION_RELATIONSHIP('SRR','None',#1386,#12);
#12=ADVANCED_BREP_SHAPE_REPRESENTATION('',(#14),#1378);
#13=STYLED_ITEM('',(#1395),#14);
#14=MANIFOLD_SOLID_BREP('Body1',#783);
#15=FACE_BOUND('',#118,.T.);
#16=FACE_BOUND('',#119,.T.);
#17=FACE_BOUND('',#120,.T.);
#18=FACE_BOUND('',#122,.T.);
#19=FACE_BOUND('',#123,.T.);
#20=FACE_BOUND('',#124,.T.);
#21=B_SPLINE_CURVE_WITH_KNOTS('',3,(#1345,#1346,#1347,#1348,#1349,#1350),
 .UNSPECIFIED.,.F.,.F.,(4,2,4),(-1.17183781983534,-0.614206692536183,0.),
 .UNSPECIFIED.);
#22=B_SPLINE_CURVE_WITH_KNOTS('',3,(#1352,#1353,#1354,#1355,#1356,#1357),
 .UNSPECIFIED.,.F.,.F.,(4,2,4),(-1.17183781983534,-0.614206692536183,0.),
 .UNSPECIFIED.);
#23=B_SPLINE_SURFACE_WITH_KNOTS('',3,1,((#1332,#1333),(#1334,#1335),(#1336,
#1337),(#1338,#1339),(#1340,#1341),(#1342,#1343)),.UNSPECIFIED.,.F.,.F.,
 .F.,(4,2,4),(2,2),(-1.17183781983534,-0.614206692536183,0.),(0.,0.16),
 .UNSPECIFIED.);
#24=PLANE('',#803);
#25=PLANE('',#807);
#26=PLANE('',#811);
#27=PLANE('',#815);
#28=PLANE('',#825);
#29=PLANE('',#829);
#30=PLANE('',#833);
#31=PLANE('',#837);
#32=PLANE('',#841);
#33=PLANE('',#845);
#34=PLANE('',#849);
#35=PLANE('',#853);
#36=PLANE('',#857);
#37=PLANE('',#882);
#38=PLANE('',#883);
#39=FACE_OUTER_BOUND('',#79,.T.);
#40=FACE_OUTER_BOUND('',#80,.T.);
#41=FACE_OUTER_BOUND('',#81,.T.);
#42=FACE_OUTER_BOUND('',#82,.T.);
#43=FACE_OUTER_BOUND('',#83,.T.);
#44=FACE_OUTER_BOUND('',#84,.T.);
#45=FACE_OUTER_BOUND('',#85,.T.);
#46=FACE_OUTER_BOUND('',#86,.T.);
#47=FACE_OUTER_BOUND('',#87,.T.);
#48=FACE_OUTER_BOUND('',#88,.T.);
#49=FACE_OUTER_BOUND('',#89,.T.);
#50=FACE_OUTER_BOUND('',#90,.T.);
#51=FACE_OUTER_BOUND('',#91,.T.);
#52=FACE_OUTER_BOUND('',#92,.T.);
#53=FACE_OUTER_BOUND('',#93,.T.);
#54=FACE_OUTER_BOUND('',#94,.T.);
#55=FACE_OUTER_BOUND('',#95,.T.);
#56=FACE_OUTER_BOUND('',#96,.T.);
#57=FACE_OUTER_BOUND('',#97,.T.);
#58=FACE_OUTER_BOUND('',#98,.T.);
#59=FACE_OUTER_BOUND('',#99,.T.);
#60=FACE_OUTER_BOUND('',#100,.T.);
#61=FACE_OUTER_BOUND('',#101,.T.);
#62=FACE_OUTER_BOUND('',#102,.T.);
#63=FACE_OUTER_BOUND('',#103,.T.);
#64=FACE_OUTER_BOUND('',#104,.T.);
#65=FACE_OUTER_BOUND('',#105,.T.);
#66=FACE_OUTER_BOUND('',#106,.T.);
#67=FACE_OUTER_BOUND('',#107,.T.);
#68=FACE_OUTER_BOUND('',#108,.T.);
#69=FACE_OUTER_BOUND('',#109,.T.);
#70=FACE_OUTER_BOUND('',#110,.T.);
#71=FACE_OUTER_BOUND('',#111,.T.);
#72=FACE_OUTER_BOUND('',#112,.T.);
#73=FACE_OUTER_BOUND('',#113,.T.);
#74=FACE_OUTER_BOUND('',#114,.T.);
#75=FACE_OUTER_BOUND('',#115,.T.);
#76=FACE_OUTER_BOUND('',#116,.T.);
#77=FACE_OUTER_BOUND('',#117,.T.);
#78=FACE_OUTER_BOUND('',#121,.T.);
#79=EDGE_LOOP('',(#491,#492,#493,#494));
#80=EDGE_LOOP('',(#495,#496,#497,#498));
#81=EDGE_LOOP('',(#499,#500,#501,#502));
#82=EDGE_LOOP('',(#503,#504,#505,#506));
#83=EDGE_LOOP('',(#507,#508,#509,#510));
#84=EDGE_LOOP('',(#511,#512,#513,#514));
#85=EDGE_LOOP('',(#515,#516,#517,#518));
#86=EDGE_LOOP('',(#519,#520,#521,#522));
#87=EDGE_LOOP('',(#523,#524,#525,#526));
#88=EDGE_LOOP('',(#527,#528,#529,#530));
#89=EDGE_LOOP('',(#531,#532,#533,#534));
#90=EDGE_LOOP('',(#535,#536,#537,#538));
#91=EDGE_LOOP('',(#539,#540,#541,#542));
#92=EDGE_LOOP('',(#543,#544,#545,#546));
#93=EDGE_LOOP('',(#547,#548,#549,#550));
#94=EDGE_LOOP('',(#551,#552,#553,#554));
#95=EDGE_LOOP('',(#555,#556,#557,#558));
#96=EDGE_LOOP('',(#559,#560,#561,#562));
#97=EDGE_LOOP('',(#563,#564,#565,#566));
#98=EDGE_LOOP('',(#567,#568,#569,#570));
#99=EDGE_LOOP('',(#571,#572,#573,#574));
#100=EDGE_LOOP('',(#575,#576,#577,#578));
#101=EDGE_LOOP('',(#579,#580,#581,#582));
#102=EDGE_LOOP('',(#583,#584,#585,#586));
#103=EDGE_LOOP('',(#587,#588,#589,#590));
#104=EDGE_LOOP('',(#591,#592,#593,#594));
#105=EDGE_LOOP('',(#595,#596,#597,#598));
#106=EDGE_LOOP('',(#599,#600,#601,#602));
#107=EDGE_LOOP('',(#603,#604,#605,#606));
#108=EDGE_LOOP('',(#607,#608,#609,#610));
#109=EDGE_LOOP('',(#611,#612,#613,#614));
#110=EDGE_LOOP('',(#615,#616,#617,#618));
#111=EDGE_LOOP('',(#619,#620,#621,#622));
#112=EDGE_LOOP('',(#623,#624,#625,#626));
#113=EDGE_LOOP('',(#627,#628,#629,#630));
#114=EDGE_LOOP('',(#631,#632,#633,#634));
#115=EDGE_LOOP('',(#635,#636,#637,#638));
#116=EDGE_LOOP('',(#639,#640,#641,#642));
#117=EDGE_LOOP('',(#643,#644,#645,#646,#647,#648,#649,#650,#651,#652,#653,
#654,#655,#656,#657,#658,#659,#660,#661,#662,#663,#664,#665,#666,#667,#668,
#669,#670));
#118=EDGE_LOOP('',(#671));
#119=EDGE_LOOP('',(#672,#673,#674,#675,#676,#677,#678,#679));
#120=EDGE_LOOP('',(#680));
#121=EDGE_LOOP('',(#681,#682,#683,#684,#685,#686,#687,#688,#689,#690,#691,
#692,#693,#694,#695,#696,#697,#698,#699,#700,#701,#702,#703,#704,#705,#706,
#707,#708));
#122=EDGE_LOOP('',(#709));
#123=EDGE_LOOP('',(#710,#711,#712,#713,#714,#715,#716,#717));
#124=EDGE_LOOP('',(#718));
#125=LINE('',#1129,#189);
#126=LINE('',#1136,#190);
#127=LINE('',#1139,#191);
#128=LINE('',#1142,#192);
#129=LINE('',#1144,#193);
#130=LINE('',#1145,#194);
#131=LINE('',#1151,#195);
#132=LINE('',#1154,#196);
#133=LINE('',#1156,#197);
#134=LINE('',#1157,#198);
#135=LINE('',#1163,#199);
#136=LINE('',#1166,#200);
#137=LINE('',#1168,#201);
#138=LINE('',#1169,#202);
#139=LINE('',#1175,#203);
#140=LINE('',#1177,#204);
#141=LINE('',#1178,#205);
#142=LINE('',#1183,#206);
#143=LINE('',#1190,#207);
#144=LINE('',#1193,#208);
#145=LINE('',#1199,#209);
#146=LINE('',#1202,#210);
#147=LINE('',#1204,#211);
#148=LINE('',#1205,#212);
#149=LINE('',#1211,#213);
#150=LINE('',#1214,#214);
#151=LINE('',#1216,#215);
#152=LINE('',#1217,#216);
#153=LINE('',#1223,#217);
#154=LINE('',#1226,#218);
#155=LINE('',#1228,#219);
#156=LINE('',#1229,#220);
#157=LINE('',#1235,#221);
#158=LINE('',#1238,#222);
#159=LINE('',#1240,#223);
#160=LINE('',#1241,#224);
#161=LINE('',#1247,#225);
#162=LINE('',#1250,#226);
#163=LINE('',#1252,#227);
#164=LINE('',#1253,#228);
#165=LINE('',#1259,#229);
#166=LINE('',#1262,#230);
#167=LINE('',#1264,#231);
#168=LINE('',#1265,#232);
#169=LINE('',#1271,#233);
#170=LINE('',#1274,#234);
#171=LINE('',#1276,#235);
#172=LINE('',#1277,#236);
#173=LINE('',#1283,#237);
#174=LINE('',#1286,#238);
#175=LINE('',#1288,#239);
#176=LINE('',#1289,#240);
#177=LINE('',#1295,#241);
#178=LINE('',#1298,#242);
#179=LINE('',#1300,#243);
#180=LINE('',#1301,#244);
#181=LINE('',#1307,#245);
#182=LINE('',#1313,#246);
#183=LINE('',#1319,#247);
#184=LINE('',#1325,#248);
#185=LINE('',#1331,#249);
#186=LINE('',#1358,#250);
#187=LINE('',#1364,#251);
#188=LINE('',#1370,#252);
#189=VECTOR('',#890,2.5);
#190=VECTOR('',#897,10.);
#191=VECTOR('',#900,10.);
#192=VECTOR('',#903,10.);
#193=VECTOR('',#904,10.);
#194=VECTOR('',#905,10.);
#195=VECTOR('',#912,10.);
#196=VECTOR('',#915,10.);
#197=VECTOR('',#916,10.);
#198=VECTOR('',#917,10.);
#199=VECTOR('',#924,10.);
#200=VECTOR('',#927,10.);
#201=VECTOR('',#928,10.);
#202=VECTOR('',#929,10.);
#203=VECTOR('',#936,10.);
#204=VECTOR('',#939,10.);
#205=VECTOR('',#940,10.);
#206=VECTOR('',#945,2.5);
#207=VECTOR('',#952,10.);
#208=VECTOR('',#955,10.);
#209=VECTOR('',#962,10.);
#210=VECTOR('',#965,10.);
#211=VECTOR('',#966,10.);
#212=VECTOR('',#967,10.);
#213=VECTOR('',#974,10.);
#214=VECTOR('',#977,10.);
#215=VECTOR('',#978,10.);
#216=VECTOR('',#979,10.);
#217=VECTOR('',#986,10.);
#218=VECTOR('',#989,10.);
#219=VECTOR('',#990,10.);
#220=VECTOR('',#991,10.);
#221=VECTOR('',#998,10.);
#222=VECTOR('',#1001,10.);
#223=VECTOR('',#1002,10.);
#224=VECTOR('',#1003,10.);
#225=VECTOR('',#1010,10.);
#226=VECTOR('',#1013,10.);
#227=VECTOR('',#1014,10.);
#228=VECTOR('',#1015,10.);
#229=VECTOR('',#1022,10.);
#230=VECTOR('',#1025,10.);
#231=VECTOR('',#1026,10.);
#232=VECTOR('',#1027,10.);
#233=VECTOR('',#1034,10.);
#234=VECTOR('',#1037,10.);
#235=VECTOR('',#1038,10.);
#236=VECTOR('',#1039,10.);
#237=VECTOR('',#1046,10.);
#238=VECTOR('',#1049,10.);
#239=VECTOR('',#1050,10.);
#240=VECTOR('',#1051,10.);
#241=VECTOR('',#1058,10.);
#242=VECTOR('',#1061,10.);
#243=VECTOR('',#1062,10.);
#244=VECTOR('',#1063,10.);
#245=VECTOR('',#1070,10.);
#246=VECTOR('',#1077,10.);
#247=VECTOR('',#1084,10.);
#248=VECTOR('',#1091,10.);
#249=VECTOR('',#1098,10.);
#250=VECTOR('',#1099,10.);
#251=VECTOR('',#1106,10.);
#252=VECTOR('',#1113,10.);
#253=CIRCLE('',#798,2.5);
#254=CIRCLE('',#799,2.5);
#255=CIRCLE('',#801,1.99999999999999);
#256=CIRCLE('',#802,1.99999999999999);
#257=CIRCLE('',#805,2.00000000000006);
#258=CIRCLE('',#806,2.00000000000006);
#259=CIRCLE('',#809,2.00000000000003);
#260=CIRCLE('',#810,2.00000000000003);
#261=CIRCLE('',#813,1.99999999999999);
#262=CIRCLE('',#814,1.99999999999999);
#263=CIRCLE('',#817,2.5);
#264=CIRCLE('',#818,2.5);
#265=CIRCLE('',#820,4.00000000000014);
#266=CIRCLE('',#821,4.00000000000014);
#267=CIRCLE('',#823,33.144687657477);
#268=CIRCLE('',#824,33.144687657477);
#269=CIRCLE('',#827,3.59999999999999);
#270=CIRCLE('',#828,3.59999999999999);
#271=CIRCLE('',#831,3.59999999999999);
#272=CIRCLE('',#832,3.59999999999999);
#273=CIRCLE('',#835,3.59999999999999);
#274=CIRCLE('',#836,3.59999999999999);
#275=CIRCLE('',#839,4.39999999999998);
#276=CIRCLE('',#840,4.39999999999998);
#277=CIRCLE('',#843,4.4);
#278=CIRCLE('',#844,4.4);
#279=CIRCLE('',#847,3.59999999999998);
#280=CIRCLE('',#848,3.59999999999998);
#281=CIRCLE('',#851,3.60000000000003);
#282=CIRCLE('',#852,3.60000000000003);
#283=CIRCLE('',#855,3.59999999999998);
#284=CIRCLE('',#856,3.59999999999998);
#285=CIRCLE('',#859,33.1446876574768);
#286=CIRCLE('',#860,33.1446876574768);
#287=CIRCLE('',#862,4.00000000000014);
#288=CIRCLE('',#863,4.00000000000014);
#289=CIRCLE('',#865,44.6367448739921);
#290=CIRCLE('',#866,44.6367448739921);
#291=CIRCLE('',#868,4.00000000000008);
#292=CIRCLE('',#869,4.00000000000008);
#293=CIRCLE('',#871,105.099254948105);
#294=CIRCLE('',#872,105.099254948105);
#295=CIRCLE('',#874,69.6228128393342);
#296=CIRCLE('',#875,69.6228128393342);
#297=CIRCLE('',#877,4.00000000000053);
#298=CIRCLE('',#878,4.00000000000053);
#299=CIRCLE('',#880,45.5980370228336);
#300=CIRCLE('',#881,45.5980370228336);
#301=VERTEX_POINT('',#1126);
#302=VERTEX_POINT('',#1128);
#303=VERTEX_POINT('',#1132);
#304=VERTEX_POINT('',#1133);
#305=VERTEX_POINT('',#1135);
#306=VERTEX_POINT('',#1137);
#307=VERTEX_POINT('',#1141);
#308=VERTEX_POINT('',#1143);
#309=VERTEX_POINT('',#1147);
#310=VERTEX_POINT('',#1149);
#311=VERTEX_POINT('',#1153);
#312=VERTEX_POINT('',#1155);
#313=VERTEX_POINT('',#1159);
#314=VERTEX_POINT('',#1161);
#315=VERTEX_POINT('',#1165);
#316=VERTEX_POINT('',#1167);
#317=VERTEX_POINT('',#1171);
#318=VERTEX_POINT('',#1173);
#319=VERTEX_POINT('',#1180);
#320=VERTEX_POINT('',#1182);
#321=VERTEX_POINT('',#1186);
#322=VERTEX_POINT('',#1187);
#323=VERTEX_POINT('',#1189);
#324=VERTEX_POINT('',#1191);
#325=VERTEX_POINT('',#1195);
#326=VERTEX_POINT('',#1197);
#327=VERTEX_POINT('',#1201);
#328=VERTEX_POINT('',#1203);
#329=VERTEX_POINT('',#1207);
#330=VERTEX_POINT('',#1209);
#331=VERTEX_POINT('',#1213);
#332=VERTEX_POINT('',#1215);
#333=VERTEX_POINT('',#1219);
#334=VERTEX_POINT('',#1221);
#335=VERTEX_POINT('',#1225);
#336=VERTEX_POINT('',#1227);
#337=VERTEX_POINT('',#1231);
#338=VERTEX_POINT('',#1233);
#339=VERTEX_POINT('',#1237);
#340=VERTEX_POINT('',#1239);
#341=VERTEX_POINT('',#1243);
#342=VERTEX_POINT('',#1245);
#343=VERTEX_POINT('',#1249);
#344=VERTEX_POINT('',#1251);
#345=VERTEX_POINT('',#1255);
#346=VERTEX_POINT('',#1257);
#347=VERTEX_POINT('',#1261);
#348=VERTEX_POINT('',#1263);
#349=VERTEX_POINT('',#1267);
#350=VERTEX_POINT('',#1269);
#351=VERTEX_POINT('',#1273);
#352=VERTEX_POINT('',#1275);
#353=VERTEX_POINT('',#1279);
#354=VERTEX_POINT('',#1281);
#355=VERTEX_POINT('',#1285);
#356=VERTEX_POINT('',#1287);
#357=VERTEX_POINT('',#1291);
#358=VERTEX_POINT('',#1293);
#359=VERTEX_POINT('',#1297);
#360=VERTEX_POINT('',#1299);
#361=VERTEX_POINT('',#1303);
#362=VERTEX_POINT('',#1305);
#363=VERTEX_POINT('',#1309);
#364=VERTEX_POINT('',#1311);
#365=VERTEX_POINT('',#1315);
#366=VERTEX_POINT('',#1317);
#367=VERTEX_POINT('',#1321);
#368=VERTEX_POINT('',#1323);
#369=VERTEX_POINT('',#1327);
#370=VERTEX_POINT('',#1329);
#371=VERTEX_POINT('',#1344);
#372=VERTEX_POINT('',#1351);
#373=VERTEX_POINT('',#1360);
#374=VERTEX_POINT('',#1362);
#375=VERTEX_POINT('',#1366);
#376=VERTEX_POINT('',#1368);
#377=EDGE_CURVE('',#301,#301,#253,.T.);
#378=EDGE_CURVE('',#301,#302,#125,.T.);
#379=EDGE_CURVE('',#302,#302,#254,.T.);
#380=EDGE_CURVE('',#303,#304,#255,.T.);
#381=EDGE_CURVE('',#304,#305,#126,.T.);
#382=EDGE_CURVE('',#306,#305,#256,.T.);
#383=EDGE_CURVE('',#303,#306,#127,.T.);
#384=EDGE_CURVE('',#307,#303,#128,.T.);
#385=EDGE_CURVE('',#308,#306,#129,.T.);
#386=EDGE_CURVE('',#307,#308,#130,.T.);
#387=EDGE_CURVE('',#309,#307,#257,.T.);
#388=EDGE_CURVE('',#310,#308,#258,.T.);
#389=EDGE_CURVE('',#309,#310,#131,.T.);
#390=EDGE_CURVE('',#311,#309,#132,.T.);
#391=EDGE_CURVE('',#312,#310,#133,.T.);
#392=EDGE_CURVE('',#311,#312,#134,.T.);
#393=EDGE_CURVE('',#313,#311,#259,.T.);
#394=EDGE_CURVE('',#314,#312,#260,.T.);
#395=EDGE_CURVE('',#313,#314,#135,.T.);
#396=EDGE_CURVE('',#315,#313,#136,.T.);
#397=EDGE_CURVE('',#316,#314,#137,.T.);
#398=EDGE_CURVE('',#315,#316,#138,.T.);
#399=EDGE_CURVE('',#317,#315,#261,.T.);
#400=EDGE_CURVE('',#318,#316,#262,.T.);
#401=EDGE_CURVE('',#317,#318,#139,.T.);
#402=EDGE_CURVE('',#304,#317,#140,.T.);
#403=EDGE_CURVE('',#305,#318,#141,.T.);
#404=EDGE_CURVE('',#319,#319,#263,.T.);
#405=EDGE_CURVE('',#319,#320,#142,.T.);
#406=EDGE_CURVE('',#320,#320,#264,.T.);
#407=EDGE_CURVE('',#321,#322,#265,.T.);
#408=EDGE_CURVE('',#321,#323,#143,.T.);
#409=EDGE_CURVE('',#324,#323,#266,.T.);
#410=EDGE_CURVE('',#322,#324,#144,.T.);
#411=EDGE_CURVE('',#325,#322,#267,.T.);
#412=EDGE_CURVE('',#326,#324,#268,.T.);
#413=EDGE_CURVE('',#325,#326,#145,.T.);
#414=EDGE_CURVE('',#327,#325,#146,.T.);
#415=EDGE_CURVE('',#328,#326,#147,.T.);
#416=EDGE_CURVE('',#327,#328,#148,.T.);
#417=EDGE_CURVE('',#329,#327,#269,.T.);
#418=EDGE_CURVE('',#330,#328,#270,.T.);
#419=EDGE_CURVE('',#329,#330,#149,.T.);
#420=EDGE_CURVE('',#331,#329,#150,.T.);
#421=EDGE_CURVE('',#332,#330,#151,.T.);
#422=EDGE_CURVE('',#331,#332,#152,.T.);
#423=EDGE_CURVE('',#333,#331,#271,.T.);
#424=EDGE_CURVE('',#334,#332,#272,.T.);
#425=EDGE_CURVE('',#333,#334,#153,.T.);
#426=EDGE_CURVE('',#335,#333,#154,.T.);
#427=EDGE_CURVE('',#336,#334,#155,.T.);
#428=EDGE_CURVE('',#335,#336,#156,.T.);
#429=EDGE_CURVE('',#337,#335,#273,.T.);
#430=EDGE_CURVE('',#338,#336,#274,.T.);
#431=EDGE_CURVE('',#337,#338,#157,.T.);
#432=EDGE_CURVE('',#339,#337,#158,.T.);
#433=EDGE_CURVE('',#340,#338,#159,.T.);
#434=EDGE_CURVE('',#339,#340,#160,.T.);
#435=EDGE_CURVE('',#339,#341,#275,.T.);
#436=EDGE_CURVE('',#342,#340,#276,.T.);
#437=EDGE_CURVE('',#341,#342,#161,.T.);
#438=EDGE_CURVE('',#343,#341,#162,.T.);
#439=EDGE_CURVE('',#344,#342,#163,.T.);
#440=EDGE_CURVE('',#343,#344,#164,.T.);
#441=EDGE_CURVE('',#343,#345,#277,.T.);
#442=EDGE_CURVE('',#346,#344,#278,.T.);
#443=EDGE_CURVE('',#345,#346,#165,.T.);
#444=EDGE_CURVE('',#347,#345,#166,.T.);
#445=EDGE_CURVE('',#348,#346,#167,.T.);
#446=EDGE_CURVE('',#347,#348,#168,.T.);
#447=EDGE_CURVE('',#349,#347,#279,.T.);
#448=EDGE_CURVE('',#350,#348,#280,.T.);
#449=EDGE_CURVE('',#349,#350,#169,.T.);
#450=EDGE_CURVE('',#351,#349,#170,.T.);
#451=EDGE_CURVE('',#352,#350,#171,.T.);
#452=EDGE_CURVE('',#351,#352,#172,.T.);
#453=EDGE_CURVE('',#353,#351,#281,.T.);
#454=EDGE_CURVE('',#354,#352,#282,.T.);
#455=EDGE_CURVE('',#353,#354,#173,.T.);
#456=EDGE_CURVE('',#355,#353,#174,.T.);
#457=EDGE_CURVE('',#356,#354,#175,.T.);
#458=EDGE_CURVE('',#355,#356,#176,.T.);
#459=EDGE_CURVE('',#357,#355,#283,.T.);
#460=EDGE_CURVE('',#358,#356,#284,.T.);
#461=EDGE_CURVE('',#357,#358,#177,.T.);
#462=EDGE_CURVE('',#359,#357,#178,.T.);
#463=EDGE_CURVE('',#360,#358,#179,.T.);
#464=EDGE_CURVE('',#359,#360,#180,.T.);
#465=EDGE_CURVE('',#361,#359,#285,.T.);
#466=EDGE_CURVE('',#362,#360,#286,.T.);
#467=EDGE_CURVE('',#361,#362,#181,.T.);
#468=EDGE_CURVE('',#361,#363,#287,.T.);
#469=EDGE_CURVE('',#364,#362,#288,.T.);
#470=EDGE_CURVE('',#363,#364,#182,.T.);
#471=EDGE_CURVE('',#365,#363,#289,.T.);
#472=EDGE_CURVE('',#366,#364,#290,.T.);
#473=EDGE_CURVE('',#365,#366,#183,.T.);
#474=EDGE_CURVE('',#365,#367,#291,.T.);
#475=EDGE_CURVE('',#368,#366,#292,.T.);
#476=EDGE_CURVE('',#367,#368,#184,.T.);
#477=EDGE_CURVE('',#369,#367,#293,.T.);
#478=EDGE_CURVE('',#370,#368,#294,.T.);
#479=EDGE_CURVE('',#369,#370,#185,.T.);
#480=EDGE_CURVE('',#371,#369,#21,.T.);
#481=EDGE_CURVE('',#372,#370,#22,.T.);
#482=EDGE_CURVE('',#371,#372,#186,.T.);
#483=EDGE_CURVE('',#373,#371,#295,.T.);
#484=EDGE_CURVE('',#374,#372,#296,.T.);
#485=EDGE_CURVE('',#373,#374,#187,.T.);
#486=EDGE_CURVE('',#373,#375,#297,.T.);
#487=EDGE_CURVE('',#376,#374,#298,.T.);
#488=EDGE_CURVE('',#375,#376,#188,.T.);
#489=EDGE_CURVE('',#321,#375,#299,.T.);
#490=EDGE_CURVE('',#323,#376,#300,.T.);
#491=ORIENTED_EDGE('',*,*,#377,.F.);
#492=ORIENTED_EDGE('',*,*,#378,.T.);
#493=ORIENTED_EDGE('',*,*,#379,.T.);
#494=ORIENTED_EDGE('',*,*,#378,.F.);
#495=ORIENTED_EDGE('',*,*,#380,.T.);
#496=ORIENTED_EDGE('',*,*,#381,.T.);
#497=ORIENTED_EDGE('',*,*,#382,.F.);
#498=ORIENTED_EDGE('',*,*,#383,.F.);
#499=ORIENTED_EDGE('',*,*,#384,.T.);
#500=ORIENTED_EDGE('',*,*,#383,.T.);
#501=ORIENTED_EDGE('',*,*,#385,.F.);
#502=ORIENTED_EDGE('',*,*,#386,.F.);
#503=ORIENTED_EDGE('',*,*,#387,.T.);
#504=ORIENTED_EDGE('',*,*,#386,.T.);
#505=ORIENTED_EDGE('',*,*,#388,.F.);
#506=ORIENTED_EDGE('',*,*,#389,.F.);
#507=ORIENTED_EDGE('',*,*,#390,.T.);
#508=ORIENTED_EDGE('',*,*,#389,.T.);
#509=ORIENTED_EDGE('',*,*,#391,.F.);
#510=ORIENTED_EDGE('',*,*,#392,.F.);
#511=ORIENTED_EDGE('',*,*,#393,.T.);
#512=ORIENTED_EDGE('',*,*,#392,.T.);
#513=ORIENTED_EDGE('',*,*,#394,.F.);
#514=ORIENTED_EDGE('',*,*,#395,.F.);
#515=ORIENTED_EDGE('',*,*,#396,.T.);
#516=ORIENTED_EDGE('',*,*,#395,.T.);
#517=ORIENTED_EDGE('',*,*,#397,.F.);
#518=ORIENTED_EDGE('',*,*,#398,.F.);
#519=ORIENTED_EDGE('',*,*,#399,.T.);
#520=ORIENTED_EDGE('',*,*,#398,.T.);
#521=ORIENTED_EDGE('',*,*,#400,.F.);
#522=ORIENTED_EDGE('',*,*,#401,.F.);
#523=ORIENTED_EDGE('',*,*,#402,.T.);
#524=ORIENTED_EDGE('',*,*,#401,.T.);
#525=ORIENTED_EDGE('',*,*,#403,.F.);
#526=ORIENTED_EDGE('',*,*,#381,.F.);
#527=ORIENTED_EDGE('',*,*,#404,.F.);
#528=ORIENTED_EDGE('',*,*,#405,.T.);
#529=ORIENTED_EDGE('',*,*,#406,.T.);
#530=ORIENTED_EDGE('',*,*,#405,.F.);
#531=ORIENTED_EDGE('',*,*,#407,.F.);
#532=ORIENTED_EDGE('',*,*,#408,.T.);
#533=ORIENTED_EDGE('',*,*,#409,.F.);
#534=ORIENTED_EDGE('',*,*,#410,.F.);
#535=ORIENTED_EDGE('',*,*,#411,.T.);
#536=ORIENTED_EDGE('',*,*,#410,.T.);
#537=ORIENTED_EDGE('',*,*,#412,.F.);
#538=ORIENTED_EDGE('',*,*,#413,.F.);
#539=ORIENTED_EDGE('',*,*,#414,.T.);
#540=ORIENTED_EDGE('',*,*,#413,.T.);
#541=ORIENTED_EDGE('',*,*,#415,.F.);
#542=ORIENTED_EDGE('',*,*,#416,.F.);
#543=ORIENTED_EDGE('',*,*,#417,.T.);
#544=ORIENTED_EDGE('',*,*,#416,.T.);
#545=ORIENTED_EDGE('',*,*,#418,.F.);
#546=ORIENTED_EDGE('',*,*,#419,.F.);
#547=ORIENTED_EDGE('',*,*,#420,.T.);
#548=ORIENTED_EDGE('',*,*,#419,.T.);
#549=ORIENTED_EDGE('',*,*,#421,.F.);
#550=ORIENTED_EDGE('',*,*,#422,.F.);
#551=ORIENTED_EDGE('',*,*,#423,.T.);
#552=ORIENTED_EDGE('',*,*,#422,.T.);
#553=ORIENTED_EDGE('',*,*,#424,.F.);
#554=ORIENTED_EDGE('',*,*,#425,.F.);
#555=ORIENTED_EDGE('',*,*,#426,.T.);
#556=ORIENTED_EDGE('',*,*,#425,.T.);
#557=ORIENTED_EDGE('',*,*,#427,.F.);
#558=ORIENTED_EDGE('',*,*,#428,.F.);
#559=ORIENTED_EDGE('',*,*,#429,.T.);
#560=ORIENTED_EDGE('',*,*,#428,.T.);
#561=ORIENTED_EDGE('',*,*,#430,.F.);
#562=ORIENTED_EDGE('',*,*,#431,.F.);
#563=ORIENTED_EDGE('',*,*,#432,.T.);
#564=ORIENTED_EDGE('',*,*,#431,.T.);
#565=ORIENTED_EDGE('',*,*,#433,.F.);
#566=ORIENTED_EDGE('',*,*,#434,.F.);
#567=ORIENTED_EDGE('',*,*,#435,.F.);
#568=ORIENTED_EDGE('',*,*,#434,.T.);
#569=ORIENTED_EDGE('',*,*,#436,.F.);
#570=ORIENTED_EDGE('',*,*,#437,.F.);
#571=ORIENTED_EDGE('',*,*,#438,.T.);
#572=ORIENTED_EDGE('',*,*,#437,.T.);
#573=ORIENTED_EDGE('',*,*,#439,.F.);
#574=ORIENTED_EDGE('',*,*,#440,.F.);
#575=ORIENTED_EDGE('',*,*,#441,.F.);
#576=ORIENTED_EDGE('',*,*,#440,.T.);
#577=ORIENTED_EDGE('',*,*,#442,.F.);
#578=ORIENTED_EDGE('',*,*,#443,.F.);
#579=ORIENTED_EDGE('',*,*,#444,.T.);
#580=ORIENTED_EDGE('',*,*,#443,.T.);
#581=ORIENTED_EDGE('',*,*,#445,.F.);
#582=ORIENTED_EDGE('',*,*,#446,.F.);
#583=ORIENTED_EDGE('',*,*,#447,.T.);
#584=ORIENTED_EDGE('',*,*,#446,.T.);
#585=ORIENTED_EDGE('',*,*,#448,.F.);
#586=ORIENTED_EDGE('',*,*,#449,.F.);
#587=ORIENTED_EDGE('',*,*,#450,.T.);
#588=ORIENTED_EDGE('',*,*,#449,.T.);
#589=ORIENTED_EDGE('',*,*,#451,.F.);
#590=ORIENTED_EDGE('',*,*,#452,.F.);
#591=ORIENTED_EDGE('',*,*,#453,.T.);
#592=ORIENTED_EDGE('',*,*,#452,.T.);
#593=ORIENTED_EDGE('',*,*,#454,.F.);
#594=ORIENTED_EDGE('',*,*,#455,.F.);
#595=ORIENTED_EDGE('',*,*,#456,.T.);
#596=ORIENTED_EDGE('',*,*,#455,.T.);
#597=ORIENTED_EDGE('',*,*,#457,.F.);
#598=ORIENTED_EDGE('',*,*,#458,.F.);
#599=ORIENTED_EDGE('',*,*,#459,.T.);
#600=ORIENTED_EDGE('',*,*,#458,.T.);
#601=ORIENTED_EDGE('',*,*,#460,.F.);
#602=ORIENTED_EDGE('',*,*,#461,.F.);
#603=ORIENTED_EDGE('',*,*,#462,.T.);
#604=ORIENTED_EDGE('',*,*,#461,.T.);
#605=ORIENTED_EDGE('',*,*,#463,.F.);
#606=ORIENTED_EDGE('',*,*,#464,.F.);
#607=ORIENTED_EDGE('',*,*,#465,.T.);
#608=ORIENTED_EDGE('',*,*,#464,.T.);
#609=ORIENTED_EDGE('',*,*,#466,.F.);
#610=ORIENTED_EDGE('',*,*,#467,.F.);
#611=ORIENTED_EDGE('',*,*,#468,.F.);
#612=ORIENTED_EDGE('',*,*,#467,.T.);
#613=ORIENTED_EDGE('',*,*,#469,.F.);
#614=ORIENTED_EDGE('',*,*,#470,.F.);
#615=ORIENTED_EDGE('',*,*,#471,.T.);
#616=ORIENTED_EDGE('',*,*,#470,.T.);
#617=ORIENTED_EDGE('',*,*,#472,.F.);
#618=ORIENTED_EDGE('',*,*,#473,.F.);
#619=ORIENTED_EDGE('',*,*,#474,.F.);
#620=ORIENTED_EDGE('',*,*,#473,.T.);
#621=ORIENTED_EDGE('',*,*,#475,.F.);
#622=ORIENTED_EDGE('',*,*,#476,.F.);
#623=ORIENTED_EDGE('',*,*,#477,.T.);
#624=ORIENTED_EDGE('',*,*,#476,.T.);
#625=ORIENTED_EDGE('',*,*,#478,.F.);
#626=ORIENTED_EDGE('',*,*,#479,.F.);
#627=ORIENTED_EDGE('',*,*,#480,.T.);
#628=ORIENTED_EDGE('',*,*,#479,.T.);
#629=ORIENTED_EDGE('',*,*,#481,.F.);
#630=ORIENTED_EDGE('',*,*,#482,.F.);
#631=ORIENTED_EDGE('',*,*,#483,.T.);
#632=ORIENTED_EDGE('',*,*,#482,.T.);
#633=ORIENTED_EDGE('',*,*,#484,.F.);
#634=ORIENTED_EDGE('',*,*,#485,.F.);
#635=ORIENTED_EDGE('',*,*,#486,.F.);
#636=ORIENTED_EDGE('',*,*,#485,.T.);
#637=ORIENTED_EDGE('',*,*,#487,.F.);
#638=ORIENTED_EDGE('',*,*,#488,.F.);
#639=ORIENTED_EDGE('',*,*,#489,.T.);
#640=ORIENTED_EDGE('',*,*,#488,.T.);
#641=ORIENTED_EDGE('',*,*,#490,.F.);
#642=ORIENTED_EDGE('',*,*,#408,.F.);
#643=ORIENTED_EDGE('',*,*,#490,.T.);
#644=ORIENTED_EDGE('',*,*,#487,.T.);
#645=ORIENTED_EDGE('',*,*,#484,.T.);
#646=ORIENTED_EDGE('',*,*,#481,.T.);
#647=ORIENTED_EDGE('',*,*,#478,.T.);
#648=ORIENTED_EDGE('',*,*,#475,.T.);
#649=ORIENTED_EDGE('',*,*,#472,.T.);
#650=ORIENTED_EDGE('',*,*,#469,.T.);
#651=ORIENTED_EDGE('',*,*,#466,.T.);
#652=ORIENTED_EDGE('',*,*,#463,.T.);
#653=ORIENTED_EDGE('',*,*,#460,.T.);
#654=ORIENTED_EDGE('',*,*,#457,.T.);
#655=ORIENTED_EDGE('',*,*,#454,.T.);
#656=ORIENTED_EDGE('',*,*,#451,.T.);
#657=ORIENTED_EDGE('',*,*,#448,.T.);
#658=ORIENTED_EDGE('',*,*,#445,.T.);
#659=ORIENTED_EDGE('',*,*,#442,.T.);
#660=ORIENTED_EDGE('',*,*,#439,.T.);
#661=ORIENTED_EDGE('',*,*,#436,.T.);
#662=ORIENTED_EDGE('',*,*,#433,.T.);
#663=ORIENTED_EDGE('',*,*,#430,.T.);
#664=ORIENTED_EDGE('',*,*,#427,.T.);
#665=ORIENTED_EDGE('',*,*,#424,.T.);
#666=ORIENTED_EDGE('',*,*,#421,.T.);
#667=ORIENTED_EDGE('',*,*,#418,.T.);
#668=ORIENTED_EDGE('',*,*,#415,.T.);
#669=ORIENTED_EDGE('',*,*,#412,.T.);
#670=ORIENTED_EDGE('',*,*,#409,.T.);
#671=ORIENTED_EDGE('',*,*,#404,.T.);
#672=ORIENTED_EDGE('',*,*,#403,.T.);
#673=ORIENTED_EDGE('',*,*,#400,.T.);
#674=ORIENTED_EDGE('',*,*,#397,.T.);
#675=ORIENTED_EDGE('',*,*,#394,.T.);
#676=ORIENTED_EDGE('',*,*,#391,.T.);
#677=ORIENTED_EDGE('',*,*,#388,.T.);
#678=ORIENTED_EDGE('',*,*,#385,.T.);
#679=ORIENTED_EDGE('',*,*,#382,.T.);
#680=ORIENTED_EDGE('',*,*,#377,.T.);
#681=ORIENTED_EDGE('',*,*,#489,.F.);
#682=ORIENTED_EDGE('',*,*,#407,.T.);
#683=ORIENTED_EDGE('',*,*,#411,.F.);
#684=ORIENTED_EDGE('',*,*,#414,.F.);
#685=ORIENTED_EDGE('',*,*,#417,.F.);
#686=ORIENTED_EDGE('',*,*,#420,.F.);
#687=ORIENTED_EDGE('',*,*,#423,.F.);
#688=ORIENTED_EDGE('',*,*,#426,.F.);
#689=ORIENTED_EDGE('',*,*,#429,.F.);
#690=ORIENTED_EDGE('',*,*,#432,.F.);
#691=ORIENTED_EDGE('',*,*,#435,.T.);
#692=ORIENTED_EDGE('',*,*,#438,.F.);
#693=ORIENTED_EDGE('',*,*,#441,.T.);
#694=ORIENTED_EDGE('',*,*,#444,.F.);
#695=ORIENTED_EDGE('',*,*,#447,.F.);
#696=ORIENTED_EDGE('',*,*,#450,.F.);
#697=ORIENTED_EDGE('',*,*,#453,.F.);
#698=ORIENTED_EDGE('',*,*,#456,.F.);
#699=ORIENTED_EDGE('',*,*,#459,.F.);
#700=ORIENTED_EDGE('',*,*,#462,.F.);
#701=ORIENTED_EDGE('',*,*,#465,.F.);
#702=ORIENTED_EDGE('',*,*,#468,.T.);
#703=ORIENTED_EDGE('',*,*,#471,.F.);
#704=ORIENTED_EDGE('',*,*,#474,.T.);
#705=ORIENTED_EDGE('',*,*,#477,.F.);
#706=ORIENTED_EDGE('',*,*,#480,.F.);
#707=ORIENTED_EDGE('',*,*,#483,.F.);
#708=ORIENTED_EDGE('',*,*,#486,.T.);
#709=ORIENTED_EDGE('',*,*,#406,.F.);
#710=ORIENTED_EDGE('',*,*,#402,.F.);
#711=ORIENTED_EDGE('',*,*,#380,.F.);
#712=ORIENTED_EDGE('',*,*,#384,.F.);
#713=ORIENTED_EDGE('',*,*,#387,.F.);
#714=ORIENTED_EDGE('',*,*,#390,.F.);
#715=ORIENTED_EDGE('',*,*,#393,.F.);
#716=ORIENTED_EDGE('',*,*,#396,.F.);
#717=ORIENTED_EDGE('',*,*,#399,.F.);
#718=ORIENTED_EDGE('',*,*,#379,.F.);
#719=CYLINDRICAL_SURFACE('',#797,2.5);
#720=CYLINDRICAL_SURFACE('',#800,1.99999999999999);
#721=CYLINDRICAL_SURFACE('',#804,2.00000000000006);
#722=CYLINDRICAL_SURFACE('',#808,2.00000000000003);
#723=CYLINDRICAL_SURFACE('',#812,1.99999999999999);
#724=CYLINDRICAL_SURFACE('',#816,2.5);
#725=CYLINDRICAL_SURFACE('',#819,4.00000000000014);
#726=CYLINDRICAL_SURFACE('',#822,33.144687657477);
#727=CYLINDRICAL_SURFACE('',#826,3.59999999999999);
#728=CYLINDRICAL_SURFACE('',#830,3.59999999999999);
#729=CYLINDRICAL_SURFACE('',#834,3.59999999999999);
#730=CYLINDRICAL_SURFACE('',#838,4.39999999999998);
#731=CYLINDRICAL_SURFACE('',#842,4.4);
#732=CYLINDRICAL_SURFACE('',#846,3.59999999999998);
#733=CYLINDRICAL_SURFACE('',#850,3.60000000000003);
#734=CYLINDRICAL_SURFACE('',#854,3.59999999999998);
#735=CYLINDRICAL_SURFACE('',#858,33.1446876574768);
#736=CYLINDRICAL_SURFACE('',#861,4.00000000000014);
#737=CYLINDRICAL_SURFACE('',#864,44.6367448739921);
#738=CYLINDRICAL_SURFACE('',#867,4.00000000000008);
#739=CYLINDRICAL_SURFACE('',#870,105.099254948105);
#740=CYLINDRICAL_SURFACE('',#873,69.6228128393342);
#741=CYLINDRICAL_SURFACE('',#876,4.00000000000053);
#742=CYLINDRICAL_SURFACE('',#879,45.5980370228336);
#743=ADVANCED_FACE('',(#39),#719,.F.);
#744=ADVANCED_FACE('',(#40),#720,.F.);
#745=ADVANCED_FACE('',(#41),#24,.T.);
#746=ADVANCED_FACE('',(#42),#721,.F.);
#747=ADVANCED_FACE('',(#43),#25,.T.);
#748=ADVANCED_FACE('',(#44),#722,.F.);
#749=ADVANCED_FACE('',(#45),#26,.T.);
#750=ADVANCED_FACE('',(#46),#723,.F.);
#751=ADVANCED_FACE('',(#47),#27,.T.);
#752=ADVANCED_FACE('',(#48),#724,.F.);
#753=ADVANCED_FACE('',(#49),#725,.F.);
#754=ADVANCED_FACE('',(#50),#726,.T.);
#755=ADVANCED_FACE('',(#51),#28,.T.);
#756=ADVANCED_FACE('',(#52),#727,.T.);
#757=ADVANCED_FACE('',(#53),#29,.T.);
#758=ADVANCED_FACE('',(#54),#728,.T.);
#759=ADVANCED_FACE('',(#55),#30,.T.);
#760=ADVANCED_FACE('',(#56),#729,.T.);
#761=ADVANCED_FACE('',(#57),#31,.T.);
#762=ADVANCED_FACE('',(#58),#730,.F.);
#763=ADVANCED_FACE('',(#59),#32,.T.);
#764=ADVANCED_FACE('',(#60),#731,.F.);
#765=ADVANCED_FACE('',(#61),#33,.T.);
#766=ADVANCED_FACE('',(#62),#732,.T.);
#767=ADVANCED_FACE('',(#63),#34,.T.);
#768=ADVANCED_FACE('',(#64),#733,.T.);
#769=ADVANCED_FACE('',(#65),#35,.T.);
#770=ADVANCED_FACE('',(#66),#734,.T.);
#771=ADVANCED_FACE('',(#67),#36,.T.);
#772=ADVANCED_FACE('',(#68),#735,.T.);
#773=ADVANCED_FACE('',(#69),#736,.F.);
#774=ADVANCED_FACE('',(#70),#737,.T.);
#775=ADVANCED_FACE('',(#71),#738,.F.);
#776=ADVANCED_FACE('',(#72),#739,.T.);
#777=ADVANCED_FACE('',(#73),#23,.T.);
#778=ADVANCED_FACE('',(#74),#740,.T.);
#779=ADVANCED_FACE('',(#75),#741,.F.);
#780=ADVANCED_FACE('',(#76),#742,.T.);
#781=ADVANCED_FACE('',(#77,#15,#16,#17),#37,.T.);
#782=ADVANCED_FACE('',(#78,#18,#19,#20),#38,.F.);
#783=CLOSED_SHELL('',(#743,#744,#745,#746,#747,#748,#749,#750,#751,#752,
#753,#754,#755,#756,#757,#758,#759,#760,#761,#762,#763,#764,#765,#766,#767,
#768,#769,#770,#771,#772,#773,#774,#775,#776,#777,#778,#779,#780,#781,#782));
#784=DERIVED_UNIT_ELEMENT(#786,1.);
#785=DERIVED_UNIT_ELEMENT(#1381,-3.);
#786=(
MASS_UNIT()
NAMED_UNIT(*)
SI_UNIT(.KILO.,.GRAM.)
);
#787=DERIVED_UNIT((#784,#785));
#788=MEASURE_REPRESENTATION_ITEM('density measure',
POSITIVE_RATIO_MEASURE(7850.),#787);
#789=PROPERTY_DEFINITION_REPRESENTATION(#794,#791);
#790=PROPERTY_DEFINITION_REPRESENTATION(#795,#792);
#791=REPRESENTATION('material name',(#793),#1378);
#792=REPRESENTATION('density',(#788),#1378);
#793=DESCRIPTIVE_REPRESENTATION_ITEM('Steel','Steel');
#794=PROPERTY_DEFINITION('material property','material name',#1388);
#795=PROPERTY_DEFINITION('material property','density of part',#1388);
#796=AXIS2_PLACEMENT_3D('',#1124,#884,#885);
#797=AXIS2_PLACEMENT_3D('',#1125,#886,#887);
#798=AXIS2_PLACEMENT_3D('',#1127,#888,#889);
#799=AXIS2_PLACEMENT_3D('',#1130,#891,#892);
#800=AXIS2_PLACEMENT_3D('',#1131,#893,#894);
#801=AXIS2_PLACEMENT_3D('',#1134,#895,#896);
#802=AXIS2_PLACEMENT_3D('',#1138,#898,#899);
#803=AXIS2_PLACEMENT_3D('',#1140,#901,#902);
#804=AXIS2_PLACEMENT_3D('',#1146,#906,#907);
#805=AXIS2_PLACEMENT_3D('',#1148,#908,#909);
#806=AXIS2_PLACEMENT_3D('',#1150,#910,#911);
#807=AXIS2_PLACEMENT_3D('',#1152,#913,#914);
#808=AXIS2_PLACEMENT_3D('',#1158,#918,#919);
#809=AXIS2_PLACEMENT_3D('',#1160,#920,#921);
#810=AXIS2_PLACEMENT_3D('',#1162,#922,#923);
#811=AXIS2_PLACEMENT_3D('',#1164,#925,#926);
#812=AXIS2_PLACEMENT_3D('',#1170,#930,#931);
#813=AXIS2_PLACEMENT_3D('',#1172,#932,#933);
#814=AXIS2_PLACEMENT_3D('',#1174,#934,#935);
#815=AXIS2_PLACEMENT_3D('',#1176,#937,#938);
#816=AXIS2_PLACEMENT_3D('',#1179,#941,#942);
#817=AXIS2_PLACEMENT_3D('',#1181,#943,#944);
#818=AXIS2_PLACEMENT_3D('',#1184,#946,#947);
#819=AXIS2_PLACEMENT_3D('',#1185,#948,#949);
#820=AXIS2_PLACEMENT_3D('',#1188,#950,#951);
#821=AXIS2_PLACEMENT_3D('',#1192,#953,#954);
#822=AXIS2_PLACEMENT_3D('',#1194,#956,#957);
#823=AXIS2_PLACEMENT_3D('',#1196,#958,#959);
#824=AXIS2_PLACEMENT_3D('',#1198,#960,#961);
#825=AXIS2_PLACEMENT_3D('',#1200,#963,#964);
#826=AXIS2_PLACEMENT_3D('',#1206,#968,#969);
#827=AXIS2_PLACEMENT_3D('',#1208,#970,#971);
#828=AXIS2_PLACEMENT_3D('',#1210,#972,#973);
#829=AXIS2_PLACEMENT_3D('',#1212,#975,#976);
#830=AXIS2_PLACEMENT_3D('',#1218,#980,#981);
#831=AXIS2_PLACEMENT_3D('',#1220,#982,#983);
#832=AXIS2_PLACEMENT_3D('',#1222,#984,#985);
#833=AXIS2_PLACEMENT_3D('',#1224,#987,#988);
#834=AXIS2_PLACEMENT_3D('',#1230,#992,#993);
#835=AXIS2_PLACEMENT_3D('',#1232,#994,#995);
#836=AXIS2_PLACEMENT_3D('',#1234,#996,#997);
#837=AXIS2_PLACEMENT_3D('',#1236,#999,#1000);
#838=AXIS2_PLACEMENT_3D('',#1242,#1004,#1005);
#839=AXIS2_PLACEMENT_3D('',#1244,#1006,#1007);
#840=AXIS2_PLACEMENT_3D('',#1246,#1008,#1009);
#841=AXIS2_PLACEMENT_3D('',#1248,#1011,#1012);
#842=AXIS2_PLACEMENT_3D('',#1254,#1016,#1017);
#843=AXIS2_PLACEMENT_3D('',#1256,#1018,#1019);
#844=AXIS2_PLACEMENT_3D('',#1258,#1020,#1021);
#845=AXIS2_PLACEMENT_3D('',#1260,#1023,#1024);
#846=AXIS2_PLACEMENT_3D('',#1266,#1028,#1029);
#847=AXIS2_PLACEMENT_3D('',#1268,#1030,#1031);
#848=AXIS2_PLACEMENT_3D('',#1270,#1032,#1033);
#849=AXIS2_PLACEMENT_3D('',#1272,#1035,#1036);
#850=AXIS2_PLACEMENT_3D('',#1278,#1040,#1041);
#851=AXIS2_PLACEMENT_3D('',#1280,#1042,#1043);
#852=AXIS2_PLACEMENT_3D('',#1282,#1044,#1045);
#853=AXIS2_PLACEMENT_3D('',#1284,#1047,#1048);
#854=AXIS2_PLACEMENT_3D('',#1290,#1052,#1053);
#855=AXIS2_PLACEMENT_3D('',#1292,#1054,#1055);
#856=AXIS2_PLACEMENT_3D('',#1294,#1056,#1057);
#857=AXIS2_PLACEMENT_3D('',#1296,#1059,#1060);
#858=AXIS2_PLACEMENT_3D('',#1302,#1064,#1065);
#859=AXIS2_PLACEMENT_3D('',#1304,#1066,#1067);
#860=AXIS2_PLACEMENT_3D('',#1306,#1068,#1069);
#861=AXIS2_PLACEMENT_3D('',#1308,#1071,#1072);
#862=AXIS2_PLACEMENT_3D('',#1310,#1073,#1074);
#863=AXIS2_PLACEMENT_3D('',#1312,#1075,#1076);
#864=AXIS2_PLACEMENT_3D('',#1314,#1078,#1079);
#865=AXIS2_PLACEMENT_3D('',#1316,#1080,#1081);
#866=AXIS2_PLACEMENT_3D('',#1318,#1082,#1083);
#867=AXIS2_PLACEMENT_3D('',#1320,#1085,#1086);
#868=AXIS2_PLACEMENT_3D('',#1322,#1087,#1088);
#869=AXIS2_PLACEMENT_3D('',#1324,#1089,#1090);
#870=AXIS2_PLACEMENT_3D('',#1326,#1092,#1093);
#871=AXIS2_PLACEMENT_3D('',#1328,#1094,#1095);
#872=AXIS2_PLACEMENT_3D('',#1330,#1096,#1097);
#873=AXIS2_PLACEMENT_3D('',#1359,#1100,#1101);
#874=AXIS2_PLACEMENT_3D('',#1361,#1102,#1103);
#875=AXIS2_PLACEMENT_3D('',#1363,#1104,#1105);
#876=AXIS2_PLACEMENT_3D('',#1365,#1107,#1108);
#877=AXIS2_PLACEMENT_3D('',#1367,#1109,#1110);
#878=AXIS2_PLACEMENT_3D('',#1369,#1111,#1112);
#879=AXIS2_PLACEMENT_3D('',#1371,#1114,#1115);
#880=AXIS2_PLACEMENT_3D('',#1372,#1116,#1117);
#881=AXIS2_PLACEMENT_3D('',#1373,#1118,#1119);
#882=AXIS2_PLACEMENT_3D('',#1374,#1120,#1121);
#883=AXIS2_PLACEMENT_3D('',#1375,#1122,#1123);
#884=DIRECTION('axis',(0.,0.,1.));
#885=DIRECTION('refdir',(1.,0.,0.));
#886=DIRECTION('center_axis',(0.,0.,1.));
#887=DIRECTION('ref_axis',(1.,0.,0.));
#888=DIRECTION('center_axis',(0.,0.,-1.));
#889=DIRECTION('ref_axis',(1.,0.,0.));
#890=DIRECTION('',(0.,0.,-1.));
#891=DIRECTION('center_axis',(0.,0.,-1.));
#892=DIRECTION('ref_axis',(1.,0.,0.));
#893=DIRECTION('center_axis',(0.,0.,1.));
#894=DIRECTION('ref_axis',(1.,1.11022302462516E-14,0.));
#895=DIRECTION('center_axis',(0.,0.,-1.));
#896=DIRECTION('ref_axis',(1.,1.11022302462516E-14,0.));
#897=DIRECTION('',(0.,0.,1.));
#898=DIRECTION('center_axis',(0.,0.,-1.));
#899=DIRECTION('ref_axis',(1.,1.11022302462516E-14,0.));
#900=DIRECTION('',(0.,0.,1.));
#901=DIRECTION('center_axis',(-1.,0.,0.));
#902=DIRECTION('ref_axis',(0.,-1.,0.));
#903=DIRECTION('',(0.,-1.,0.));
#904=DIRECTION('',(0.,-1.,0.));
#905=DIRECTION('',(0.,0.,1.));
#906=DIRECTION('center_axis',(0.,0.,1.));
#907=DIRECTION('ref_axis',(3.55271367880039E-14,1.,0.));
#908=DIRECTION('center_axis',(0.,0.,-1.));
#909=DIRECTION('ref_axis',(3.55271367880039E-14,1.,0.));
#910=DIRECTION('center_axis',(0.,0.,-1.));
#911=DIRECTION('ref_axis',(3.55271367880039E-14,1.,0.));
#912=DIRECTION('',(0.,0.,1.));
#913=DIRECTION('center_axis',(-5.55111512312579E-16,-1.,0.));
#914=DIRECTION('ref_axis',(1.,-5.55111512312579E-16,0.));
#915=DIRECTION('',(1.,-5.55111512312579E-16,0.));
#916=DIRECTION('',(1.,-5.55111512312579E-16,0.));
#917=DIRECTION('',(0.,0.,1.));
#918=DIRECTION('center_axis',(0.,0.,1.));
#919=DIRECTION('ref_axis',(-1.,0.,0.));
#920=DIRECTION('center_axis',(0.,0.,-1.));
#921=DIRECTION('ref_axis',(-1.,0.,0.));
#922=DIRECTION('center_axis',(0.,0.,-1.));
#923=DIRECTION('ref_axis',(-1.,0.,0.));
#924=DIRECTION('',(0.,0.,1.));
#925=DIRECTION('center_axis',(1.,0.,0.));
#926=DIRECTION('ref_axis',(0.,1.,0.));
#927=DIRECTION('',(0.,1.,0.));
#928=DIRECTION('',(0.,1.,0.));
#929=DIRECTION('',(0.,0.,1.));
#930=DIRECTION('center_axis',(0.,0.,1.));
#931=DIRECTION('ref_axis',(0.,-1.,0.));
#932=DIRECTION('center_axis',(0.,0.,-1.));
#933=DIRECTION('ref_axis',(0.,-1.,0.));
#934=DIRECTION('center_axis',(0.,0.,-1.));
#935=DIRECTION('ref_axis',(0.,-1.,0.));
#936=DIRECTION('',(0.,0.,1.));
#937=DIRECTION('center_axis',(-3.05311331771918E-15,1.,0.));
#938=DIRECTION('ref_axis',(-1.,-3.05311331771918E-15,0.));
#939=DIRECTION('',(-1.,-3.05311331771918E-15,0.));
#940=DIRECTION('',(-1.,-3.05311331771918E-15,0.));
#941=DIRECTION('center_axis',(0.,0.,1.));
#942=DIRECTION('ref_axis',(1.,0.,0.));
#943=DIRECTION('center_axis',(0.,0.,-1.));
#944=DIRECTION('ref_axis',(1.,0.,0.));
#945=DIRECTION('',(0.,0.,-1.));
#946=DIRECTION('center_axis',(0.,0.,-1.));
#947=DIRECTION('ref_axis',(1.,0.,0.));
#948=DIRECTION('center_axis',(0.,0.,1.));
#949=DIRECTION('ref_axis',(-0.62546282685793,-0.780253966487122,0.));
#950=DIRECTION('center_axis',(0.,0.,1.));
#951=DIRECTION('ref_axis',(-0.62546282685793,-0.780253966487122,0.));
#952=DIRECTION('',(0.,0.,1.));
#953=DIRECTION('center_axis',(0.,0.,-1.));
#954=DIRECTION('ref_axis',(-0.62546282685793,-0.780253966487122,0.));
#955=DIRECTION('',(0.,0.,1.));
#956=DIRECTION('center_axis',(0.,0.,1.));
#957=DIRECTION('ref_axis',(-2.27774557584283E-15,1.,0.));
#958=DIRECTION('center_axis',(0.,0.,1.));
#959=DIRECTION('ref_axis',(-2.27774557584283E-15,1.,0.));
#960=DIRECTION('center_axis',(0.,0.,1.));
#961=DIRECTION('ref_axis',(-2.27774557584283E-15,1.,0.));
#962=DIRECTION('',(0.,0.,1.));
#963=DIRECTION('center_axis',(-3.04692425283061E-15,1.,0.));
#964=DIRECTION('ref_axis',(-1.,-3.04692425283061E-15,0.));
#965=DIRECTION('',(-1.,-3.04692425283061E-15,0.));
#966=DIRECTION('',(-1.,-3.04692425283061E-15,0.));
#967=DIRECTION('',(0.,0.,1.));
#968=DIRECTION('center_axis',(0.,0.,1.));
#969=DIRECTION('ref_axis',(1.,-7.40148683083439E-15,0.));
#970=DIRECTION('center_axis',(0.,0.,1.));
#971=DIRECTION('ref_axis',(1.,-7.40148683083439E-15,0.));
#972=DIRECTION('center_axis',(0.,0.,1.));
#973=DIRECTION('ref_axis',(1.,-7.40148683083439E-15,0.));
#974=DIRECTION('',(0.,0.,1.));
#975=DIRECTION('center_axis',(1.,-1.73472347597681E-16,0.));
#976=DIRECTION('ref_axis',(1.73472347597681E-16,1.,0.));
#977=DIRECTION('',(1.73472347597681E-16,1.,0.));
#978=DIRECTION('',(1.73472347597681E-16,1.,0.));
#979=DIRECTION('',(0.,0.,1.));
#980=DIRECTION('center_axis',(0.,0.,1.));
#981=DIRECTION('ref_axis',(0.,-1.,0.));
#982=DIRECTION('center_axis',(0.,0.,1.));
#983=DIRECTION('ref_axis',(0.,-1.,0.));
#984=DIRECTION('center_axis',(0.,0.,1.));
#985=DIRECTION('ref_axis',(0.,-1.,0.));
#986=DIRECTION('',(0.,0.,1.));
#987=DIRECTION('center_axis',(7.4595052046483E-17,-1.,0.));
#988=DIRECTION('ref_axis',(1.,7.4595052046483E-17,0.));
#989=DIRECTION('',(1.,7.4595052046483E-17,0.));
#990=DIRECTION('',(1.,7.4595052046483E-17,0.));
#991=DIRECTION('',(0.,0.,1.));
#992=DIRECTION('center_axis',(0.,0.,1.));
#993=DIRECTION('ref_axis',(-1.,4.31753398465339E-15,0.));
#994=DIRECTION('center_axis',(0.,0.,1.));
#995=DIRECTION('ref_axis',(-1.,4.31753398465339E-15,0.));
#996=DIRECTION('center_axis',(0.,0.,1.));
#997=DIRECTION('ref_axis',(-1.,4.31753398465339E-15,0.));
#998=DIRECTION('',(0.,0.,1.));
#999=DIRECTION('center_axis',(-1.,2.19982271133157E-15,0.));
#1000=DIRECTION('ref_axis',(-2.19982271133157E-15,-1.,0.));
#1001=DIRECTION('',(-2.19982271133157E-15,-1.,0.));
#1002=DIRECTION('',(-2.19982271133157E-15,-1.,0.));
#1003=DIRECTION('',(0.,0.,1.));
#1004=DIRECTION('center_axis',(0.,0.,1.));
#1005=DIRECTION('ref_axis',(1.,0.,0.));
#1006=DIRECTION('center_axis',(0.,0.,1.));
#1007=DIRECTION('ref_axis',(1.,0.,0.));
#1008=DIRECTION('center_axis',(0.,0.,-1.));
#1009=DIRECTION('ref_axis',(1.,0.,0.));
#1010=DIRECTION('',(0.,0.,1.));
#1011=DIRECTION('center_axis',(6.71336673998582E-17,-1.,0.));
#1012=DIRECTION('ref_axis',(1.,6.71336673998582E-17,0.));
#1013=DIRECTION('',(1.,6.71336673998582E-17,0.));
#1014=DIRECTION('',(1.,6.71336673998582E-17,0.));
#1015=DIRECTION('',(0.,0.,1.));
#1016=DIRECTION('center_axis',(0.,0.,1.));
#1017=DIRECTION('ref_axis',(0.,1.,0.));
#1018=DIRECTION('center_axis',(0.,0.,1.));
#1019=DIRECTION('ref_axis',(0.,1.,0.));
#1020=DIRECTION('center_axis',(0.,0.,-1.));
#1021=DIRECTION('ref_axis',(0.,1.,0.));
#1022=DIRECTION('',(0.,0.,1.));
#1023=DIRECTION('center_axis',(1.,0.,0.));
#1024=DIRECTION('ref_axis',(0.,1.,0.));
#1025=DIRECTION('',(0.,1.,0.));
#1026=DIRECTION('',(0.,1.,0.));
#1027=DIRECTION('',(0.,0.,1.));
#1028=DIRECTION('center_axis',(0.,0.,1.));
#1029=DIRECTION('ref_axis',(-1.97372982155584E-14,-1.,0.));
#1030=DIRECTION('center_axis',(0.,0.,1.));
#1031=DIRECTION('ref_axis',(-1.97372982155584E-14,-1.,0.));
#1032=DIRECTION('center_axis',(0.,0.,1.));
#1033=DIRECTION('ref_axis',(-1.97372982155584E-14,-1.,0.));
#1034=DIRECTION('',(0.,0.,1.));
#1035=DIRECTION('center_axis',(1.6162261276738E-16,-1.,0.));
#1036=DIRECTION('ref_axis',(1.,1.6162261276738E-16,0.));
#1037=DIRECTION('',(1.,1.6162261276738E-16,0.));
#1038=DIRECTION('',(1.,1.6162261276738E-16,0.));
#1039=DIRECTION('',(0.,0.,1.));
#1040=DIRECTION('center_axis',(0.,0.,1.));
#1041=DIRECTION('ref_axis',(-1.,7.40148683083432E-15,0.));
#1042=DIRECTION('center_axis',(0.,0.,1.));
#1043=DIRECTION('ref_axis',(-1.,7.40148683083432E-15,0.));
#1044=DIRECTION('center_axis',(0.,0.,1.));
#1045=DIRECTION('ref_axis',(-1.,7.40148683083432E-15,0.));
#1046=DIRECTION('',(0.,0.,1.));
#1047=DIRECTION('center_axis',(-1.,6.93889390390722E-16,0.));
#1048=DIRECTION('ref_axis',(-6.93889390390722E-16,-1.,0.));
#1049=DIRECTION('',(-6.93889390390722E-16,-1.,0.));
#1050=DIRECTION('',(-6.93889390390722E-16,-1.,0.));
#1051=DIRECTION('',(0.,0.,1.));
#1052=DIRECTION('center_axis',(0.,0.,1.));
#1053=DIRECTION('ref_axis',(0.,1.,0.));
#1054=DIRECTION('center_axis',(0.,0.,1.));
#1055=DIRECTION('ref_axis',(0.,1.,0.));
#1056=DIRECTION('center_axis',(0.,0.,1.));
#1057=DIRECTION('ref_axis',(0.,1.,0.));
#1058=DIRECTION('',(0.,0.,1.));
#1059=DIRECTION('center_axis',(1.82815455169836E-15,1.,0.));
#1060=DIRECTION('ref_axis',(-1.,1.82815455169836E-15,0.));
#1061=DIRECTION('',(-1.,1.82815455169836E-15,0.));
#1062=DIRECTION('',(-1.,1.82815455169836E-15,0.));
#1063=DIRECTION('',(0.,0.,1.));
#1064=DIRECTION('center_axis',(0.,0.,1.));
#1065=DIRECTION('ref_axis',(0.707077457569052,0.707136103588048,0.));
#1066=DIRECTION('center_axis',(0.,0.,1.));
#1067=DIRECTION('ref_axis',(0.707077457569052,0.707136103588048,0.));
#1068=DIRECTION('center_axis',(0.,0.,1.));
#1069=DIRECTION('ref_axis',(0.707077457569052,0.707136103588048,0.));
#1070=DIRECTION('',(0.,0.,1.));
#1071=DIRECTION('center_axis',(0.,0.,1.));
#1072=DIRECTION('ref_axis',(-0.707077457569023,-0.707136103588077,0.));
#1073=DIRECTION('center_axis',(0.,0.,1.));
#1074=DIRECTION('ref_axis',(-0.707077457569023,-0.707136103588077,0.));
#1075=DIRECTION('center_axis',(0.,0.,-1.));
#1076=DIRECTION('ref_axis',(-0.707077457569023,-0.707136103588077,0.));
#1077=DIRECTION('',(0.,0.,1.));
#1078=DIRECTION('center_axis',(0.,0.,1.));
#1079=DIRECTION('ref_axis',(0.775312057175466,0.63157835143262,0.));
#1080=DIRECTION('center_axis',(0.,0.,1.));
#1081=DIRECTION('ref_axis',(0.775312057175466,0.63157835143262,0.));
#1082=DIRECTION('center_axis',(0.,0.,1.));
#1083=DIRECTION('ref_axis',(0.775312057175466,0.63157835143262,0.));
#1084=DIRECTION('',(0.,0.,1.));
#1085=DIRECTION('center_axis',(0.,0.,1.));
#1086=DIRECTION('ref_axis',(-0.77531205717546,-0.631578351432628,0.));
#1087=DIRECTION('center_axis',(0.,0.,1.));
#1088=DIRECTION('ref_axis',(-0.77531205717546,-0.631578351432628,0.));
#1089=DIRECTION('center_axis',(0.,0.,-1.));
#1090=DIRECTION('ref_axis',(-0.77531205717546,-0.631578351432628,0.));
#1091=DIRECTION('',(0.,0.,1.));
#1092=DIRECTION('center_axis',(0.,0.,1.));
#1093=DIRECTION('ref_axis',(-0.463084701799015,0.886314029540161,0.));
#1094=DIRECTION('center_axis',(0.,0.,1.));
#1095=DIRECTION('ref_axis',(-0.463084701799015,0.886314029540161,0.));
#1096=DIRECTION('center_axis',(0.,0.,1.));
#1097=DIRECTION('ref_axis',(-0.463084701799015,0.886314029540161,0.));
#1098=DIRECTION('',(0.,0.,1.));
#1099=DIRECTION('',(0.,0.,1.));
#1100=DIRECTION('center_axis',(0.,0.,1.));
#1101=DIRECTION('ref_axis',(0.198145362126238,0.980172645745566,0.));
#1102=DIRECTION('center_axis',(0.,0.,1.));
#1103=DIRECTION('ref_axis',(0.198145362126238,0.980172645745566,0.));
#1104=DIRECTION('center_axis',(0.,0.,1.));
#1105=DIRECTION('ref_axis',(0.198145362126238,0.980172645745566,0.));
#1106=DIRECTION('',(0.,0.,1.));
#1107=DIRECTION('center_axis',(0.,0.,1.));
#1108=DIRECTION('ref_axis',(-0.198145362126203,-0.980172645745573,0.));
#1109=DIRECTION('center_axis',(0.,0.,1.));
#1110=DIRECTION('ref_axis',(-0.198145362126203,-0.980172645745573,0.));
#1111=DIRECTION('center_axis',(0.,0.,-1.));
#1112=DIRECTION('ref_axis',(-0.198145362126203,-0.980172645745573,0.));
#1113=DIRECTION('',(0.,0.,1.));
#1114=DIRECTION('center_axis',(0.,0.,1.));
#1115=DIRECTION('ref_axis',(0.625462826857928,0.780253966487123,0.));
#1116=DIRECTION('center_axis',(0.,0.,1.));
#1117=DIRECTION('ref_axis',(0.625462826857928,0.780253966487123,0.));
#1118=DIRECTION('center_axis',(0.,0.,1.));
#1119=DIRECTION('ref_axis',(0.625462826857928,0.780253966487123,0.));
#1120=DIRECTION('center_axis',(0.,0.,1.));
#1121=DIRECTION('ref_axis',(1.,0.,0.));
#1122=DIRECTION('center_axis',(0.,0.,1.));
#1123=DIRECTION('ref_axis',(1.,0.,0.));
#1124=CARTESIAN_POINT('',(0.,0.,0.));
#1125=CARTESIAN_POINT('Origin',(-16.9,38.0999999999998,0.));
#1126=CARTESIAN_POINT('',(-19.4,38.0999999999998,1.6));
#1127=CARTESIAN_POINT('Origin',(-16.9,38.0999999999998,1.6));
#1128=CARTESIAN_POINT('',(-19.4,38.0999999999998,0.));
#1129=CARTESIAN_POINT('',(-19.4,38.0999999999998,0.));
#1130=CARTESIAN_POINT('Origin',(-16.9,38.0999999999998,0.));
#1131=CARTESIAN_POINT('Origin',(-215.8375,35.1000000000001,0.));
#1132=CARTESIAN_POINT('',(-213.8375,35.1000000000001,0.));
#1133=CARTESIAN_POINT('',(-215.8375,33.1000000000001,0.));
#1134=CARTESIAN_POINT('Origin',(-215.8375,35.1000000000001,0.));
#1135=CARTESIAN_POINT('',(-215.8375,33.1000000000001,1.6));
#1136=CARTESIAN_POINT('',(-215.8375,33.1000000000001,0.));
#1137=CARTESIAN_POINT('',(-213.8375,35.1000000000001,1.6));
#1138=CARTESIAN_POINT('Origin',(-215.8375,35.1000000000001,1.6));
#1139=CARTESIAN_POINT('',(-213.8375,35.1000000000001,0.));
#1140=CARTESIAN_POINT('Origin',(-213.8375,41.1,0.));
#1141=CARTESIAN_POINT('',(-213.8375,41.1,0.));
#1142=CARTESIAN_POINT('',(-213.8375,41.1,0.));
#1143=CARTESIAN_POINT('',(-213.8375,41.1,1.6));
#1144=CARTESIAN_POINT('',(-213.8375,41.1,1.6));
#1145=CARTESIAN_POINT('',(-213.8375,41.1,0.));
#1146=CARTESIAN_POINT('Origin',(-215.8375,41.0999999999999,0.));
#1147=CARTESIAN_POINT('',(-215.8375,43.1,0.));
#1148=CARTESIAN_POINT('Origin',(-215.8375,41.0999999999999,0.));
#1149=CARTESIAN_POINT('',(-215.8375,43.1,1.6));
#1150=CARTESIAN_POINT('Origin',(-215.8375,41.0999999999999,1.6));
#1151=CARTESIAN_POINT('',(-215.8375,43.1,0.));
#1152=CARTESIAN_POINT('Origin',(-231.8375,43.1,0.));
#1153=CARTESIAN_POINT('',(-231.8375,43.1,0.));
#1154=CARTESIAN_POINT('',(-231.8375,43.1,0.));
#1155=CARTESIAN_POINT('',(-231.8375,43.1,1.6));
#1156=CARTESIAN_POINT('',(-231.8375,43.1,1.6));
#1157=CARTESIAN_POINT('',(-231.8375,43.1,0.));
#1158=CARTESIAN_POINT('Origin',(-231.8375,41.1,0.));
#1159=CARTESIAN_POINT('',(-233.8375,41.1,0.));
#1160=CARTESIAN_POINT('Origin',(-231.8375,41.1,0.));
#1161=CARTESIAN_POINT('',(-233.8375,41.1,1.6));
#1162=CARTESIAN_POINT('Origin',(-231.8375,41.1,1.6));
#1163=CARTESIAN_POINT('',(-233.8375,41.1,0.));
#1164=CARTESIAN_POINT('Origin',(-233.8375,35.1,0.));
#1165=CARTESIAN_POINT('',(-233.8375,35.1,0.));
#1166=CARTESIAN_POINT('',(-233.8375,35.1,0.));
#1167=CARTESIAN_POINT('',(-233.8375,35.1,1.6));
#1168=CARTESIAN_POINT('',(-233.8375,35.1,1.6));
#1169=CARTESIAN_POINT('',(-233.8375,35.1,0.));
#1170=CARTESIAN_POINT('Origin',(-231.8375,35.1,0.));
#1171=CARTESIAN_POINT('',(-231.8375,33.1,0.));
#1172=CARTESIAN_POINT('Origin',(-231.8375,35.1,0.));
#1173=CARTESIAN_POINT('',(-231.8375,33.1,1.6));
#1174=CARTESIAN_POINT('Origin',(-231.8375,35.1,1.6));
#1175=CARTESIAN_POINT('',(-231.8375,33.1,0.));
#1176=CARTESIAN_POINT('Origin',(-215.8375,33.1000000000001,0.));
#1177=CARTESIAN_POINT('',(-215.8375,33.1000000000001,0.));
#1178=CARTESIAN_POINT('',(-215.8375,33.1000000000001,1.6));
#1179=CARTESIAN_POINT('Origin',(-268.85,38.0999999999998,0.));
#1180=CARTESIAN_POINT('',(-271.35,38.0999999999998,1.6));
#1181=CARTESIAN_POINT('Origin',(-268.85,38.0999999999998,1.6));
#1182=CARTESIAN_POINT('',(-271.35,38.0999999999998,0.));
#1183=CARTESIAN_POINT('',(-271.35,38.0999999999998,0.));
#1184=CARTESIAN_POINT('Origin',(-268.85,38.0999999999998,0.));
#1185=CARTESIAN_POINT('Origin',(-53.3597907705826,60.4010280942076,0.));
#1186=CARTESIAN_POINT('',(-55.8616420780144,57.280012228259,0.));
#1187=CARTESIAN_POINT('',(-50.5292604925559,57.5747056877622,0.));
#1188=CARTESIAN_POINT('Origin',(-53.3597907705826,60.4010280942076,0.));
#1189=CARTESIAN_POINT('',(-55.8616420780144,57.280012228259,1.6));
#1190=CARTESIAN_POINT('',(-55.8616420780144,57.280012228259,0.));
#1191=CARTESIAN_POINT('',(-50.5292604925559,57.5747056877622,1.6));
#1192=CARTESIAN_POINT('Origin',(-53.3597907705826,60.4010280942076,1.6));
#1193=CARTESIAN_POINT('',(-50.5292604925559,57.5747056877622,0.));
#1194=CARTESIAN_POINT('Origin',(-27.0749999999999,34.155312342523,0.));
#1195=CARTESIAN_POINT('',(-27.075,67.3,0.));
#1196=CARTESIAN_POINT('Origin',(-27.0749999999999,34.155312342523,0.));
#1197=CARTESIAN_POINT('',(-27.075,67.3,1.6));
#1198=CARTESIAN_POINT('Origin',(-27.0749999999999,34.155312342523,1.6));
#1199=CARTESIAN_POINT('',(-27.075,67.3,0.));
#1200=CARTESIAN_POINT('Origin',(-12.5,67.3,0.));
#1201=CARTESIAN_POINT('',(-12.5,67.3,0.));
#1202=CARTESIAN_POINT('',(-12.5,67.3,0.));
#1203=CARTESIAN_POINT('',(-12.5,67.3,1.6));
#1204=CARTESIAN_POINT('',(-12.5,67.3,1.6));
#1205=CARTESIAN_POINT('',(-12.5,67.3,0.));
#1206=CARTESIAN_POINT('Origin',(-12.5,63.7,0.));
#1207=CARTESIAN_POINT('',(-8.89999999999997,63.7,0.));
#1208=CARTESIAN_POINT('Origin',(-12.5,63.7,0.));
#1209=CARTESIAN_POINT('',(-8.89999999999997,63.7,1.6));
#1210=CARTESIAN_POINT('Origin',(-12.5,63.7,1.6));
#1211=CARTESIAN_POINT('',(-8.89999999999997,63.7,0.));
#1212=CARTESIAN_POINT('Origin',(-8.89999999999998,12.5,0.));
#1213=CARTESIAN_POINT('',(-8.89999999999998,12.5,0.));
#1214=CARTESIAN_POINT('',(-8.89999999999998,12.5,0.));
#1215=CARTESIAN_POINT('',(-8.89999999999997,12.5,1.6));
#1216=CARTESIAN_POINT('',(-8.89999999999998,12.5,1.6));
#1217=CARTESIAN_POINT('',(-8.89999999999998,12.5,0.));
#1218=CARTESIAN_POINT('Origin',(-12.5,12.5,0.));
#1219=CARTESIAN_POINT('',(-12.5,8.9,0.));
#1220=CARTESIAN_POINT('Origin',(-12.5,12.5,0.));
#1221=CARTESIAN_POINT('',(-12.5,8.9,1.6));
#1222=CARTESIAN_POINT('Origin',(-12.5,12.5,1.6));
#1223=CARTESIAN_POINT('',(-12.5,8.9,0.));
#1224=CARTESIAN_POINT('Origin',(-101.8,8.89999999999999,0.));
#1225=CARTESIAN_POINT('',(-101.8,8.89999999999999,0.));
#1226=CARTESIAN_POINT('',(-101.8,8.89999999999999,0.));
#1227=CARTESIAN_POINT('',(-101.8,8.89999999999999,1.6));
#1228=CARTESIAN_POINT('',(-101.8,8.89999999999999,1.6));
#1229=CARTESIAN_POINT('',(-101.8,8.89999999999999,0.));
#1230=CARTESIAN_POINT('Origin',(-101.8,12.5,0.));
#1231=CARTESIAN_POINT('',(-105.4,12.5,0.));
#1232=CARTESIAN_POINT('Origin',(-101.8,12.5,0.));
#1233=CARTESIAN_POINT('',(-105.4,12.5,1.6));
#1234=CARTESIAN_POINT('Origin',(-101.8,12.5,1.6));
#1235=CARTESIAN_POINT('',(-105.4,12.5,0.));
#1236=CARTESIAN_POINT('Origin',(-105.4,20.575,0.));
#1237=CARTESIAN_POINT('',(-105.4,20.575,0.));
#1238=CARTESIAN_POINT('',(-105.4,20.575,0.));
#1239=CARTESIAN_POINT('',(-105.4,20.575,1.6));
#1240=CARTESIAN_POINT('',(-105.4,20.575,1.6));
#1241=CARTESIAN_POINT('',(-105.4,20.575,0.));
#1242=CARTESIAN_POINT('Origin',(-109.8,20.575,0.));
#1243=CARTESIAN_POINT('',(-109.8,24.975,0.));
#1244=CARTESIAN_POINT('Origin',(-109.8,20.575,0.));
#1245=CARTESIAN_POINT('',(-109.8,24.975,1.6));
#1246=CARTESIAN_POINT('Origin',(-109.8,20.575,1.6));
#1247=CARTESIAN_POINT('',(-109.8,24.975,0.));
#1248=CARTESIAN_POINT('Origin',(-175.95,24.975,0.));
#1249=CARTESIAN_POINT('',(-175.95,24.975,0.));
#1250=CARTESIAN_POINT('',(-175.95,24.975,0.));
#1251=CARTESIAN_POINT('',(-175.95,24.975,1.6));
#1252=CARTESIAN_POINT('',(-175.95,24.975,1.6));
#1253=CARTESIAN_POINT('',(-175.95,24.975,0.));
#1254=CARTESIAN_POINT('Origin',(-175.95,20.575,0.));
#1255=CARTESIAN_POINT('',(-180.35,20.575,0.));
#1256=CARTESIAN_POINT('Origin',(-175.95,20.575,0.));
#1257=CARTESIAN_POINT('',(-180.35,20.575,1.6));
#1258=CARTESIAN_POINT('Origin',(-175.95,20.575,1.6));
#1259=CARTESIAN_POINT('',(-180.35,20.575,0.));
#1260=CARTESIAN_POINT('Origin',(-180.35,12.5,0.));
#1261=CARTESIAN_POINT('',(-180.35,12.5,0.));
#1262=CARTESIAN_POINT('',(-180.35,12.5,0.));
#1263=CARTESIAN_POINT('',(-180.35,12.5,1.6));
#1264=CARTESIAN_POINT('',(-180.35,12.5,1.6));
#1265=CARTESIAN_POINT('',(-180.35,12.5,0.));
#1266=CARTESIAN_POINT('Origin',(-183.95,12.5,0.));
#1267=CARTESIAN_POINT('',(-183.95,8.9,0.));
#1268=CARTESIAN_POINT('Origin',(-183.95,12.5,0.));
#1269=CARTESIAN_POINT('',(-183.95,8.9,1.6));
#1270=CARTESIAN_POINT('Origin',(-183.95,12.5,1.6));
#1271=CARTESIAN_POINT('',(-183.95,8.9,0.));
#1272=CARTESIAN_POINT('Origin',(-273.25,8.89999999999999,0.));
#1273=CARTESIAN_POINT('',(-273.25,8.89999999999999,0.));
#1274=CARTESIAN_POINT('',(-273.25,8.89999999999999,0.));
#1275=CARTESIAN_POINT('',(-273.25,8.89999999999999,1.6));
#1276=CARTESIAN_POINT('',(-273.25,8.89999999999999,1.6));
#1277=CARTESIAN_POINT('',(-273.25,8.89999999999999,0.));
#1278=CARTESIAN_POINT('Origin',(-273.25,12.5,0.));
#1279=CARTESIAN_POINT('',(-276.85,12.5,0.));
#1280=CARTESIAN_POINT('Origin',(-273.25,12.5,0.));
#1281=CARTESIAN_POINT('',(-276.85,12.5,1.6));
#1282=CARTESIAN_POINT('Origin',(-273.25,12.5,1.6));
#1283=CARTESIAN_POINT('',(-276.85,12.5,0.));
#1284=CARTESIAN_POINT('Origin',(-276.85,63.7,0.));
#1285=CARTESIAN_POINT('',(-276.85,63.7,0.));
#1286=CARTESIAN_POINT('',(-276.85,63.7,0.));
#1287=CARTESIAN_POINT('',(-276.85,63.7,1.6));
#1288=CARTESIAN_POINT('',(-276.85,63.7,1.6));
#1289=CARTESIAN_POINT('',(-276.85,63.7,0.));
#1290=CARTESIAN_POINT('Origin',(-273.25,63.7,0.));
#1291=CARTESIAN_POINT('',(-273.25,67.3,0.));
#1292=CARTESIAN_POINT('Origin',(-273.25,63.7,0.));
#1293=CARTESIAN_POINT('',(-273.25,67.3,1.6));
#1294=CARTESIAN_POINT('Origin',(-273.25,63.7,1.6));
#1295=CARTESIAN_POINT('',(-273.25,67.3,0.));
#1296=CARTESIAN_POINT('Origin',(-258.675,67.3,0.));
#1297=CARTESIAN_POINT('',(-258.675,67.3,0.));
#1298=CARTESIAN_POINT('',(-258.675,67.3,0.));
#1299=CARTESIAN_POINT('',(-258.675,67.3,1.6));
#1300=CARTESIAN_POINT('',(-258.675,67.3,1.6));
#1301=CARTESIAN_POINT('',(-258.675,67.3,0.));
#1302=CARTESIAN_POINT('Origin',(-258.675,34.1553123425232,0.));
#1303=CARTESIAN_POINT('',(-235.239138519231,57.5931176272742,0.));
#1304=CARTESIAN_POINT('Origin',(-258.675,34.1553123425232,0.));
#1305=CARTESIAN_POINT('',(-235.239138519231,57.5931176272742,1.6));
#1306=CARTESIAN_POINT('Origin',(-258.675,34.1553123425232,1.6));
#1307=CARTESIAN_POINT('',(-235.239138519231,57.5931176272742,0.));
#1308=CARTESIAN_POINT('Origin',(-232.410828688955,60.4216620416266,0.));
#1309=CARTESIAN_POINT('',(-229.889546535575,57.3163220758502,0.));
#1310=CARTESIAN_POINT('Origin',(-232.410828688955,60.4216620416266,0.));
#1311=CARTESIAN_POINT('',(-229.889546535575,57.3163220758502,1.6));
#1312=CARTESIAN_POINT('Origin',(-232.410828688955,60.4216620416266,1.6));
#1313=CARTESIAN_POINT('',(-229.889546535575,57.3163220758502,0.));
#1314=CARTESIAN_POINT('Origin',(-201.754089476632,22.663255126008,0.));
#1315=CARTESIAN_POINT('',(-167.146682982761,50.8548568668424,0.));
#1316=CARTESIAN_POINT('Origin',(-201.754089476632,22.663255126008,0.));
#1317=CARTESIAN_POINT('',(-167.146682982761,50.8548568668424,1.6));
#1318=CARTESIAN_POINT('Origin',(-201.754089476632,22.663255126008,1.6));
#1319=CARTESIAN_POINT('',(-167.146682982761,50.8548568668424,0.));
#1320=CARTESIAN_POINT('Origin',(-164.045434754059,53.3811702725729,0.));
#1321=CARTESIAN_POINT('',(-161.755812159878,50.1012879002591,0.));
#1322=CARTESIAN_POINT('Origin',(-164.045434754059,53.3811702725729,0.));
#1323=CARTESIAN_POINT('',(-161.755812159878,50.1012879002591,1.6));
#1324=CARTESIAN_POINT('Origin',(-164.045434754059,53.3811702725729,1.6));
#1325=CARTESIAN_POINT('',(-161.755812159878,50.1012879002591,0.));
#1326=CARTESIAN_POINT('Origin',(-101.596404969677,-36.0770105116404,0.));
#1327=CARTESIAN_POINT('',(-150.266262106619,57.0739336430833,0.));
#1328=CARTESIAN_POINT('Origin',(-101.596404969677,-36.0770105116404,0.));
#1329=CARTESIAN_POINT('',(-150.266262106619,57.0739336430833,1.6));
#1330=CARTESIAN_POINT('Origin',(-101.596404969677,-36.0770105116404,1.6));
#1331=CARTESIAN_POINT('',(-150.266262106619,57.0739336430833,0.));
#1332=CARTESIAN_POINT('Ctrl Pts',(-127.824790122211,63.127287221537,0.));
#1333=CARTESIAN_POINT('Ctrl Pts',(-127.824790122211,63.127287221537,1.6));
#1334=CARTESIAN_POINT('Ctrl Pts',(-133.193505627804,62.6247325159327,0.));
#1335=CARTESIAN_POINT('Ctrl Pts',(-133.193505627804,62.6247325159327,1.6));
#1336=CARTESIAN_POINT('Ctrl Pts',(-139.189049063481,61.0996128950947,0.));
#1337=CARTESIAN_POINT('Ctrl Pts',(-139.189049063481,61.0996128950947,1.6));
#1338=CARTESIAN_POINT('Ctrl Pts',(-146.879410776791,58.8079241546011,0.));
#1339=CARTESIAN_POINT('Ctrl Pts',(-146.879410776791,58.8079241546011,1.6));
#1340=CARTESIAN_POINT('Ctrl Pts',(-148.451662077844,58.0220327199369,0.));
#1341=CARTESIAN_POINT('Ctrl Pts',(-148.451662077844,58.0220327199369,1.6));
#1342=CARTESIAN_POINT('Ctrl Pts',(-150.266262106619,57.0739336430833,0.));
#1343=CARTESIAN_POINT('Ctrl Pts',(-150.266262106619,57.0739336430833,1.6));
#1344=CARTESIAN_POINT('',(-127.824790122211,63.127287221537,0.));
#1345=CARTESIAN_POINT('Ctrl Pts',(-127.824790122211,63.127287221537,0.));
#1346=CARTESIAN_POINT('Ctrl Pts',(-133.193505627804,62.6247325159327,0.));
#1347=CARTESIAN_POINT('Ctrl Pts',(-139.189049063481,61.0996128950947,0.));
#1348=CARTESIAN_POINT('Ctrl Pts',(-146.879410776791,58.8079241546011,0.));
#1349=CARTESIAN_POINT('Ctrl Pts',(-148.451662077844,58.0220327199369,0.));
#1350=CARTESIAN_POINT('Ctrl Pts',(-150.266262106619,57.0739336430833,0.));
#1351=CARTESIAN_POINT('',(-127.824790122211,63.127287221537,1.6));
#1352=CARTESIAN_POINT('Ctrl Pts',(-127.824790122211,63.127287221537,1.6));
#1353=CARTESIAN_POINT('Ctrl Pts',(-133.193505627804,62.6247325159327,1.6));
#1354=CARTESIAN_POINT('Ctrl Pts',(-139.189049063481,61.0996128950947,1.6));
#1355=CARTESIAN_POINT('Ctrl Pts',(-146.879410776791,58.8079241546011,1.6));
#1356=CARTESIAN_POINT('Ctrl Pts',(-148.451662077844,58.0220327199369,1.6));
#1357=CARTESIAN_POINT('Ctrl Pts',(-150.266262106619,57.0739336430833,1.6));
#1358=CARTESIAN_POINT('',(-127.824790122211,63.127287221537,0.));
#1359=CARTESIAN_POINT('Origin',(-121.335905339334,-6.19248226693938,0.));
#1360=CARTESIAN_POINT('',(-107.540467877037,62.0498943980391,0.));
#1361=CARTESIAN_POINT('Origin',(-121.335905339334,-6.19248226693938,0.));
#1362=CARTESIAN_POINT('',(-107.540467877037,62.0498943980391,1.6));
#1363=CARTESIAN_POINT('Origin',(-121.335905339334,-6.19248226693938,1.6));
#1364=CARTESIAN_POINT('',(-107.540467877037,62.0498943980391,0.));
#1365=CARTESIAN_POINT('Origin',(-106.747886428532,65.9705849810219,0.));
#1366=CARTESIAN_POINT('',(-104.94407574911,62.4003935249785,0.));
#1367=CARTESIAN_POINT('Origin',(-106.747886428532,65.9705849810219,0.));
#1368=CARTESIAN_POINT('',(-104.94407574911,62.4003935249785,1.6));
#1369=CARTESIAN_POINT('Origin',(-106.747886428532,65.9705849810219,1.6));
#1370=CARTESIAN_POINT('',(-104.94407574911,62.4003935249785,0.));
#1371=CARTESIAN_POINT('Origin',(-84.3815192134884,21.7019629771664,0.));
#1372=CARTESIAN_POINT('Origin',(-84.3815192134884,21.7019629771664,0.));
#1373=CARTESIAN_POINT('Origin',(-84.3815192134884,21.7019629771664,1.6));
#1374=CARTESIAN_POINT('Origin',(-142.875,38.1,1.6));
#1375=CARTESIAN_POINT('Origin',(-142.875,38.1,0.));
#1376=UNCERTAINTY_MEASURE_WITH_UNIT(LENGTH_MEASURE(0.01),#1380,
'DISTANCE_ACCURACY_VALUE',
'Maximum model space distance between geometric entities at asserted c
onnectivities');
#1377=UNCERTAINTY_MEASURE_WITH_UNIT(LENGTH_MEASURE(0.01),#1380,
'DISTANCE_ACCURACY_VALUE',
'Maximum model space distance between geometric entities at asserted c
onnectivities');
#1378=(
GEOMETRIC_REPRESENTATION_CONTEXT(3)
GLOBAL_UNCERTAINTY_ASSIGNED_CONTEXT((#1376))
GLOBAL_UNIT_ASSIGNED_CONTEXT((#1380,#1382,#1383))
REPRESENTATION_CONTEXT('','3D')
);
#1379=(
GEOMETRIC_REPRESENTATION_CONTEXT(3)
GLOBAL_UNCERTAINTY_ASSIGNED_CONTEXT((#1377))
GLOBAL_UNIT_ASSIGNED_CONTEXT((#1380,#1382,#1383))
REPRESENTATION_CONTEXT('','3D')
);
#1380=(
LENGTH_UNIT()
NAMED_UNIT(*)
SI_UNIT(.MILLI.,.METRE.)
);
#1381=(
LENGTH_UNIT()
NAMED_UNIT(*)
SI_UNIT($,.METRE.)
);
#1382=(
NAMED_UNIT(*)
PLANE_ANGLE_UNIT()
SI_UNIT($,.RADIAN.)
);
#1383=(
NAMED_UNIT(*)
SI_UNIT($,.STERADIAN.)
SOLID_ANGLE_UNIT()
);
#1384=SHAPE_DEFINITION_REPRESENTATION(#1385,#1386);
#1385=PRODUCT_DEFINITION_SHAPE('',$,#1388);
#1386=SHAPE_REPRESENTATION('',(#796),#1378);
#1387=PRODUCT_DEFINITION_CONTEXT('part definition',#1392,'design');
#1388=PRODUCT_DEFINITION('(Unsaved)','(Unsaved)',#1389,#1387);
#1389=PRODUCT_DEFINITION_FORMATION('',$,#1394);
#1390=PRODUCT_RELATED_PRODUCT_CATEGORY('(Unsaved)','(Unsaved)',(#1394));
#1391=APPLICATION_PROTOCOL_DEFINITION('international standard',
'automotive_design',2009,#1392);
#1392=APPLICATION_CONTEXT(
'Core Data for Automotive Mechanical Design Process');
#1393=PRODUCT_CONTEXT('part definition',#1392,'mechanical');
#1394=PRODUCT('(Unsaved)','(Unsaved)',$,(#1393));
#1395=PRESENTATION_STYLE_ASSIGNMENT((#1396));
#1396=SURFACE_STYLE_USAGE(.BOTH.,#1397);
#1397=SURFACE_SIDE_STYLE('',(#1398));
#1398=SURFACE_STYLE_FILL_AREA(#1399);
#1399=FILL_AREA_STYLE('Steel - Satin',(#1400));
#1400=FILL_AREA_STYLE_COLOUR('Steel - Satin',#1401);
#1401=COLOUR_RGB('Steel - Satin',0.627450980392157,0.627450980392157,0.627450980392157);
ENDSEC;
END-ISO-10303-21;
