ISO-10303-21;
HEADER;
/* Generated by software containing ST-Developer
 * from STEP Tools, Inc. (www.steptools.com) 
 */

FILE_DESCRIPTION(
/* description */ (''),
/* implementation_level */ '2;1');

FILE_NAME(
/* name */ 'summit-weight-external-v3.step',
/* time_stamp */ '2024-07-10T01:43:15-07:00',
/* author */ (''),
/* organization */ (''),
/* preprocessor_version */ 'ST-DEVELOPER v20',
/* originating_system */ 'Autodesk Translation Framework v13.14.0.145',

/* authorisation */ '');

FILE_SCHEMA (('AUTOMOTIVE_DESIGN { 1 0 10303 214 3 1 1 }'));
ENDSEC;

DATA;
#10=MECHANICAL_DESIGN_GEOMETRIC_PRESENTATION_REPRESENTATION('',(#13),#1213);
#11=SHAPE_REPRESENTATION_RELATIONSHIP('SRR','None',#1220,#12);
#12=ADVANCED_BREP_SHAPE_REPRESENTATION('',(#14),#1212);
#13=STYLED_ITEM('',(#1229),#14);
#14=MANIFOLD_SOLID_BREP('Body1',#561);
#15=FACE_BOUND('',#109,.T.);
#16=FACE_BOUND('',#110,.T.);
#17=FACE_BOUND('',#111,.T.);
#18=FACE_BOUND('',#112,.T.);
#19=FACE_BOUND('',#113,.T.);
#20=FACE_BOUND('',#114,.T.);
#21=FACE_BOUND('',#115,.T.);
#22=FACE_BOUND('',#116,.T.);
#23=FACE_BOUND('',#117,.T.);
#24=FACE_BOUND('',#119,.T.);
#25=FACE_BOUND('',#120,.T.);
#26=FACE_BOUND('',#121,.T.);
#27=FACE_BOUND('',#122,.T.);
#28=FACE_BOUND('',#123,.T.);
#29=FACE_BOUND('',#124,.T.);
#30=FACE_BOUND('',#125,.T.);
#31=FACE_BOUND('',#126,.T.);
#32=FACE_BOUND('',#127,.T.);
#33=PLANE('',#614);
#34=PLANE('',#618);
#35=PLANE('',#622);
#36=PLANE('',#626);
#37=PLANE('',#630);
#38=PLANE('',#631);
#39=B_SPLINE_CURVE_WITH_KNOTS('',3,(#823,#824,#825,#826,#827,#828,#829),
 .UNSPECIFIED.,.F.,.F.,(4,3,4),(-0.99213096726186,-0.478552417185335,-0.00786903107957647),
 .UNSPECIFIED.);
#40=B_SPLINE_CURVE_WITH_KNOTS('',3,(#833,#834,#835,#836,#837,#838,#839),
 .UNSPECIFIED.,.F.,.F.,(4,3,4),(-0.99213096726186,-0.478552417185335,-0.00786903107957647),
 .UNSPECIFIED.);
#41=B_SPLINE_CURVE_WITH_KNOTS('',3,(#862,#863,#864,#865,#866,#867,#868),
 .UNSPECIFIED.,.F.,.F.,(4,3,4),(0.00786929979136501,0.521447605967548,0.992130968120297),
 .UNSPECIFIED.);
#42=B_SPLINE_CURVE_WITH_KNOTS('',3,(#870,#871,#872,#873,#874,#875,#876),
 .UNSPECIFIED.,.F.,.F.,(4,3,4),(0.00786929979136501,0.521447605967548,0.992130968120297),
 .UNSPECIFIED.);
#43=B_SPLINE_CURVE_WITH_KNOTS('',3,(#923,#924,#925,#926,#927,#928,#929,
#930,#931,#932,#933,#934,#935,#936,#937,#938,#939,#940,#941),
 .UNSPECIFIED.,.F.,.F.,(4,3,3,3,3,3,4),(-0.99997539220243,-0.950351764210966,
-0.790300983694125,-0.585576564233053,-0.349285970452134,-0.0937419745451581,
-0.000130961864188709),.UNSPECIFIED.);
#44=B_SPLINE_CURVE_WITH_KNOTS('',3,(#943,#944,#945,#946,#947,#948,#949,
#950,#951,#952,#953,#954,#955,#956,#957,#958,#959,#960,#961),
 .UNSPECIFIED.,.F.,.F.,(4,3,3,3,3,3,4),(-0.99997539220243,-0.950351764210966,
-0.790300983694125,-0.585576564233053,-0.349285970452134,-0.0937419745451581,
-0.000130961864188709),.UNSPECIFIED.);
#45=B_SPLINE_CURVE_WITH_KNOTS('',3,(#1008,#1009,#1010,#1011,#1012,#1013,
#1014,#1015,#1016,#1017,#1018,#1019,#1020,#1021,#1022,#1023,#1024,#1025,
#1026),.UNSPECIFIED.,.F.,.F.,(4,3,3,3,3,3,4),(1.77372575992413E-5,0.0905868715904219,
0.286191131285648,0.551623542751936,0.792126459237743,0.825111069652238,
0.999901221962366),.UNSPECIFIED.);
#46=B_SPLINE_CURVE_WITH_KNOTS('',3,(#1028,#1029,#1030,#1031,#1032,#1033,
#1034,#1035,#1036,#1037,#1038,#1039,#1040,#1041,#1042,#1043,#1044,#1045,
#1046),.UNSPECIFIED.,.F.,.F.,(4,3,3,3,3,3,4),(1.77372575992413E-5,0.0905868715904219,
0.286191131285648,0.551623542751936,0.792126459237743,0.825111069652238,
0.999901221962366),.UNSPECIFIED.);
#47=B_SPLINE_CURVE_WITH_KNOTS('',3,(#1093,#1094,#1095,#1096,#1097,#1098,
#1099,#1100,#1101,#1102,#1103,#1104,#1105,#1106,#1107,#1108,#1109,#1110,
#1111),.UNSPECIFIED.,.F.,.F.,(4,3,3,3,3,3,4),(0.000162225604470651,0.218258387038968,
0.491928546916049,0.684123616490328,0.851666893874934,0.865448734544335,
1.00009394167532),.UNSPECIFIED.);
#48=B_SPLINE_CURVE_WITH_KNOTS('',3,(#1113,#1114,#1115,#1116,#1117,#1118,
#1119,#1120,#1121,#1122,#1123,#1124,#1125,#1126,#1127,#1128,#1129,#1130,
#1131),.UNSPECIFIED.,.F.,.F.,(4,3,3,3,3,3,4),(0.000162225604470651,0.218258387038968,
0.491928546916049,0.684123616490328,0.851666893874934,0.865448734544335,
1.00009394167532),.UNSPECIFIED.);
#49=B_SPLINE_SURFACE_WITH_KNOTS('',3,1,((#807,#808),(#809,#810),(#811,#812),
(#813,#814),(#815,#816),(#817,#818),(#819,#820)),.UNSPECIFIED.,.F.,.F.,
 .F.,(4,3,4),(2,2),(-0.99213096726186,-0.478552417185335,-0.00786903107957647),
(0.,0.16),.UNSPECIFIED.);
#50=B_SPLINE_SURFACE_WITH_KNOTS('',3,1,((#847,#848),(#849,#850),(#851,#852),
(#853,#854),(#855,#856),(#857,#858),(#859,#860)),.UNSPECIFIED.,.F.,.F.,
 .F.,(4,3,4),(2,2),(0.00786929979136501,0.521447605967548,0.992130968120297),
(0.,0.16),.UNSPECIFIED.);
#51=B_SPLINE_SURFACE_WITH_KNOTS('',3,1,((#884,#885),(#886,#887),(#888,#889),
(#890,#891),(#892,#893),(#894,#895),(#896,#897),(#898,#899),(#900,#901),
(#902,#903),(#904,#905),(#906,#907),(#908,#909),(#910,#911),(#912,#913),
(#914,#915),(#916,#917),(#918,#919),(#920,#921)),.UNSPECIFIED.,.F.,.F.,
 .F.,(4,3,3,3,3,3,4),(2,2),(-0.99997539220243,-0.950351764210966,-0.790300983694125,
-0.585576564233053,-0.349285970452134,-0.0937419745451581,-0.000130961864188709),
(0.,0.16),.UNSPECIFIED.);
#52=B_SPLINE_SURFACE_WITH_KNOTS('',3,1,((#969,#970),(#971,#972),(#973,#974),
(#975,#976),(#977,#978),(#979,#980),(#981,#982),(#983,#984),(#985,#986),
(#987,#988),(#989,#990),(#991,#992),(#993,#994),(#995,#996),(#997,#998),
(#999,#1000),(#1001,#1002),(#1003,#1004),(#1005,#1006)),.UNSPECIFIED.,.F.,
 .F.,.F.,(4,3,3,3,3,3,4),(2,2),(1.77372575992413E-5,0.0905868715904219,
0.286191131285648,0.551623542751936,0.792126459237743,0.825111069652238,
0.999901221962366),(0.,0.16),.UNSPECIFIED.);
#53=B_SPLINE_SURFACE_WITH_KNOTS('',3,1,((#1054,#1055),(#1056,#1057),(#1058,
#1059),(#1060,#1061),(#1062,#1063),(#1064,#1065),(#1066,#1067),(#1068,#1069),
(#1070,#1071),(#1072,#1073),(#1074,#1075),(#1076,#1077),(#1078,#1079),(#1080,
#1081),(#1082,#1083),(#1084,#1085),(#1086,#1087),(#1088,#1089),(#1090,#1091)),
 .UNSPECIFIED.,.F.,.F.,.F.,(4,3,3,3,3,3,4),(2,2),(0.000162225604470651,
0.218258387038968,0.491928546916049,0.684123616490328,0.851666893874934,
0.865448734544335,1.00009394167532),(0.,0.16),.UNSPECIFIED.);
#54=FACE_OUTER_BOUND('',#82,.T.);
#55=FACE_OUTER_BOUND('',#83,.T.);
#56=FACE_OUTER_BOUND('',#84,.T.);
#57=FACE_OUTER_BOUND('',#85,.T.);
#58=FACE_OUTER_BOUND('',#86,.T.);
#59=FACE_OUTER_BOUND('',#87,.T.);
#60=FACE_OUTER_BOUND('',#88,.T.);
#61=FACE_OUTER_BOUND('',#89,.T.);
#62=FACE_OUTER_BOUND('',#90,.T.);
#63=FACE_OUTER_BOUND('',#91,.T.);
#64=FACE_OUTER_BOUND('',#92,.T.);
#65=FACE_OUTER_BOUND('',#93,.T.);
#66=FACE_OUTER_BOUND('',#94,.T.);
#67=FACE_OUTER_BOUND('',#95,.T.);
#68=FACE_OUTER_BOUND('',#96,.T.);
#69=FACE_OUTER_BOUND('',#97,.T.);
#70=FACE_OUTER_BOUND('',#98,.T.);
#71=FACE_OUTER_BOUND('',#99,.T.);
#72=FACE_OUTER_BOUND('',#100,.T.);
#73=FACE_OUTER_BOUND('',#101,.T.);
#74=FACE_OUTER_BOUND('',#102,.T.);
#75=FACE_OUTER_BOUND('',#103,.T.);
#76=FACE_OUTER_BOUND('',#104,.T.);
#77=FACE_OUTER_BOUND('',#105,.T.);
#78=FACE_OUTER_BOUND('',#106,.T.);
#79=FACE_OUTER_BOUND('',#107,.T.);
#80=FACE_OUTER_BOUND('',#108,.T.);
#81=FACE_OUTER_BOUND('',#118,.T.);
#82=EDGE_LOOP('',(#360,#361,#362,#363));
#83=EDGE_LOOP('',(#364,#365,#366,#367));
#84=EDGE_LOOP('',(#368,#369,#370,#371));
#85=EDGE_LOOP('',(#372,#373,#374,#375));
#86=EDGE_LOOP('',(#376,#377,#378,#379));
#87=EDGE_LOOP('',(#380,#381,#382,#383));
#88=EDGE_LOOP('',(#384,#385,#386,#387));
#89=EDGE_LOOP('',(#388,#389,#390,#391));
#90=EDGE_LOOP('',(#392,#393,#394,#395));
#91=EDGE_LOOP('',(#396,#397,#398,#399));
#92=EDGE_LOOP('',(#400,#401,#402,#403));
#93=EDGE_LOOP('',(#404,#405,#406,#407));
#94=EDGE_LOOP('',(#408,#409,#410,#411));
#95=EDGE_LOOP('',(#412,#413,#414,#415));
#96=EDGE_LOOP('',(#416,#417,#418,#419));
#97=EDGE_LOOP('',(#420,#421,#422,#423));
#98=EDGE_LOOP('',(#424,#425,#426,#427));
#99=EDGE_LOOP('',(#428,#429,#430,#431));
#100=EDGE_LOOP('',(#432,#433,#434,#435));
#101=EDGE_LOOP('',(#436,#437,#438,#439));
#102=EDGE_LOOP('',(#440,#441,#442,#443));
#103=EDGE_LOOP('',(#444,#445,#446,#447));
#104=EDGE_LOOP('',(#448,#449,#450,#451));
#105=EDGE_LOOP('',(#452,#453,#454,#455));
#106=EDGE_LOOP('',(#456,#457,#458,#459));
#107=EDGE_LOOP('',(#460,#461,#462,#463));
#108=EDGE_LOOP('',(#464,#465,#466,#467,#468,#469,#470,#471));
#109=EDGE_LOOP('',(#472));
#110=EDGE_LOOP('',(#473));
#111=EDGE_LOOP('',(#474));
#112=EDGE_LOOP('',(#475));
#113=EDGE_LOOP('',(#476,#477,#478,#479,#480,#481,#482,#483,#484,#485));
#114=EDGE_LOOP('',(#486));
#115=EDGE_LOOP('',(#487));
#116=EDGE_LOOP('',(#488));
#117=EDGE_LOOP('',(#489));
#118=EDGE_LOOP('',(#490,#491,#492,#493,#494,#495,#496,#497));
#119=EDGE_LOOP('',(#498));
#120=EDGE_LOOP('',(#499));
#121=EDGE_LOOP('',(#500));
#122=EDGE_LOOP('',(#501));
#123=EDGE_LOOP('',(#502,#503,#504,#505,#506,#507,#508,#509,#510,#511));
#124=EDGE_LOOP('',(#512));
#125=EDGE_LOOP('',(#513));
#126=EDGE_LOOP('',(#514));
#127=EDGE_LOOP('',(#515));
#128=LINE('',#787,#162);
#129=LINE('',#793,#163);
#130=LINE('',#799,#164);
#131=LINE('',#805,#165);
#132=LINE('',#831,#166);
#133=LINE('',#840,#167);
#134=LINE('',#846,#168);
#135=LINE('',#877,#169);
#136=LINE('',#883,#170);
#137=LINE('',#962,#171);
#138=LINE('',#968,#172);
#139=LINE('',#1047,#173);
#140=LINE('',#1053,#174);
#141=LINE('',#1132,#175);
#142=LINE('',#1140,#176);
#143=LINE('',#1146,#177);
#144=LINE('',#1152,#178);
#145=LINE('',#1158,#179);
#146=LINE('',#1163,#180);
#147=LINE('',#1165,#181);
#148=LINE('',#1167,#182);
#149=LINE('',#1168,#183);
#150=LINE('',#1174,#184);
#151=LINE('',#1177,#185);
#152=LINE('',#1179,#186);
#153=LINE('',#1180,#187);
#154=LINE('',#1186,#188);
#155=LINE('',#1189,#189);
#156=LINE('',#1191,#190);
#157=LINE('',#1192,#191);
#158=LINE('',#1198,#192);
#159=LINE('',#1201,#193);
#160=LINE('',#1203,#194);
#161=LINE('',#1204,#195);
#162=VECTOR('',#638,4.15);
#163=VECTOR('',#645,4.15);
#164=VECTOR('',#652,4.14999999999999);
#165=VECTOR('',#659,2.5);
#166=VECTOR('',#662,10.);
#167=VECTOR('',#663,10.);
#168=VECTOR('',#670,10.);
#169=VECTOR('',#671,10.);
#170=VECTOR('',#678,10.);
#171=VECTOR('',#679,10.);
#172=VECTOR('',#686,10.);
#173=VECTOR('',#687,10.);
#174=VECTOR('',#694,10.);
#175=VECTOR('',#695,10.);
#176=VECTOR('',#706,2.5);
#177=VECTOR('',#713,2.5);
#178=VECTOR('',#720,4.14999999999999);
#179=VECTOR('',#727,2.5);
#180=VECTOR('',#732,10.);
#181=VECTOR('',#733,10.);
#182=VECTOR('',#734,10.);
#183=VECTOR('',#735,10.);
#184=VECTOR('',#742,10.);
#185=VECTOR('',#745,10.);
#186=VECTOR('',#746,10.);
#187=VECTOR('',#747,10.);
#188=VECTOR('',#754,10.);
#189=VECTOR('',#757,10.);
#190=VECTOR('',#758,10.);
#191=VECTOR('',#759,10.);
#192=VECTOR('',#766,10.);
#193=VECTOR('',#769,10.);
#194=VECTOR('',#770,10.);
#195=VECTOR('',#771,10.);
#196=CIRCLE('',#576,4.15);
#197=CIRCLE('',#577,4.15);
#198=CIRCLE('',#579,4.15);
#199=CIRCLE('',#580,4.15);
#200=CIRCLE('',#582,4.14999999999999);
#201=CIRCLE('',#583,4.14999999999999);
#202=CIRCLE('',#585,2.5);
#203=CIRCLE('',#586,2.5);
#204=CIRCLE('',#588,2.65000000613895);
#205=CIRCLE('',#589,2.65000000613895);
#206=CIRCLE('',#591,2.65000212951298);
#207=CIRCLE('',#592,2.65000212951298);
#208=CIRCLE('',#594,1.09999999999983);
#209=CIRCLE('',#595,1.09999999999983);
#210=CIRCLE('',#597,1.10000311045275);
#211=CIRCLE('',#598,1.10000311045275);
#212=CIRCLE('',#600,2.64999999999983);
#213=CIRCLE('',#601,2.64999999999983);
#214=CIRCLE('',#603,2.5);
#215=CIRCLE('',#604,2.5);
#216=CIRCLE('',#606,2.5);
#217=CIRCLE('',#607,2.5);
#218=CIRCLE('',#609,4.14999999999999);
#219=CIRCLE('',#610,4.14999999999999);
#220=CIRCLE('',#612,2.5);
#221=CIRCLE('',#613,2.5);
#222=CIRCLE('',#616,3.6);
#223=CIRCLE('',#617,3.6);
#224=CIRCLE('',#620,3.60000000000005);
#225=CIRCLE('',#621,3.60000000000005);
#226=CIRCLE('',#624,3.60000000000003);
#227=CIRCLE('',#625,3.60000000000003);
#228=CIRCLE('',#628,3.59999999999975);
#229=CIRCLE('',#629,3.59999999999975);
#230=VERTEX_POINT('',#784);
#231=VERTEX_POINT('',#786);
#232=VERTEX_POINT('',#790);
#233=VERTEX_POINT('',#792);
#234=VERTEX_POINT('',#796);
#235=VERTEX_POINT('',#798);
#236=VERTEX_POINT('',#802);
#237=VERTEX_POINT('',#804);
#238=VERTEX_POINT('',#821);
#239=VERTEX_POINT('',#822);
#240=VERTEX_POINT('',#830);
#241=VERTEX_POINT('',#832);
#242=VERTEX_POINT('',#842);
#243=VERTEX_POINT('',#844);
#244=VERTEX_POINT('',#861);
#245=VERTEX_POINT('',#869);
#246=VERTEX_POINT('',#879);
#247=VERTEX_POINT('',#881);
#248=VERTEX_POINT('',#922);
#249=VERTEX_POINT('',#942);
#250=VERTEX_POINT('',#964);
#251=VERTEX_POINT('',#966);
#252=VERTEX_POINT('',#1007);
#253=VERTEX_POINT('',#1027);
#254=VERTEX_POINT('',#1049);
#255=VERTEX_POINT('',#1051);
#256=VERTEX_POINT('',#1092);
#257=VERTEX_POINT('',#1112);
#258=VERTEX_POINT('',#1137);
#259=VERTEX_POINT('',#1139);
#260=VERTEX_POINT('',#1143);
#261=VERTEX_POINT('',#1145);
#262=VERTEX_POINT('',#1149);
#263=VERTEX_POINT('',#1151);
#264=VERTEX_POINT('',#1155);
#265=VERTEX_POINT('',#1157);
#266=VERTEX_POINT('',#1161);
#267=VERTEX_POINT('',#1162);
#268=VERTEX_POINT('',#1164);
#269=VERTEX_POINT('',#1166);
#270=VERTEX_POINT('',#1170);
#271=VERTEX_POINT('',#1172);
#272=VERTEX_POINT('',#1176);
#273=VERTEX_POINT('',#1178);
#274=VERTEX_POINT('',#1182);
#275=VERTEX_POINT('',#1184);
#276=VERTEX_POINT('',#1188);
#277=VERTEX_POINT('',#1190);
#278=VERTEX_POINT('',#1194);
#279=VERTEX_POINT('',#1196);
#280=VERTEX_POINT('',#1200);
#281=VERTEX_POINT('',#1202);
#282=EDGE_CURVE('',#230,#230,#196,.T.);
#283=EDGE_CURVE('',#230,#231,#128,.T.);
#284=EDGE_CURVE('',#231,#231,#197,.T.);
#285=EDGE_CURVE('',#232,#232,#198,.T.);
#286=EDGE_CURVE('',#232,#233,#129,.T.);
#287=EDGE_CURVE('',#233,#233,#199,.T.);
#288=EDGE_CURVE('',#234,#234,#200,.T.);
#289=EDGE_CURVE('',#234,#235,#130,.T.);
#290=EDGE_CURVE('',#235,#235,#201,.T.);
#291=EDGE_CURVE('',#236,#236,#202,.T.);
#292=EDGE_CURVE('',#236,#237,#131,.T.);
#293=EDGE_CURVE('',#237,#237,#203,.T.);
#294=EDGE_CURVE('',#238,#239,#39,.T.);
#295=EDGE_CURVE('',#239,#240,#132,.T.);
#296=EDGE_CURVE('',#241,#240,#40,.T.);
#297=EDGE_CURVE('',#238,#241,#133,.T.);
#298=EDGE_CURVE('',#242,#238,#204,.T.);
#299=EDGE_CURVE('',#243,#241,#205,.T.);
#300=EDGE_CURVE('',#242,#243,#134,.T.);
#301=EDGE_CURVE('',#244,#242,#41,.T.);
#302=EDGE_CURVE('',#245,#243,#42,.T.);
#303=EDGE_CURVE('',#244,#245,#135,.T.);
#304=EDGE_CURVE('',#246,#244,#206,.T.);
#305=EDGE_CURVE('',#247,#245,#207,.T.);
#306=EDGE_CURVE('',#246,#247,#136,.T.);
#307=EDGE_CURVE('',#248,#246,#43,.T.);
#308=EDGE_CURVE('',#249,#247,#44,.T.);
#309=EDGE_CURVE('',#248,#249,#137,.T.);
#310=EDGE_CURVE('',#250,#248,#208,.T.);
#311=EDGE_CURVE('',#251,#249,#209,.T.);
#312=EDGE_CURVE('',#250,#251,#138,.T.);
#313=EDGE_CURVE('',#252,#250,#45,.T.);
#314=EDGE_CURVE('',#253,#251,#46,.T.);
#315=EDGE_CURVE('',#252,#253,#139,.T.);
#316=EDGE_CURVE('',#254,#252,#210,.T.);
#317=EDGE_CURVE('',#255,#253,#211,.T.);
#318=EDGE_CURVE('',#254,#255,#140,.T.);
#319=EDGE_CURVE('',#256,#254,#47,.T.);
#320=EDGE_CURVE('',#257,#255,#48,.T.);
#321=EDGE_CURVE('',#256,#257,#141,.T.);
#322=EDGE_CURVE('',#239,#256,#212,.T.);
#323=EDGE_CURVE('',#240,#257,#213,.T.);
#324=EDGE_CURVE('',#258,#258,#214,.T.);
#325=EDGE_CURVE('',#258,#259,#142,.T.);
#326=EDGE_CURVE('',#259,#259,#215,.T.);
#327=EDGE_CURVE('',#260,#260,#216,.T.);
#328=EDGE_CURVE('',#260,#261,#143,.T.);
#329=EDGE_CURVE('',#261,#261,#217,.T.);
#330=EDGE_CURVE('',#262,#262,#218,.T.);
#331=EDGE_CURVE('',#262,#263,#144,.T.);
#332=EDGE_CURVE('',#263,#263,#219,.T.);
#333=EDGE_CURVE('',#264,#264,#220,.T.);
#334=EDGE_CURVE('',#264,#265,#145,.T.);
#335=EDGE_CURVE('',#265,#265,#221,.T.);
#336=EDGE_CURVE('',#266,#267,#146,.T.);
#337=EDGE_CURVE('',#267,#268,#147,.T.);
#338=EDGE_CURVE('',#269,#268,#148,.T.);
#339=EDGE_CURVE('',#266,#269,#149,.T.);
#340=EDGE_CURVE('',#270,#266,#222,.T.);
#341=EDGE_CURVE('',#271,#269,#223,.T.);
#342=EDGE_CURVE('',#270,#271,#150,.T.);
#343=EDGE_CURVE('',#272,#270,#151,.T.);
#344=EDGE_CURVE('',#273,#271,#152,.T.);
#345=EDGE_CURVE('',#272,#273,#153,.T.);
#346=EDGE_CURVE('',#274,#272,#224,.T.);
#347=EDGE_CURVE('',#275,#273,#225,.T.);
#348=EDGE_CURVE('',#274,#275,#154,.T.);
#349=EDGE_CURVE('',#276,#274,#155,.T.);
#350=EDGE_CURVE('',#277,#275,#156,.T.);
#351=EDGE_CURVE('',#276,#277,#157,.T.);
#352=EDGE_CURVE('',#278,#276,#226,.T.);
#353=EDGE_CURVE('',#279,#277,#227,.T.);
#354=EDGE_CURVE('',#278,#279,#158,.T.);
#355=EDGE_CURVE('',#280,#278,#159,.T.);
#356=EDGE_CURVE('',#281,#279,#160,.T.);
#357=EDGE_CURVE('',#280,#281,#161,.T.);
#358=EDGE_CURVE('',#267,#280,#228,.T.);
#359=EDGE_CURVE('',#268,#281,#229,.T.);
#360=ORIENTED_EDGE('',*,*,#282,.F.);
#361=ORIENTED_EDGE('',*,*,#283,.T.);
#362=ORIENTED_EDGE('',*,*,#284,.T.);
#363=ORIENTED_EDGE('',*,*,#283,.F.);
#364=ORIENTED_EDGE('',*,*,#285,.F.);
#365=ORIENTED_EDGE('',*,*,#286,.T.);
#366=ORIENTED_EDGE('',*,*,#287,.T.);
#367=ORIENTED_EDGE('',*,*,#286,.F.);
#368=ORIENTED_EDGE('',*,*,#288,.F.);
#369=ORIENTED_EDGE('',*,*,#289,.T.);
#370=ORIENTED_EDGE('',*,*,#290,.T.);
#371=ORIENTED_EDGE('',*,*,#289,.F.);
#372=ORIENTED_EDGE('',*,*,#291,.F.);
#373=ORIENTED_EDGE('',*,*,#292,.T.);
#374=ORIENTED_EDGE('',*,*,#293,.T.);
#375=ORIENTED_EDGE('',*,*,#292,.F.);
#376=ORIENTED_EDGE('',*,*,#294,.T.);
#377=ORIENTED_EDGE('',*,*,#295,.T.);
#378=ORIENTED_EDGE('',*,*,#296,.F.);
#379=ORIENTED_EDGE('',*,*,#297,.F.);
#380=ORIENTED_EDGE('',*,*,#298,.T.);
#381=ORIENTED_EDGE('',*,*,#297,.T.);
#382=ORIENTED_EDGE('',*,*,#299,.F.);
#383=ORIENTED_EDGE('',*,*,#300,.F.);
#384=ORIENTED_EDGE('',*,*,#301,.T.);
#385=ORIENTED_EDGE('',*,*,#300,.T.);
#386=ORIENTED_EDGE('',*,*,#302,.F.);
#387=ORIENTED_EDGE('',*,*,#303,.F.);
#388=ORIENTED_EDGE('',*,*,#304,.T.);
#389=ORIENTED_EDGE('',*,*,#303,.T.);
#390=ORIENTED_EDGE('',*,*,#305,.F.);
#391=ORIENTED_EDGE('',*,*,#306,.F.);
#392=ORIENTED_EDGE('',*,*,#307,.T.);
#393=ORIENTED_EDGE('',*,*,#306,.T.);
#394=ORIENTED_EDGE('',*,*,#308,.F.);
#395=ORIENTED_EDGE('',*,*,#309,.F.);
#396=ORIENTED_EDGE('',*,*,#310,.T.);
#397=ORIENTED_EDGE('',*,*,#309,.T.);
#398=ORIENTED_EDGE('',*,*,#311,.F.);
#399=ORIENTED_EDGE('',*,*,#312,.F.);
#400=ORIENTED_EDGE('',*,*,#313,.T.);
#401=ORIENTED_EDGE('',*,*,#312,.T.);
#402=ORIENTED_EDGE('',*,*,#314,.F.);
#403=ORIENTED_EDGE('',*,*,#315,.F.);
#404=ORIENTED_EDGE('',*,*,#316,.T.);
#405=ORIENTED_EDGE('',*,*,#315,.T.);
#406=ORIENTED_EDGE('',*,*,#317,.F.);
#407=ORIENTED_EDGE('',*,*,#318,.F.);
#408=ORIENTED_EDGE('',*,*,#319,.T.);
#409=ORIENTED_EDGE('',*,*,#318,.T.);
#410=ORIENTED_EDGE('',*,*,#320,.F.);
#411=ORIENTED_EDGE('',*,*,#321,.F.);
#412=ORIENTED_EDGE('',*,*,#322,.T.);
#413=ORIENTED_EDGE('',*,*,#321,.T.);
#414=ORIENTED_EDGE('',*,*,#323,.F.);
#415=ORIENTED_EDGE('',*,*,#295,.F.);
#416=ORIENTED_EDGE('',*,*,#324,.F.);
#417=ORIENTED_EDGE('',*,*,#325,.T.);
#418=ORIENTED_EDGE('',*,*,#326,.T.);
#419=ORIENTED_EDGE('',*,*,#325,.F.);
#420=ORIENTED_EDGE('',*,*,#327,.F.);
#421=ORIENTED_EDGE('',*,*,#328,.T.);
#422=ORIENTED_EDGE('',*,*,#329,.T.);
#423=ORIENTED_EDGE('',*,*,#328,.F.);
#424=ORIENTED_EDGE('',*,*,#330,.F.);
#425=ORIENTED_EDGE('',*,*,#331,.T.);
#426=ORIENTED_EDGE('',*,*,#332,.T.);
#427=ORIENTED_EDGE('',*,*,#331,.F.);
#428=ORIENTED_EDGE('',*,*,#333,.F.);
#429=ORIENTED_EDGE('',*,*,#334,.T.);
#430=ORIENTED_EDGE('',*,*,#335,.T.);
#431=ORIENTED_EDGE('',*,*,#334,.F.);
#432=ORIENTED_EDGE('',*,*,#336,.T.);
#433=ORIENTED_EDGE('',*,*,#337,.T.);
#434=ORIENTED_EDGE('',*,*,#338,.F.);
#435=ORIENTED_EDGE('',*,*,#339,.F.);
#436=ORIENTED_EDGE('',*,*,#340,.T.);
#437=ORIENTED_EDGE('',*,*,#339,.T.);
#438=ORIENTED_EDGE('',*,*,#341,.F.);
#439=ORIENTED_EDGE('',*,*,#342,.F.);
#440=ORIENTED_EDGE('',*,*,#343,.T.);
#441=ORIENTED_EDGE('',*,*,#342,.T.);
#442=ORIENTED_EDGE('',*,*,#344,.F.);
#443=ORIENTED_EDGE('',*,*,#345,.F.);
#444=ORIENTED_EDGE('',*,*,#346,.T.);
#445=ORIENTED_EDGE('',*,*,#345,.T.);
#446=ORIENTED_EDGE('',*,*,#347,.F.);
#447=ORIENTED_EDGE('',*,*,#348,.F.);
#448=ORIENTED_EDGE('',*,*,#349,.T.);
#449=ORIENTED_EDGE('',*,*,#348,.T.);
#450=ORIENTED_EDGE('',*,*,#350,.F.);
#451=ORIENTED_EDGE('',*,*,#351,.F.);
#452=ORIENTED_EDGE('',*,*,#352,.T.);
#453=ORIENTED_EDGE('',*,*,#351,.T.);
#454=ORIENTED_EDGE('',*,*,#353,.F.);
#455=ORIENTED_EDGE('',*,*,#354,.F.);
#456=ORIENTED_EDGE('',*,*,#355,.T.);
#457=ORIENTED_EDGE('',*,*,#354,.T.);
#458=ORIENTED_EDGE('',*,*,#356,.F.);
#459=ORIENTED_EDGE('',*,*,#357,.F.);
#460=ORIENTED_EDGE('',*,*,#358,.T.);
#461=ORIENTED_EDGE('',*,*,#357,.T.);
#462=ORIENTED_EDGE('',*,*,#359,.F.);
#463=ORIENTED_EDGE('',*,*,#337,.F.);
#464=ORIENTED_EDGE('',*,*,#359,.T.);
#465=ORIENTED_EDGE('',*,*,#356,.T.);
#466=ORIENTED_EDGE('',*,*,#353,.T.);
#467=ORIENTED_EDGE('',*,*,#350,.T.);
#468=ORIENTED_EDGE('',*,*,#347,.T.);
#469=ORIENTED_EDGE('',*,*,#344,.T.);
#470=ORIENTED_EDGE('',*,*,#341,.T.);
#471=ORIENTED_EDGE('',*,*,#338,.T.);
#472=ORIENTED_EDGE('',*,*,#333,.T.);
#473=ORIENTED_EDGE('',*,*,#330,.T.);
#474=ORIENTED_EDGE('',*,*,#327,.T.);
#475=ORIENTED_EDGE('',*,*,#324,.T.);
#476=ORIENTED_EDGE('',*,*,#323,.T.);
#477=ORIENTED_EDGE('',*,*,#320,.T.);
#478=ORIENTED_EDGE('',*,*,#317,.T.);
#479=ORIENTED_EDGE('',*,*,#314,.T.);
#480=ORIENTED_EDGE('',*,*,#311,.T.);
#481=ORIENTED_EDGE('',*,*,#308,.T.);
#482=ORIENTED_EDGE('',*,*,#305,.T.);
#483=ORIENTED_EDGE('',*,*,#302,.T.);
#484=ORIENTED_EDGE('',*,*,#299,.T.);
#485=ORIENTED_EDGE('',*,*,#296,.T.);
#486=ORIENTED_EDGE('',*,*,#291,.T.);
#487=ORIENTED_EDGE('',*,*,#288,.T.);
#488=ORIENTED_EDGE('',*,*,#285,.T.);
#489=ORIENTED_EDGE('',*,*,#282,.T.);
#490=ORIENTED_EDGE('',*,*,#358,.F.);
#491=ORIENTED_EDGE('',*,*,#336,.F.);
#492=ORIENTED_EDGE('',*,*,#340,.F.);
#493=ORIENTED_EDGE('',*,*,#343,.F.);
#494=ORIENTED_EDGE('',*,*,#346,.F.);
#495=ORIENTED_EDGE('',*,*,#349,.F.);
#496=ORIENTED_EDGE('',*,*,#352,.F.);
#497=ORIENTED_EDGE('',*,*,#355,.F.);
#498=ORIENTED_EDGE('',*,*,#335,.F.);
#499=ORIENTED_EDGE('',*,*,#332,.F.);
#500=ORIENTED_EDGE('',*,*,#329,.F.);
#501=ORIENTED_EDGE('',*,*,#326,.F.);
#502=ORIENTED_EDGE('',*,*,#322,.F.);
#503=ORIENTED_EDGE('',*,*,#294,.F.);
#504=ORIENTED_EDGE('',*,*,#298,.F.);
#505=ORIENTED_EDGE('',*,*,#301,.F.);
#506=ORIENTED_EDGE('',*,*,#304,.F.);
#507=ORIENTED_EDGE('',*,*,#307,.F.);
#508=ORIENTED_EDGE('',*,*,#310,.F.);
#509=ORIENTED_EDGE('',*,*,#313,.F.);
#510=ORIENTED_EDGE('',*,*,#316,.F.);
#511=ORIENTED_EDGE('',*,*,#319,.F.);
#512=ORIENTED_EDGE('',*,*,#293,.F.);
#513=ORIENTED_EDGE('',*,*,#290,.F.);
#514=ORIENTED_EDGE('',*,*,#287,.F.);
#515=ORIENTED_EDGE('',*,*,#284,.F.);
#516=CYLINDRICAL_SURFACE('',#575,4.15);
#517=CYLINDRICAL_SURFACE('',#578,4.15);
#518=CYLINDRICAL_SURFACE('',#581,4.14999999999999);
#519=CYLINDRICAL_SURFACE('',#584,2.5);
#520=CYLINDRICAL_SURFACE('',#587,2.65000000613895);
#521=CYLINDRICAL_SURFACE('',#590,2.65000212951298);
#522=CYLINDRICAL_SURFACE('',#593,1.09999999999983);
#523=CYLINDRICAL_SURFACE('',#596,1.10000311045275);
#524=CYLINDRICAL_SURFACE('',#599,2.64999999999983);
#525=CYLINDRICAL_SURFACE('',#602,2.5);
#526=CYLINDRICAL_SURFACE('',#605,2.5);
#527=CYLINDRICAL_SURFACE('',#608,4.14999999999999);
#528=CYLINDRICAL_SURFACE('',#611,2.5);
#529=CYLINDRICAL_SURFACE('',#615,3.6);
#530=CYLINDRICAL_SURFACE('',#619,3.60000000000005);
#531=CYLINDRICAL_SURFACE('',#623,3.60000000000003);
#532=CYLINDRICAL_SURFACE('',#627,3.59999999999975);
#533=ADVANCED_FACE('',(#54),#516,.F.);
#534=ADVANCED_FACE('',(#55),#517,.F.);
#535=ADVANCED_FACE('',(#56),#518,.F.);
#536=ADVANCED_FACE('',(#57),#519,.F.);
#537=ADVANCED_FACE('',(#58),#49,.T.);
#538=ADVANCED_FACE('',(#59),#520,.F.);
#539=ADVANCED_FACE('',(#60),#50,.T.);
#540=ADVANCED_FACE('',(#61),#521,.F.);
#541=ADVANCED_FACE('',(#62),#51,.T.);
#542=ADVANCED_FACE('',(#63),#522,.T.);
#543=ADVANCED_FACE('',(#64),#52,.T.);
#544=ADVANCED_FACE('',(#65),#523,.T.);
#545=ADVANCED_FACE('',(#66),#53,.T.);
#546=ADVANCED_FACE('',(#67),#524,.F.);
#547=ADVANCED_FACE('',(#68),#525,.F.);
#548=ADVANCED_FACE('',(#69),#526,.F.);
#549=ADVANCED_FACE('',(#70),#527,.F.);
#550=ADVANCED_FACE('',(#71),#528,.F.);
#551=ADVANCED_FACE('',(#72),#33,.T.);
#552=ADVANCED_FACE('',(#73),#529,.T.);
#553=ADVANCED_FACE('',(#74),#34,.T.);
#554=ADVANCED_FACE('',(#75),#530,.T.);
#555=ADVANCED_FACE('',(#76),#35,.T.);
#556=ADVANCED_FACE('',(#77),#531,.T.);
#557=ADVANCED_FACE('',(#78),#36,.T.);
#558=ADVANCED_FACE('',(#79),#532,.T.);
#559=ADVANCED_FACE('',(#80,#15,#16,#17,#18,#19,#20,#21,#22,#23),#37,.T.);
#560=ADVANCED_FACE('',(#81,#24,#25,#26,#27,#28,#29,#30,#31,#32),#38,.F.);
#561=CLOSED_SHELL('',(#533,#534,#535,#536,#537,#538,#539,#540,#541,#542,
#543,#544,#545,#546,#547,#548,#549,#550,#551,#552,#553,#554,#555,#556,#557,
#558,#559,#560));
#562=DERIVED_UNIT_ELEMENT(#564,1.);
#563=DERIVED_UNIT_ELEMENT(#1215,-3.);
#564=(
MASS_UNIT()
NAMED_UNIT(*)
SI_UNIT(.KILO.,.GRAM.)
);
#565=DERIVED_UNIT((#562,#563));
#566=MEASURE_REPRESENTATION_ITEM('density measure',
POSITIVE_RATIO_MEASURE(7850.),#565);
#567=PROPERTY_DEFINITION_REPRESENTATION(#572,#569);
#568=PROPERTY_DEFINITION_REPRESENTATION(#573,#570);
#569=REPRESENTATION('material name',(#571),#1212);
#570=REPRESENTATION('density',(#566),#1212);
#571=DESCRIPTIVE_REPRESENTATION_ITEM('Steel','Steel');
#572=PROPERTY_DEFINITION('material property','material name',#1222);
#573=PROPERTY_DEFINITION('material property','density of part',#1222);
#574=AXIS2_PLACEMENT_3D('',#782,#632,#633);
#575=AXIS2_PLACEMENT_3D('',#783,#634,#635);
#576=AXIS2_PLACEMENT_3D('',#785,#636,#637);
#577=AXIS2_PLACEMENT_3D('',#788,#639,#640);
#578=AXIS2_PLACEMENT_3D('',#789,#641,#642);
#579=AXIS2_PLACEMENT_3D('',#791,#643,#644);
#580=AXIS2_PLACEMENT_3D('',#794,#646,#647);
#581=AXIS2_PLACEMENT_3D('',#795,#648,#649);
#582=AXIS2_PLACEMENT_3D('',#797,#650,#651);
#583=AXIS2_PLACEMENT_3D('',#800,#653,#654);
#584=AXIS2_PLACEMENT_3D('',#801,#655,#656);
#585=AXIS2_PLACEMENT_3D('',#803,#657,#658);
#586=AXIS2_PLACEMENT_3D('',#806,#660,#661);
#587=AXIS2_PLACEMENT_3D('',#841,#664,#665);
#588=AXIS2_PLACEMENT_3D('',#843,#666,#667);
#589=AXIS2_PLACEMENT_3D('',#845,#668,#669);
#590=AXIS2_PLACEMENT_3D('',#878,#672,#673);
#591=AXIS2_PLACEMENT_3D('',#880,#674,#675);
#592=AXIS2_PLACEMENT_3D('',#882,#676,#677);
#593=AXIS2_PLACEMENT_3D('',#963,#680,#681);
#594=AXIS2_PLACEMENT_3D('',#965,#682,#683);
#595=AXIS2_PLACEMENT_3D('',#967,#684,#685);
#596=AXIS2_PLACEMENT_3D('',#1048,#688,#689);
#597=AXIS2_PLACEMENT_3D('',#1050,#690,#691);
#598=AXIS2_PLACEMENT_3D('',#1052,#692,#693);
#599=AXIS2_PLACEMENT_3D('',#1133,#696,#697);
#600=AXIS2_PLACEMENT_3D('',#1134,#698,#699);
#601=AXIS2_PLACEMENT_3D('',#1135,#700,#701);
#602=AXIS2_PLACEMENT_3D('',#1136,#702,#703);
#603=AXIS2_PLACEMENT_3D('',#1138,#704,#705);
#604=AXIS2_PLACEMENT_3D('',#1141,#707,#708);
#605=AXIS2_PLACEMENT_3D('',#1142,#709,#710);
#606=AXIS2_PLACEMENT_3D('',#1144,#711,#712);
#607=AXIS2_PLACEMENT_3D('',#1147,#714,#715);
#608=AXIS2_PLACEMENT_3D('',#1148,#716,#717);
#609=AXIS2_PLACEMENT_3D('',#1150,#718,#719);
#610=AXIS2_PLACEMENT_3D('',#1153,#721,#722);
#611=AXIS2_PLACEMENT_3D('',#1154,#723,#724);
#612=AXIS2_PLACEMENT_3D('',#1156,#725,#726);
#613=AXIS2_PLACEMENT_3D('',#1159,#728,#729);
#614=AXIS2_PLACEMENT_3D('',#1160,#730,#731);
#615=AXIS2_PLACEMENT_3D('',#1169,#736,#737);
#616=AXIS2_PLACEMENT_3D('',#1171,#738,#739);
#617=AXIS2_PLACEMENT_3D('',#1173,#740,#741);
#618=AXIS2_PLACEMENT_3D('',#1175,#743,#744);
#619=AXIS2_PLACEMENT_3D('',#1181,#748,#749);
#620=AXIS2_PLACEMENT_3D('',#1183,#750,#751);
#621=AXIS2_PLACEMENT_3D('',#1185,#752,#753);
#622=AXIS2_PLACEMENT_3D('',#1187,#755,#756);
#623=AXIS2_PLACEMENT_3D('',#1193,#760,#761);
#624=AXIS2_PLACEMENT_3D('',#1195,#762,#763);
#625=AXIS2_PLACEMENT_3D('',#1197,#764,#765);
#626=AXIS2_PLACEMENT_3D('',#1199,#767,#768);
#627=AXIS2_PLACEMENT_3D('',#1205,#772,#773);
#628=AXIS2_PLACEMENT_3D('',#1206,#774,#775);
#629=AXIS2_PLACEMENT_3D('',#1207,#776,#777);
#630=AXIS2_PLACEMENT_3D('',#1208,#778,#779);
#631=AXIS2_PLACEMENT_3D('',#1209,#780,#781);
#632=DIRECTION('axis',(0.,0.,1.));
#633=DIRECTION('refdir',(1.,0.,0.));
#634=DIRECTION('center_axis',(0.,0.,1.));
#635=DIRECTION('ref_axis',(1.,0.,0.));
#636=DIRECTION('center_axis',(0.,0.,-1.));
#637=DIRECTION('ref_axis',(1.,0.,0.));
#638=DIRECTION('',(0.,0.,-1.));
#639=DIRECTION('center_axis',(0.,0.,-1.));
#640=DIRECTION('ref_axis',(1.,0.,0.));
#641=DIRECTION('center_axis',(0.,0.,1.));
#642=DIRECTION('ref_axis',(1.,0.,0.));
#643=DIRECTION('center_axis',(0.,0.,-1.));
#644=DIRECTION('ref_axis',(1.,0.,0.));
#645=DIRECTION('',(0.,0.,-1.));
#646=DIRECTION('center_axis',(0.,0.,-1.));
#647=DIRECTION('ref_axis',(1.,0.,0.));
#648=DIRECTION('center_axis',(0.,0.,1.));
#649=DIRECTION('ref_axis',(1.,0.,0.));
#650=DIRECTION('center_axis',(0.,0.,-1.));
#651=DIRECTION('ref_axis',(1.,0.,0.));
#652=DIRECTION('',(0.,0.,-1.));
#653=DIRECTION('center_axis',(0.,0.,-1.));
#654=DIRECTION('ref_axis',(1.,0.,0.));
#655=DIRECTION('center_axis',(0.,0.,1.));
#656=DIRECTION('ref_axis',(1.,0.,0.));
#657=DIRECTION('center_axis',(0.,0.,-1.));
#658=DIRECTION('ref_axis',(1.,0.,0.));
#659=DIRECTION('',(0.,0.,-1.));
#660=DIRECTION('center_axis',(0.,0.,-1.));
#661=DIRECTION('ref_axis',(1.,0.,0.));
#662=DIRECTION('',(0.,0.,1.));
#663=DIRECTION('',(0.,0.,1.));
#664=DIRECTION('center_axis',(0.,0.,1.));
#665=DIRECTION('ref_axis',(-0.907511721062054,-0.420026756451287,0.));
#666=DIRECTION('center_axis',(0.,0.,-1.));
#667=DIRECTION('ref_axis',(-0.907511721062054,-0.420026756451287,0.));
#668=DIRECTION('center_axis',(0.,0.,-1.));
#669=DIRECTION('ref_axis',(-0.907511721062054,-0.420026756451287,0.));
#670=DIRECTION('',(0.,0.,1.));
#671=DIRECTION('',(0.,0.,1.));
#672=DIRECTION('center_axis',(0.,0.,1.));
#673=DIRECTION('ref_axis',(0.888392843187676,0.459084040424972,0.));
#674=DIRECTION('center_axis',(0.,0.,-1.));
#675=DIRECTION('ref_axis',(0.42002020384599,-0.907514753798071,0.));
#676=DIRECTION('center_axis',(0.,0.,-1.));
#677=DIRECTION('ref_axis',(0.42002020384599,-0.907514753798071,0.));
#678=DIRECTION('',(0.,0.,1.));
#679=DIRECTION('',(0.,0.,1.));
#680=DIRECTION('center_axis',(0.,0.,1.));
#681=DIRECTION('ref_axis',(-0.44970199110955,-0.893178660287015,0.));
#682=DIRECTION('center_axis',(0.,0.,1.));
#683=DIRECTION('ref_axis',(-0.44970199110955,-0.893178660287015,0.));
#684=DIRECTION('center_axis',(0.,0.,1.));
#685=DIRECTION('ref_axis',(-0.44970199110955,-0.893178660287015,0.));
#686=DIRECTION('',(0.,0.,1.));
#687=DIRECTION('',(0.,0.,1.));
#688=DIRECTION('center_axis',(0.,0.,1.));
#689=DIRECTION('ref_axis',(-0.625029531684521,-0.780601104612482,0.));
#690=DIRECTION('center_axis',(0.,0.,1.));
#691=DIRECTION('ref_axis',(-0.625029531684521,-0.780601104612482,0.));
#692=DIRECTION('center_axis',(0.,0.,1.));
#693=DIRECTION('ref_axis',(-0.625029531684521,-0.780601104612482,0.));
#694=DIRECTION('',(0.,0.,1.));
#695=DIRECTION('',(0.,0.,1.));
#696=DIRECTION('center_axis',(0.,0.,1.));
#697=DIRECTION('ref_axis',(-0.888392767843433,0.459084186226758,0.));
#698=DIRECTION('center_axis',(0.,0.,-1.));
#699=DIRECTION('ref_axis',(0.497273464011371,0.867593857741128,0.));
#700=DIRECTION('center_axis',(0.,0.,-1.));
#701=DIRECTION('ref_axis',(0.497273464011371,0.867593857741128,0.));
#702=DIRECTION('center_axis',(0.,0.,1.));
#703=DIRECTION('ref_axis',(1.,0.,0.));
#704=DIRECTION('center_axis',(0.,0.,-1.));
#705=DIRECTION('ref_axis',(1.,0.,0.));
#706=DIRECTION('',(0.,0.,-1.));
#707=DIRECTION('center_axis',(0.,0.,-1.));
#708=DIRECTION('ref_axis',(1.,0.,0.));
#709=DIRECTION('center_axis',(0.,0.,1.));
#710=DIRECTION('ref_axis',(1.,0.,0.));
#711=DIRECTION('center_axis',(0.,0.,-1.));
#712=DIRECTION('ref_axis',(1.,0.,0.));
#713=DIRECTION('',(0.,0.,-1.));
#714=DIRECTION('center_axis',(0.,0.,-1.));
#715=DIRECTION('ref_axis',(1.,0.,0.));
#716=DIRECTION('center_axis',(0.,0.,1.));
#717=DIRECTION('ref_axis',(1.,0.,0.));
#718=DIRECTION('center_axis',(0.,0.,-1.));
#719=DIRECTION('ref_axis',(1.,0.,0.));
#720=DIRECTION('',(0.,0.,-1.));
#721=DIRECTION('center_axis',(0.,0.,-1.));
#722=DIRECTION('ref_axis',(1.,0.,0.));
#723=DIRECTION('center_axis',(0.,0.,1.));
#724=DIRECTION('ref_axis',(1.,0.,0.));
#725=DIRECTION('center_axis',(0.,0.,-1.));
#726=DIRECTION('ref_axis',(1.,0.,0.));
#727=DIRECTION('',(0.,0.,-1.));
#728=DIRECTION('center_axis',(0.,0.,-1.));
#729=DIRECTION('ref_axis',(1.,0.,0.));
#730=DIRECTION('center_axis',(-2.80815218514041E-17,-1.,0.));
#731=DIRECTION('ref_axis',(1.,-2.80815218514041E-17,0.));
#732=DIRECTION('',(1.,-2.80815218514041E-17,0.));
#733=DIRECTION('',(0.,0.,1.));
#734=DIRECTION('',(1.,-2.80815218514041E-17,0.));
#735=DIRECTION('',(0.,0.,1.));
#736=DIRECTION('center_axis',(0.,0.,1.));
#737=DIRECTION('ref_axis',(-1.,0.,0.));
#738=DIRECTION('center_axis',(0.,0.,1.));
#739=DIRECTION('ref_axis',(-1.,0.,0.));
#740=DIRECTION('center_axis',(0.,0.,1.));
#741=DIRECTION('ref_axis',(-1.,0.,0.));
#742=DIRECTION('',(0.,0.,1.));
#743=DIRECTION('center_axis',(-1.,-1.90933168505571E-16,0.));
#744=DIRECTION('ref_axis',(1.90933168505571E-16,-1.,0.));
#745=DIRECTION('',(1.90933168505571E-16,-1.,0.));
#746=DIRECTION('',(1.90933168505571E-16,-1.,0.));
#747=DIRECTION('',(0.,0.,1.));
#748=DIRECTION('center_axis',(0.,0.,1.));
#749=DIRECTION('ref_axis',(-1.23358113847238E-14,1.,0.));
#750=DIRECTION('center_axis',(0.,0.,1.));
#751=DIRECTION('ref_axis',(-1.23358113847238E-14,1.,0.));
#752=DIRECTION('center_axis',(0.,0.,1.));
#753=DIRECTION('ref_axis',(-1.23358113847238E-14,1.,0.));
#754=DIRECTION('',(0.,0.,1.));
#755=DIRECTION('center_axis',(0.,1.,0.));
#756=DIRECTION('ref_axis',(-1.,0.,0.));
#757=DIRECTION('',(-1.,0.,0.));
#758=DIRECTION('',(-1.,0.,0.));
#759=DIRECTION('',(0.,0.,1.));
#760=DIRECTION('center_axis',(0.,0.,1.));
#761=DIRECTION('ref_axis',(1.,0.,0.));
#762=DIRECTION('center_axis',(0.,0.,1.));
#763=DIRECTION('ref_axis',(1.,0.,0.));
#764=DIRECTION('center_axis',(0.,0.,1.));
#765=DIRECTION('ref_axis',(1.,0.,0.));
#766=DIRECTION('',(0.,0.,1.));
#767=DIRECTION('center_axis',(1.,0.,0.));
#768=DIRECTION('ref_axis',(0.,1.,0.));
#769=DIRECTION('',(0.,1.,0.));
#770=DIRECTION('',(0.,1.,0.));
#771=DIRECTION('',(0.,0.,1.));
#772=DIRECTION('center_axis',(0.,0.,1.));
#773=DIRECTION('ref_axis',(-5.92118946466791E-14,-1.,0.));
#774=DIRECTION('center_axis',(0.,0.,1.));
#775=DIRECTION('ref_axis',(-5.92118946466791E-14,-1.,0.));
#776=DIRECTION('center_axis',(0.,0.,1.));
#777=DIRECTION('ref_axis',(-5.92118946466791E-14,-1.,0.));
#778=DIRECTION('center_axis',(0.,0.,1.));
#779=DIRECTION('ref_axis',(1.,0.,0.));
#780=DIRECTION('center_axis',(0.,0.,1.));
#781=DIRECTION('ref_axis',(1.,0.,0.));
#782=CARTESIAN_POINT('',(0.,0.,0.));
#783=CARTESIAN_POINT('Origin',(9.05,93.2781838130281,4.66293670342566E-14));
#784=CARTESIAN_POINT('',(4.9,93.2781838130281,1.60000000000005));
#785=CARTESIAN_POINT('Origin',(9.05,93.2781838130281,1.60000000000005));
#786=CARTESIAN_POINT('',(4.9,93.2781838130281,4.66293670342566E-14));
#787=CARTESIAN_POINT('',(4.9,93.2781838130281,4.66293670342566E-14));
#788=CARTESIAN_POINT('Origin',(9.05,93.2781838130281,4.66293670342566E-14));
#789=CARTESIAN_POINT('Origin',(9.05000000000001,15.1573750885793,8.88178419700125E-15));
#790=CARTESIAN_POINT('',(4.90000000000001,15.1573750885793,1.60000000000001));
#791=CARTESIAN_POINT('Origin',(9.05000000000001,15.1573750885793,1.60000000000001));
#792=CARTESIAN_POINT('',(4.90000000000001,15.1573750885793,8.88178419700125E-15));
#793=CARTESIAN_POINT('',(4.90000000000001,15.1573750885793,8.88178419700125E-15));
#794=CARTESIAN_POINT('Origin',(9.05000000000001,15.1573750885793,8.88178419700125E-15));
#795=CARTESIAN_POINT('Origin',(276.7,15.1573750885793,8.88178419700125E-15));
#796=CARTESIAN_POINT('',(272.55,15.1573750885793,1.60000000000001));
#797=CARTESIAN_POINT('Origin',(276.7,15.1573750885793,1.60000000000001));
#798=CARTESIAN_POINT('',(272.55,15.1573750885793,8.88178419700125E-15));
#799=CARTESIAN_POINT('',(272.55,15.1573750885793,8.88178419700125E-15));
#800=CARTESIAN_POINT('Origin',(276.7,15.1573750885793,8.88178419700125E-15));
#801=CARTESIAN_POINT('Origin',(268.85,85.4281838130281,4.21884749357559E-14));
#802=CARTESIAN_POINT('',(266.35,85.4281838130281,1.60000000000004));
#803=CARTESIAN_POINT('Origin',(268.85,85.4281838130281,1.60000000000004));
#804=CARTESIAN_POINT('',(266.35,85.4281838130281,4.21884749357559E-14));
#805=CARTESIAN_POINT('',(266.35,85.4281838130281,4.21884749357559E-14));
#806=CARTESIAN_POINT('Origin',(268.85,85.4281838130281,4.21884749357559E-14));
#807=CARTESIAN_POINT('Ctrl Pts',(140.470093933614,28.1047085436293,1.33226762955019E-14));
#808=CARTESIAN_POINT('Ctrl Pts',(140.470093933614,28.1047085436293,1.60000000000001));
#809=CARTESIAN_POINT('Ctrl Pts',(134.082381406347,38.665226168448,1.99840144432528E-14));
#810=CARTESIAN_POINT('Ctrl Pts',(134.082381406347,38.665226168448,1.60000000000002));
#811=CARTESIAN_POINT('Ctrl Pts',(126.783090572067,48.309152720128,2.44249065417534E-14));
#812=CARTESIAN_POINT('Ctrl Pts',(126.783090572067,48.309152720128,1.60000000000002));
#813=CARTESIAN_POINT('Ctrl Pts',(118.20952781844,56.6746650308919,2.66453525910038E-14));
#814=CARTESIAN_POINT('Ctrl Pts',(118.20952781844,56.6746650308919,1.60000000000003));
#815=CARTESIAN_POINT('Ctrl Pts',(110.351547908337,64.3419591960737,3.33066907387547E-14));
#816=CARTESIAN_POINT('Ctrl Pts',(110.351547908337,64.3419591960737,1.60000000000003));
#817=CARTESIAN_POINT('Ctrl Pts',(101.440492338685,70.9586286244164,3.33066907387547E-14));
#818=CARTESIAN_POINT('Ctrl Pts',(101.440492338685,70.9586286244164,1.60000000000003));
#819=CARTESIAN_POINT('Ctrl Pts',(91.7619290513258,76.8128734103904,3.77475828372553E-14));
#820=CARTESIAN_POINT('Ctrl Pts',(91.7619290513258,76.8128734103904,1.60000000000004));
#821=CARTESIAN_POINT('',(140.470093933614,28.1047085436293,1.33226762955019E-14));
#822=CARTESIAN_POINT('',(91.7619290513258,76.8128734103904,3.99680288865056E-14));
#823=CARTESIAN_POINT('Ctrl Pts',(140.470093933614,28.1047085436293,1.33226762955019E-14));
#824=CARTESIAN_POINT('Ctrl Pts',(134.082381406347,38.665226168448,1.99840144432528E-14));
#825=CARTESIAN_POINT('Ctrl Pts',(126.783090572067,48.309152720128,2.44249065417534E-14));
#826=CARTESIAN_POINT('Ctrl Pts',(118.20952781844,56.6746650308919,2.66453525910038E-14));
#827=CARTESIAN_POINT('Ctrl Pts',(110.351547908337,64.3419591960737,3.33066907387547E-14));
#828=CARTESIAN_POINT('Ctrl Pts',(101.440492338685,70.9586286244164,3.33066907387547E-14));
#829=CARTESIAN_POINT('Ctrl Pts',(91.7619290513258,76.8128734103904,3.77475828372553E-14));
#830=CARTESIAN_POINT('',(91.7619290513258,76.8128734103904,1.60000000000004));
#831=CARTESIAN_POINT('',(91.7619290513258,76.8128734103904,3.99680288865056E-14));
#832=CARTESIAN_POINT('',(140.470093933614,28.1047085436293,1.60000000000001));
#833=CARTESIAN_POINT('Ctrl Pts',(140.470093933614,28.1047085436293,1.60000000000001));
#834=CARTESIAN_POINT('Ctrl Pts',(134.082381406347,38.665226168448,1.60000000000002));
#835=CARTESIAN_POINT('Ctrl Pts',(126.783090572067,48.309152720128,1.60000000000002));
#836=CARTESIAN_POINT('Ctrl Pts',(118.20952781844,56.6746650308919,1.60000000000003));
#837=CARTESIAN_POINT('Ctrl Pts',(110.351547908337,64.3419591960737,1.60000000000003));
#838=CARTESIAN_POINT('Ctrl Pts',(101.440492338685,70.9586286244164,1.60000000000003));
#839=CARTESIAN_POINT('Ctrl Pts',(91.7619290513258,76.8128734103904,1.60000000000004));
#840=CARTESIAN_POINT('',(140.470093933614,28.1047085436293,1.33226762955019E-14));
#841=CARTESIAN_POINT('Origin',(142.875,29.2177794508037,1.33226762955019E-14));
#842=CARTESIAN_POINT('',(145.279906069017,28.1047085493153,1.33226762955019E-14));
#843=CARTESIAN_POINT('Origin',(142.875,29.2177794508037,1.33226762955019E-14));
#844=CARTESIAN_POINT('',(145.279906069017,28.1047085493153,1.60000000000001));
#845=CARTESIAN_POINT('Origin',(142.875,29.2177794508037,1.60000000000001));
#846=CARTESIAN_POINT('',(145.279906069017,28.1047085493153,1.33226762955019E-14));
#847=CARTESIAN_POINT('Ctrl Pts',(193.98805443463,76.8128634206744,3.77475828372553E-14));
#848=CARTESIAN_POINT('Ctrl Pts',(193.98805443463,76.8128634206744,1.60000000000004));
#849=CARTESIAN_POINT('Ctrl Pts',(183.427542814389,70.4251529432648,3.33066907387547E-14));
#850=CARTESIAN_POINT('Ctrl Pts',(183.427542814389,70.4251529432648,1.60000000000003));
#851=CARTESIAN_POINT('Ctrl Pts',(173.783621513114,63.1258649026814,3.10862446895044E-14));
#852=CARTESIAN_POINT('Ctrl Pts',(173.783621513114,63.1258649026814,1.60000000000003));
#853=CARTESIAN_POINT('Ctrl Pts',(165.418113288428,54.5523061096179,2.88657986402541E-14));
#854=CARTESIAN_POINT('Ctrl Pts',(165.418113288428,54.5523061096179,1.60000000000003));
#855=CARTESIAN_POINT('Ctrl Pts',(157.750819617233,46.6943264976092,2.22044604925031E-14));
#856=CARTESIAN_POINT('Ctrl Pts',(157.750819617233,46.6943264976092,1.60000000000002));
#857=CARTESIAN_POINT('Ctrl Pts',(151.134150611586,37.7832712911494,1.99840144432528E-14));
#858=CARTESIAN_POINT('Ctrl Pts',(151.134150611586,37.7832712911494,1.60000000000002));
#859=CARTESIAN_POINT('Ctrl Pts',(145.279906069017,28.1047085493153,1.55431223447522E-14));
#860=CARTESIAN_POINT('Ctrl Pts',(145.279906069017,28.1047085493153,1.60000000000002));
#861=CARTESIAN_POINT('',(193.98805443463,76.8128634206744,3.77475828372553E-14));
#862=CARTESIAN_POINT('Ctrl Pts',(193.98805443463,76.8128634206744,3.77475828372553E-14));
#863=CARTESIAN_POINT('Ctrl Pts',(183.427542814389,70.4251529432648,3.33066907387547E-14));
#864=CARTESIAN_POINT('Ctrl Pts',(173.783621513114,63.1258649026814,3.10862446895044E-14));
#865=CARTESIAN_POINT('Ctrl Pts',(165.418113288428,54.5523061096179,2.88657986402541E-14));
#866=CARTESIAN_POINT('Ctrl Pts',(157.750819617233,46.6943264976092,2.22044604925031E-14));
#867=CARTESIAN_POINT('Ctrl Pts',(151.134150611586,37.7832712911494,1.99840144432528E-14));
#868=CARTESIAN_POINT('Ctrl Pts',(145.279906069017,28.1047085493153,1.55431223447522E-14));
#869=CARTESIAN_POINT('',(193.98805443463,76.8128634206744,1.60000000000004));
#870=CARTESIAN_POINT('Ctrl Pts',(193.98805443463,76.8128634206744,1.60000000000004));
#871=CARTESIAN_POINT('Ctrl Pts',(183.427542814389,70.4251529432648,1.60000000000003));
#872=CARTESIAN_POINT('Ctrl Pts',(173.783621513114,63.1258649026814,1.60000000000003));
#873=CARTESIAN_POINT('Ctrl Pts',(165.418113288428,54.5523061096179,1.60000000000003));
#874=CARTESIAN_POINT('Ctrl Pts',(157.750819617233,46.6943264976092,1.60000000000002));
#875=CARTESIAN_POINT('Ctrl Pts',(151.134150611586,37.7832712911494,1.60000000000002));
#876=CARTESIAN_POINT('Ctrl Pts',(145.279906069017,28.1047085493153,1.60000000000002));
#877=CARTESIAN_POINT('',(193.98805443463,76.8128634206744,3.77475828372553E-14));
#878=CARTESIAN_POINT('Origin',(192.875,79.2177794508037,3.99680288865056E-14));
#879=CARTESIAN_POINT('',(191.557208373372,81.5168959148421,3.99680288865056E-14));
#880=CARTESIAN_POINT('Origin',(192.875,79.2177794508037,3.99680288865056E-14));
#881=CARTESIAN_POINT('',(191.557208373372,81.5168959148421,1.60000000000004));
#882=CARTESIAN_POINT('Origin',(192.875,79.2177794508037,1.60000000000004));
#883=CARTESIAN_POINT('',(191.557208373372,81.5168959148421,3.99680288865056E-14));
#884=CARTESIAN_POINT('Ctrl Pts',(151.525771259452,56.1173913397686,2.88657986402541E-14));
#885=CARTESIAN_POINT('Ctrl Pts',(151.525771259452,56.1173913397686,1.60000000000003));
#886=CARTESIAN_POINT('Ctrl Pts',(151.860717084211,56.4477348749333,2.88657986402541E-14));
#887=CARTESIAN_POINT('Ctrl Pts',(151.860717084211,56.4477348749333,1.60000000000003));
#888=CARTESIAN_POINT('Ctrl Pts',(152.185583551483,56.7673445026668,2.88657986402541E-14));
#889=CARTESIAN_POINT('Ctrl Pts',(152.185583551483,56.7673445026668,1.60000000000003));
#890=CARTESIAN_POINT('Ctrl Pts',(152.506161271599,57.0799723862741,2.88657986402541E-14));
#891=CARTESIAN_POINT('Ctrl Pts',(152.506161271599,57.0799723862741,1.60000000000003));
#892=CARTESIAN_POINT('Ctrl Pts',(153.540118610022,58.0882891661611,2.88657986402541E-14));
#893=CARTESIAN_POINT('Ctrl Pts',(153.540118610022,58.0882891661611,1.60000000000003));
#894=CARTESIAN_POINT('Ctrl Pts',(154.528702346046,59.0231955867089,2.88657986402541E-14));
#895=CARTESIAN_POINT('Ctrl Pts',(154.528702346046,59.0231955867089,1.60000000000003));
#896=CARTESIAN_POINT('Ctrl Pts',(155.651768267017,59.9960452171278,2.88657986402541E-14));
#897=CARTESIAN_POINT('Ctrl Pts',(155.651768267017,59.9960452171278,1.60000000000003));
#898=CARTESIAN_POINT('Ctrl Pts',(157.089625447422,61.2415810315737,2.88657986402541E-14));
#899=CARTESIAN_POINT('Ctrl Pts',(157.089625447422,61.2415810315737,1.60000000000003));
#900=CARTESIAN_POINT('Ctrl Pts',(158.822980206288,62.5979009740241,3.10862446895044E-14));
#901=CARTESIAN_POINT('Ctrl Pts',(158.822980206288,62.5979009740241,1.60000000000003));
#902=CARTESIAN_POINT('Ctrl Pts',(161.214319075101,64.2758000635874,3.33066907387547E-14));
#903=CARTESIAN_POINT('Ctrl Pts',(161.214319075101,64.2758000635874,1.60000000000003));
#904=CARTESIAN_POINT('Ctrl Pts',(163.974321225356,66.2123742377876,3.33066907387547E-14));
#905=CARTESIAN_POINT('Ctrl Pts',(163.974321225356,66.2123742377876,1.60000000000003));
#906=CARTESIAN_POINT('Ctrl Pts',(167.600510642317,68.5714480436526,3.5527136788005E-14));
#907=CARTESIAN_POINT('Ctrl Pts',(167.600510642317,68.5714480436526,1.60000000000004));
#908=CARTESIAN_POINT('Ctrl Pts',(171.748048234959,71.0692462656583,3.5527136788005E-14));
#909=CARTESIAN_POINT('Ctrl Pts',(171.748048234959,71.0692462656583,1.60000000000004));
#910=CARTESIAN_POINT('Ctrl Pts',(176.233790543038,73.770723687195,3.77475828372553E-14));
#911=CARTESIAN_POINT('Ctrl Pts',(176.233790543038,73.770723687195,1.60000000000004));
#912=CARTESIAN_POINT('Ctrl Pts',(181.263165006391,76.5877802203912,3.99680288865056E-14));
#913=CARTESIAN_POINT('Ctrl Pts',(181.263165006391,76.5877802203912,1.60000000000004));
#914=CARTESIAN_POINT('Ctrl Pts',(186.188334305129,79.0123141102137,3.99680288865056E-14));
#915=CARTESIAN_POINT('Ctrl Pts',(186.188334305129,79.0123141102137,1.60000000000004));
#916=CARTESIAN_POINT('Ctrl Pts',(187.992443186508,79.9004304080542,3.77475828372553E-14));
#917=CARTESIAN_POINT('Ctrl Pts',(187.992443186508,79.9004304080542,1.60000000000004));
#918=CARTESIAN_POINT('Ctrl Pts',(189.785419362966,80.7380211878293,3.99680288865056E-14));
#919=CARTESIAN_POINT('Ctrl Pts',(189.785419362966,80.7380211878293,1.60000000000004));
#920=CARTESIAN_POINT('Ctrl Pts',(191.557208373372,81.5168959148421,4.21884749357559E-14));
#921=CARTESIAN_POINT('Ctrl Pts',(191.557208373372,81.5168959148421,1.60000000000004));
#922=CARTESIAN_POINT('',(151.525771259452,56.1173913397686,2.88657986402541E-14));
#923=CARTESIAN_POINT('Ctrl Pts',(151.525771259452,56.1173913397686,2.88657986402541E-14));
#924=CARTESIAN_POINT('Ctrl Pts',(151.860717084211,56.4477348749333,2.88657986402541E-14));
#925=CARTESIAN_POINT('Ctrl Pts',(152.185583551483,56.7673445026668,2.88657986402541E-14));
#926=CARTESIAN_POINT('Ctrl Pts',(152.506161271599,57.0799723862741,2.88657986402541E-14));
#927=CARTESIAN_POINT('Ctrl Pts',(153.540118610022,58.0882891661611,2.88657986402541E-14));
#928=CARTESIAN_POINT('Ctrl Pts',(154.528702346046,59.0231955867089,2.88657986402541E-14));
#929=CARTESIAN_POINT('Ctrl Pts',(155.651768267017,59.9960452171278,2.88657986402541E-14));
#930=CARTESIAN_POINT('Ctrl Pts',(157.089625447422,61.2415810315737,2.88657986402541E-14));
#931=CARTESIAN_POINT('Ctrl Pts',(158.822980206288,62.5979009740241,3.10862446895044E-14));
#932=CARTESIAN_POINT('Ctrl Pts',(161.214319075101,64.2758000635874,3.33066907387547E-14));
#933=CARTESIAN_POINT('Ctrl Pts',(163.974321225356,66.2123742377876,3.33066907387547E-14));
#934=CARTESIAN_POINT('Ctrl Pts',(167.600510642317,68.5714480436526,3.5527136788005E-14));
#935=CARTESIAN_POINT('Ctrl Pts',(171.748048234959,71.0692462656583,3.5527136788005E-14));
#936=CARTESIAN_POINT('Ctrl Pts',(176.233790543038,73.770723687195,3.77475828372553E-14));
#937=CARTESIAN_POINT('Ctrl Pts',(181.263165006391,76.5877802203912,3.99680288865056E-14));
#938=CARTESIAN_POINT('Ctrl Pts',(186.188334305129,79.0123141102137,3.99680288865056E-14));
#939=CARTESIAN_POINT('Ctrl Pts',(187.992443186508,79.9004304080542,3.77475828372553E-14));
#940=CARTESIAN_POINT('Ctrl Pts',(189.785419362966,80.7380211878293,3.99680288865056E-14));
#941=CARTESIAN_POINT('Ctrl Pts',(191.557208373372,81.5168959148421,4.21884749357559E-14));
#942=CARTESIAN_POINT('',(151.525771259452,56.1173913397686,1.60000000000003));
#943=CARTESIAN_POINT('Ctrl Pts',(151.525771259452,56.1173913397686,1.60000000000003));
#944=CARTESIAN_POINT('Ctrl Pts',(151.860717084211,56.4477348749333,1.60000000000003));
#945=CARTESIAN_POINT('Ctrl Pts',(152.185583551483,56.7673445026668,1.60000000000003));
#946=CARTESIAN_POINT('Ctrl Pts',(152.506161271599,57.0799723862741,1.60000000000003));
#947=CARTESIAN_POINT('Ctrl Pts',(153.540118610022,58.0882891661611,1.60000000000003));
#948=CARTESIAN_POINT('Ctrl Pts',(154.528702346046,59.0231955867089,1.60000000000003));
#949=CARTESIAN_POINT('Ctrl Pts',(155.651768267017,59.9960452171278,1.60000000000003));
#950=CARTESIAN_POINT('Ctrl Pts',(157.089625447422,61.2415810315737,1.60000000000003));
#951=CARTESIAN_POINT('Ctrl Pts',(158.822980206288,62.5979009740241,1.60000000000003));
#952=CARTESIAN_POINT('Ctrl Pts',(161.214319075101,64.2758000635874,1.60000000000003));
#953=CARTESIAN_POINT('Ctrl Pts',(163.974321225356,66.2123742377876,1.60000000000003));
#954=CARTESIAN_POINT('Ctrl Pts',(167.600510642317,68.5714480436526,1.60000000000004));
#955=CARTESIAN_POINT('Ctrl Pts',(171.748048234959,71.0692462656583,1.60000000000004));
#956=CARTESIAN_POINT('Ctrl Pts',(176.233790543038,73.770723687195,1.60000000000004));
#957=CARTESIAN_POINT('Ctrl Pts',(181.263165006391,76.5877802203912,1.60000000000004));
#958=CARTESIAN_POINT('Ctrl Pts',(186.188334305129,79.0123141102137,1.60000000000004));
#959=CARTESIAN_POINT('Ctrl Pts',(187.992443186508,79.9004304080542,1.60000000000004));
#960=CARTESIAN_POINT('Ctrl Pts',(189.785419362966,80.7380211878293,1.60000000000004));
#961=CARTESIAN_POINT('Ctrl Pts',(191.557208373372,81.5168959148421,1.60000000000004));
#962=CARTESIAN_POINT('',(151.525771259452,56.1173913397686,2.88657986402541E-14));
#963=CARTESIAN_POINT('Origin',(150.760934296839,56.9079761996158,2.88657986402541E-14));
#964=CARTESIAN_POINT('',(150.266262106619,55.9254796733002,2.88657986402541E-14));
#965=CARTESIAN_POINT('Origin',(150.760934296839,56.9079761996158,2.88657986402541E-14));
#966=CARTESIAN_POINT('',(150.266262106619,55.9254796733002,1.60000000000003));
#967=CARTESIAN_POINT('Origin',(150.760934296839,56.9079761996158,1.60000000000003));
#968=CARTESIAN_POINT('',(150.266262106619,55.9254796733002,2.88657986402541E-14));
#969=CARTESIAN_POINT('Ctrl Pts',(127.824790122211,62.0310674011601,3.10862446895044E-14));
#970=CARTESIAN_POINT('Ctrl Pts',(127.824790122211,62.0310674011601,1.60000000000003));
#971=CARTESIAN_POINT('Ctrl Pts',(128.745627851002,61.9441258284856,3.10862446895044E-14));
#972=CARTESIAN_POINT('Ctrl Pts',(128.745627851002,61.9441258284856,1.60000000000003));
#973=CARTESIAN_POINT('Ctrl Pts',(129.697049363701,61.8256950347088,3.10862446895044E-14));
#974=CARTESIAN_POINT('Ctrl Pts',(129.697049363701,61.8256950347088,1.60000000000003));
#975=CARTESIAN_POINT('Ctrl Pts',(130.655206302451,61.6830751703912,2.88657986402541E-14));
#976=CARTESIAN_POINT('Ctrl Pts',(130.655206302451,61.6830751703912,1.60000000000003));
#977=CARTESIAN_POINT('Ctrl Pts',(132.724560062502,61.3750557421038,3.10862446895044E-14));
#978=CARTESIAN_POINT('Ctrl Pts',(132.724560062502,61.3750557421038,1.60000000000003));
#979=CARTESIAN_POINT('Ctrl Pts',(134.841397898213,60.9527245567612,2.88657986402541E-14));
#980=CARTESIAN_POINT('Ctrl Pts',(134.841397898213,60.9527245567612,1.60000000000003));
#981=CARTESIAN_POINT('Ctrl Pts',(136.866798770615,60.4789450863269,2.88657986402541E-14));
#982=CARTESIAN_POINT('Ctrl Pts',(136.866798770615,60.4789450863269,1.60000000000003));
#983=CARTESIAN_POINT('Ctrl Pts',(139.614268126764,59.8362601767235,2.88657986402541E-14));
#984=CARTESIAN_POINT('Ctrl Pts',(139.614268126764,59.8362601767235,1.60000000000003));
#985=CARTESIAN_POINT('Ctrl Pts',(142.128442599118,59.1249360933878,2.88657986402541E-14));
#986=CARTESIAN_POINT('Ctrl Pts',(142.128442599118,59.1249360933878,1.60000000000003));
#987=CARTESIAN_POINT('Ctrl Pts',(144.02192333207,58.5236857117669,2.88657986402541E-14));
#988=CARTESIAN_POINT('Ctrl Pts',(144.02192333207,58.5236857117669,1.60000000000003));
#989=CARTESIAN_POINT('Ctrl Pts',(145.737538946601,57.9789141041134,2.88657986402541E-14));
#990=CARTESIAN_POINT('Ctrl Pts',(145.737538946601,57.9789141041134,1.60000000000003));
#991=CARTESIAN_POINT('Ctrl Pts',(146.920396659402,57.5319009484013,2.88657986402541E-14));
#992=CARTESIAN_POINT('Ctrl Pts',(146.920396659402,57.5319009484013,1.60000000000003));
#993=CARTESIAN_POINT('Ctrl Pts',(147.881473681238,57.1052860793064,2.88657986402541E-14));
#994=CARTESIAN_POINT('Ctrl Pts',(147.881473681238,57.1052860793064,1.60000000000003));
#995=CARTESIAN_POINT('Ctrl Pts',(148.013032294511,57.0468881993191,2.88657986402541E-14));
#996=CARTESIAN_POINT('Ctrl Pts',(148.013032294511,57.0468881993191,1.60000000000003));
#997=CARTESIAN_POINT('Ctrl Pts',(148.141861920575,56.9884007450694,2.88657986402541E-14));
#998=CARTESIAN_POINT('Ctrl Pts',(148.141861920575,56.9884007450694,1.60000000000003));
#999=CARTESIAN_POINT('Ctrl Pts',(148.268848527442,56.9295630465547,2.88657986402541E-14));
#1000=CARTESIAN_POINT('Ctrl Pts',(148.268848527442,56.9295630465547,1.60000000000003));
#1001=CARTESIAN_POINT('Ctrl Pts',(148.941768658273,56.6177736952263,2.88657986402541E-14));
#1002=CARTESIAN_POINT('Ctrl Pts',(148.941768658273,56.6177736952263,1.60000000000003));
#1003=CARTESIAN_POINT('Ctrl Pts',(149.561956356538,56.2966433585749,2.88657986402541E-14));
#1004=CARTESIAN_POINT('Ctrl Pts',(149.561956356538,56.2966433585749,1.60000000000003));
#1005=CARTESIAN_POINT('Ctrl Pts',(150.266262106619,55.9254796733002,2.88657986402541E-14));
#1006=CARTESIAN_POINT('Ctrl Pts',(150.266262106619,55.9254796733002,1.60000000000003));
#1007=CARTESIAN_POINT('',(127.824789813248,62.0310643755662,3.10862446895044E-14));
#1008=CARTESIAN_POINT('Ctrl Pts',(127.824790122211,62.0310674011601,3.10862446895044E-14));
#1009=CARTESIAN_POINT('Ctrl Pts',(128.745627851002,61.9441258284856,3.10862446895044E-14));
#1010=CARTESIAN_POINT('Ctrl Pts',(129.697049363701,61.8256950347088,3.10862446895044E-14));
#1011=CARTESIAN_POINT('Ctrl Pts',(130.655206302451,61.6830751703912,2.88657986402541E-14));
#1012=CARTESIAN_POINT('Ctrl Pts',(132.724560062502,61.3750557421038,3.10862446895044E-14));
#1013=CARTESIAN_POINT('Ctrl Pts',(134.841397898213,60.9527245567612,2.88657986402541E-14));
#1014=CARTESIAN_POINT('Ctrl Pts',(136.866798770615,60.4789450863269,2.88657986402541E-14));
#1015=CARTESIAN_POINT('Ctrl Pts',(139.614268126764,59.8362601767235,2.88657986402541E-14));
#1016=CARTESIAN_POINT('Ctrl Pts',(142.128442599118,59.1249360933878,2.88657986402541E-14));
#1017=CARTESIAN_POINT('Ctrl Pts',(144.02192333207,58.5236857117669,2.88657986402541E-14));
#1018=CARTESIAN_POINT('Ctrl Pts',(145.737538946601,57.9789141041134,2.88657986402541E-14));
#1019=CARTESIAN_POINT('Ctrl Pts',(146.920396659402,57.5319009484013,2.88657986402541E-14));
#1020=CARTESIAN_POINT('Ctrl Pts',(147.881473681238,57.1052860793064,2.88657986402541E-14));
#1021=CARTESIAN_POINT('Ctrl Pts',(148.013032294511,57.0468881993191,2.88657986402541E-14));
#1022=CARTESIAN_POINT('Ctrl Pts',(148.141861920575,56.9884007450694,2.88657986402541E-14));
#1023=CARTESIAN_POINT('Ctrl Pts',(148.268848527442,56.9295630465547,2.88657986402541E-14));
#1024=CARTESIAN_POINT('Ctrl Pts',(148.941768658273,56.6177736952263,2.88657986402541E-14));
#1025=CARTESIAN_POINT('Ctrl Pts',(149.561956356538,56.2966433585749,2.88657986402541E-14));
#1026=CARTESIAN_POINT('Ctrl Pts',(150.266262106619,55.9254796733002,2.88657986402541E-14));
#1027=CARTESIAN_POINT('',(127.824789813248,62.0310643755662,1.60000000000003));
#1028=CARTESIAN_POINT('Ctrl Pts',(127.824790122211,62.0310674011601,1.60000000000003));
#1029=CARTESIAN_POINT('Ctrl Pts',(128.745627851002,61.9441258284856,1.60000000000003));
#1030=CARTESIAN_POINT('Ctrl Pts',(129.697049363701,61.8256950347088,1.60000000000003));
#1031=CARTESIAN_POINT('Ctrl Pts',(130.655206302451,61.6830751703912,1.60000000000003));
#1032=CARTESIAN_POINT('Ctrl Pts',(132.724560062502,61.3750557421038,1.60000000000003));
#1033=CARTESIAN_POINT('Ctrl Pts',(134.841397898213,60.9527245567612,1.60000000000003));
#1034=CARTESIAN_POINT('Ctrl Pts',(136.866798770615,60.4789450863269,1.60000000000003));
#1035=CARTESIAN_POINT('Ctrl Pts',(139.614268126764,59.8362601767235,1.60000000000003));
#1036=CARTESIAN_POINT('Ctrl Pts',(142.128442599118,59.1249360933878,1.60000000000003));
#1037=CARTESIAN_POINT('Ctrl Pts',(144.02192333207,58.5236857117669,1.60000000000003));
#1038=CARTESIAN_POINT('Ctrl Pts',(145.737538946601,57.9789141041134,1.60000000000003));
#1039=CARTESIAN_POINT('Ctrl Pts',(146.920396659402,57.5319009484013,1.60000000000003));
#1040=CARTESIAN_POINT('Ctrl Pts',(147.881473681238,57.1052860793064,1.60000000000003));
#1041=CARTESIAN_POINT('Ctrl Pts',(148.013032294511,57.0468881993191,1.60000000000003));
#1042=CARTESIAN_POINT('Ctrl Pts',(148.141861920575,56.9884007450694,1.60000000000003));
#1043=CARTESIAN_POINT('Ctrl Pts',(148.268848527442,56.9295630465547,1.60000000000003));
#1044=CARTESIAN_POINT('Ctrl Pts',(148.941768658273,56.6177736952263,1.60000000000003));
#1045=CARTESIAN_POINT('Ctrl Pts',(149.561956356538,56.2966433585749,1.60000000000003));
#1046=CARTESIAN_POINT('Ctrl Pts',(150.266262106619,55.9254796733002,1.60000000000003));
#1047=CARTESIAN_POINT('',(127.824789813248,62.0310643755662,3.10862446895044E-14));
#1048=CARTESIAN_POINT('Origin',(127.936537208211,63.1253766539972,3.10862446895044E-14));
#1049=CARTESIAN_POINT('',(127.249002779233,62.2667130109006,3.10862446895044E-14));
#1050=CARTESIAN_POINT('Origin',(127.936537208211,63.1253766539972,3.10862446895044E-14));
#1051=CARTESIAN_POINT('',(127.249002779233,62.2667130109006,1.60000000000003));
#1052=CARTESIAN_POINT('Origin',(127.936537208211,63.1253766539972,1.60000000000003));
#1053=CARTESIAN_POINT('',(127.249002779233,62.2667130109006,3.10862446895044E-14));
#1054=CARTESIAN_POINT('Ctrl Pts',(94.1927746796302,81.5169031738176,4.21884749357559E-14));
#1055=CARTESIAN_POINT('Ctrl Pts',(94.1927746796302,81.5169031738176,1.60000000000004));
#1056=CARTESIAN_POINT('Ctrl Pts',(97.5178779858531,80.0550242895038,3.99680288865056E-14));
#1057=CARTESIAN_POINT('Ctrl Pts',(97.5178779858531,80.0550242895038,1.60000000000004));
#1058=CARTESIAN_POINT('Ctrl Pts',(101.30274445521,78.1025744506292,3.77475828372553E-14));
#1059=CARTESIAN_POINT('Ctrl Pts',(101.30274445521,78.1025744506292,1.60000000000004));
#1060=CARTESIAN_POINT('Ctrl Pts',(105.193374275305,75.9283104582022,3.77475828372553E-14));
#1061=CARTESIAN_POINT('Ctrl Pts',(105.193374275305,75.9283104582022,1.60000000000004));
#1062=CARTESIAN_POINT('Ctrl Pts',(110.074953560527,73.2002580459123,3.77475828372553E-14));
#1063=CARTESIAN_POINT('Ctrl Pts',(110.074953560527,73.2002580459123,1.60000000000004));
#1064=CARTESIAN_POINT('Ctrl Pts',(115.055541740773,70.1723540873709,3.5527136788005E-14));
#1065=CARTESIAN_POINT('Ctrl Pts',(115.055541740773,70.1723540873709,1.60000000000004));
#1066=CARTESIAN_POINT('Ctrl Pts',(118.856426204711,67.7985187744898,3.33066907387547E-14));
#1067=CARTESIAN_POINT('Ctrl Pts',(118.856426204711,67.7985187744898,1.60000000000003));
#1068=CARTESIAN_POINT('Ctrl Pts',(121.525675494611,66.1314441019066,3.33066907387547E-14));
#1069=CARTESIAN_POINT('Ctrl Pts',(121.525675494611,66.1314441019066,1.60000000000003));
#1070=CARTESIAN_POINT('Ctrl Pts',(123.590562034653,64.802039148886,3.33066907387547E-14));
#1071=CARTESIAN_POINT('Ctrl Pts',(123.590562034653,64.802039148886,1.60000000000003));
#1072=CARTESIAN_POINT('Ctrl Pts',(124.881185019208,63.9536990844197,3.33066907387547E-14));
#1073=CARTESIAN_POINT('Ctrl Pts',(124.881185019208,63.9536990844197,1.60000000000003));
#1074=CARTESIAN_POINT('Ctrl Pts',(126.006348750602,63.2141171276057,3.10862446895044E-14));
#1075=CARTESIAN_POINT('Ctrl Pts',(126.006348750602,63.2141171276057,1.60000000000003));
#1076=CARTESIAN_POINT('Ctrl Pts',(126.528477808173,62.8501767025546,3.10862446895044E-14));
#1077=CARTESIAN_POINT('Ctrl Pts',(126.528477808173,62.8501767025546,1.60000000000003));
#1078=CARTESIAN_POINT('Ctrl Pts',(126.783721326168,62.6539783445273,3.10862446895044E-14));
#1079=CARTESIAN_POINT('Ctrl Pts',(126.783721326168,62.6539783445273,1.60000000000003));
#1080=CARTESIAN_POINT('Ctrl Pts',(126.804322684431,62.638142672397,3.10862446895044E-14));
#1081=CARTESIAN_POINT('Ctrl Pts',(126.804322684431,62.638142672397,1.60000000000003));
#1082=CARTESIAN_POINT('Ctrl Pts',(126.823686037732,62.6230569633378,3.10862446895044E-14));
#1083=CARTESIAN_POINT('Ctrl Pts',(126.823686037732,62.6230569633378,1.60000000000003));
#1084=CARTESIAN_POINT('Ctrl Pts',(126.842007864478,62.6085964910577,3.10862446895044E-14));
#1085=CARTESIAN_POINT('Ctrl Pts',(126.842007864478,62.6085964910577,1.60000000000003));
#1086=CARTESIAN_POINT('Ctrl Pts',(127.02100762339,62.4673212193385,3.10862446895044E-14));
#1087=CARTESIAN_POINT('Ctrl Pts',(127.02100762339,62.4673212193385,1.60000000000003));
#1088=CARTESIAN_POINT('Ctrl Pts',(127.079796108584,62.4034664293025,3.10862446895044E-14));
#1089=CARTESIAN_POINT('Ctrl Pts',(127.079796108584,62.4034664293025,1.60000000000003));
#1090=CARTESIAN_POINT('Ctrl Pts',(127.249002779233,62.2667130109006,3.10862446895044E-14));
#1091=CARTESIAN_POINT('Ctrl Pts',(127.249002779233,62.2667130109006,1.60000000000003));
#1092=CARTESIAN_POINT('',(94.1927746796302,81.5169031738176,4.21884749357559E-14));
#1093=CARTESIAN_POINT('Ctrl Pts',(94.1927746796302,81.5169031738176,4.21884749357559E-14));
#1094=CARTESIAN_POINT('Ctrl Pts',(97.5178779858531,80.0550242895038,3.99680288865056E-14));
#1095=CARTESIAN_POINT('Ctrl Pts',(101.30274445521,78.1025744506292,3.77475828372553E-14));
#1096=CARTESIAN_POINT('Ctrl Pts',(105.193374275305,75.9283104582022,3.77475828372553E-14));
#1097=CARTESIAN_POINT('Ctrl Pts',(110.074953560527,73.2002580459123,3.77475828372553E-14));
#1098=CARTESIAN_POINT('Ctrl Pts',(115.055541740773,70.1723540873709,3.5527136788005E-14));
#1099=CARTESIAN_POINT('Ctrl Pts',(118.856426204711,67.7985187744898,3.33066907387547E-14));
#1100=CARTESIAN_POINT('Ctrl Pts',(121.525675494611,66.1314441019066,3.33066907387547E-14));
#1101=CARTESIAN_POINT('Ctrl Pts',(123.590562034653,64.802039148886,3.33066907387547E-14));
#1102=CARTESIAN_POINT('Ctrl Pts',(124.881185019208,63.9536990844197,3.33066907387547E-14));
#1103=CARTESIAN_POINT('Ctrl Pts',(126.006348750602,63.2141171276057,3.10862446895044E-14));
#1104=CARTESIAN_POINT('Ctrl Pts',(126.528477808173,62.8501767025546,3.10862446895044E-14));
#1105=CARTESIAN_POINT('Ctrl Pts',(126.783721326168,62.6539783445273,3.10862446895044E-14));
#1106=CARTESIAN_POINT('Ctrl Pts',(126.804322684431,62.638142672397,3.10862446895044E-14));
#1107=CARTESIAN_POINT('Ctrl Pts',(126.823686037732,62.6230569633378,3.10862446895044E-14));
#1108=CARTESIAN_POINT('Ctrl Pts',(126.842007864478,62.6085964910577,3.10862446895044E-14));
#1109=CARTESIAN_POINT('Ctrl Pts',(127.02100762339,62.4673212193385,3.10862446895044E-14));
#1110=CARTESIAN_POINT('Ctrl Pts',(127.079796108584,62.4034664293025,3.10862446895044E-14));
#1111=CARTESIAN_POINT('Ctrl Pts',(127.249002779233,62.2667130109006,3.10862446895044E-14));
#1112=CARTESIAN_POINT('',(94.1927746796302,81.5169031738176,1.60000000000004));
#1113=CARTESIAN_POINT('Ctrl Pts',(94.1927746796302,81.5169031738176,1.60000000000004));
#1114=CARTESIAN_POINT('Ctrl Pts',(97.5178779858531,80.0550242895038,1.60000000000004));
#1115=CARTESIAN_POINT('Ctrl Pts',(101.30274445521,78.1025744506292,1.60000000000004));
#1116=CARTESIAN_POINT('Ctrl Pts',(105.193374275305,75.9283104582022,1.60000000000004));
#1117=CARTESIAN_POINT('Ctrl Pts',(110.074953560527,73.2002580459123,1.60000000000004));
#1118=CARTESIAN_POINT('Ctrl Pts',(115.055541740773,70.1723540873709,1.60000000000004));
#1119=CARTESIAN_POINT('Ctrl Pts',(118.856426204711,67.7985187744898,1.60000000000003));
#1120=CARTESIAN_POINT('Ctrl Pts',(121.525675494611,66.1314441019066,1.60000000000003));
#1121=CARTESIAN_POINT('Ctrl Pts',(123.590562034653,64.802039148886,1.60000000000003));
#1122=CARTESIAN_POINT('Ctrl Pts',(124.881185019208,63.9536990844197,1.60000000000003));
#1123=CARTESIAN_POINT('Ctrl Pts',(126.006348750602,63.2141171276057,1.60000000000003));
#1124=CARTESIAN_POINT('Ctrl Pts',(126.528477808173,62.8501767025546,1.60000000000003));
#1125=CARTESIAN_POINT('Ctrl Pts',(126.783721326168,62.6539783445273,1.60000000000003));
#1126=CARTESIAN_POINT('Ctrl Pts',(126.804322684431,62.638142672397,1.60000000000003));
#1127=CARTESIAN_POINT('Ctrl Pts',(126.823686037732,62.6230569633378,1.60000000000003));
#1128=CARTESIAN_POINT('Ctrl Pts',(126.842007864478,62.6085964910577,1.60000000000003));
#1129=CARTESIAN_POINT('Ctrl Pts',(127.02100762339,62.4673212193385,1.60000000000003));
#1130=CARTESIAN_POINT('Ctrl Pts',(127.079796108584,62.4034664293025,1.60000000000003));
#1131=CARTESIAN_POINT('Ctrl Pts',(127.249002779233,62.2667130109006,1.60000000000003));
#1132=CARTESIAN_POINT('',(94.1927746796302,81.5169031738176,4.21884749357559E-14));
#1133=CARTESIAN_POINT('Origin',(92.8750000000001,79.2177794508037,3.99680288865056E-14));
#1134=CARTESIAN_POINT('Origin',(92.8750000000001,79.2177794508037,3.99680288865056E-14));
#1135=CARTESIAN_POINT('Origin',(92.8750000000001,79.2177794508037,1.60000000000004));
#1136=CARTESIAN_POINT('Origin',(268.85,23.0073750885793,1.11022302462516E-14));
#1137=CARTESIAN_POINT('',(266.35,23.0073750885794,1.60000000000001));
#1138=CARTESIAN_POINT('Origin',(268.85,23.0073750885793,1.60000000000001));
#1139=CARTESIAN_POINT('',(266.35,23.0073750885793,1.11022302462516E-14));
#1140=CARTESIAN_POINT('',(266.35,23.0073750885793,1.11022302462516E-14));
#1141=CARTESIAN_POINT('Origin',(268.85,23.0073750885793,1.11022302462516E-14));
#1142=CARTESIAN_POINT('Origin',(16.9,23.0073750885793,1.11022302462516E-14));
#1143=CARTESIAN_POINT('',(14.4000000000001,23.0073750885794,1.60000000000001));
#1144=CARTESIAN_POINT('Origin',(16.9,23.0073750885793,1.60000000000001));
#1145=CARTESIAN_POINT('',(14.4000000000001,23.0073750885793,1.11022302462516E-14));
#1146=CARTESIAN_POINT('',(14.4000000000001,23.0073750885793,1.11022302462516E-14));
#1147=CARTESIAN_POINT('Origin',(16.9,23.0073750885793,1.11022302462516E-14));
#1148=CARTESIAN_POINT('Origin',(276.7,93.2781838130281,4.66293670342566E-14));
#1149=CARTESIAN_POINT('',(272.55,93.2781838130281,1.60000000000005));
#1150=CARTESIAN_POINT('Origin',(276.7,93.2781838130281,1.60000000000005));
#1151=CARTESIAN_POINT('',(272.55,93.2781838130281,4.66293670342566E-14));
#1152=CARTESIAN_POINT('',(272.55,93.2781838130281,4.66293670342566E-14));
#1153=CARTESIAN_POINT('Origin',(276.7,93.2781838130281,4.66293670342566E-14));
#1154=CARTESIAN_POINT('Origin',(16.9,85.4281838130281,4.21884749357559E-14));
#1155=CARTESIAN_POINT('',(14.4000000000001,85.4281838130281,1.60000000000004));
#1156=CARTESIAN_POINT('Origin',(16.9,85.4281838130281,1.60000000000004));
#1157=CARTESIAN_POINT('',(14.4000000000001,85.4281838130281,4.21884749357559E-14));
#1158=CARTESIAN_POINT('',(14.4000000000001,85.4281838130281,4.21884749357559E-14));
#1159=CARTESIAN_POINT('Origin',(16.9,85.4281838130281,4.21884749357559E-14));
#1160=CARTESIAN_POINT('Origin',(4.50000000000003,7.00737508857933,0.));
#1161=CARTESIAN_POINT('',(4.50000000000003,7.00737508857933,0.));
#1162=CARTESIAN_POINT('',(281.25,7.00737508857932,0.));
#1163=CARTESIAN_POINT('',(4.50000000000003,7.00737508857933,0.));
#1164=CARTESIAN_POINT('',(281.25,7.00737508857932,1.6));
#1165=CARTESIAN_POINT('',(281.25,7.00737508857932,0.));
#1166=CARTESIAN_POINT('',(4.50000000000003,7.00737508857933,1.6));
#1167=CARTESIAN_POINT('',(4.50000000000003,7.00737508857933,1.6));
#1168=CARTESIAN_POINT('',(4.50000000000003,7.00737508857933,0.));
#1169=CARTESIAN_POINT('Origin',(4.50000000000001,10.6073750885793,0.));
#1170=CARTESIAN_POINT('',(0.900000000000006,10.6073750885793,0.));
#1171=CARTESIAN_POINT('Origin',(4.50000000000001,10.6073750885793,0.));
#1172=CARTESIAN_POINT('',(0.900000000000005,10.6073750885793,1.6));
#1173=CARTESIAN_POINT('Origin',(4.50000000000001,10.6073750885793,1.6));
#1174=CARTESIAN_POINT('',(0.900000000000006,10.6073750885793,0.));
#1175=CARTESIAN_POINT('Origin',(0.89999999999999,97.8281838130281,0.));
#1176=CARTESIAN_POINT('',(0.89999999999999,97.8281838130281,0.));
#1177=CARTESIAN_POINT('',(0.89999999999999,97.8281838130281,0.));
#1178=CARTESIAN_POINT('',(0.89999999999999,97.8281838130281,1.6));
#1179=CARTESIAN_POINT('',(0.89999999999999,97.8281838130281,1.6));
#1180=CARTESIAN_POINT('',(0.89999999999999,97.8281838130281,0.));
#1181=CARTESIAN_POINT('Origin',(4.50000000000004,97.828183813028,0.));
#1182=CARTESIAN_POINT('',(4.49999999999999,101.428183813028,0.));
#1183=CARTESIAN_POINT('Origin',(4.50000000000004,97.828183813028,0.));
#1184=CARTESIAN_POINT('',(4.49999999999999,101.428183813028,1.6));
#1185=CARTESIAN_POINT('Origin',(4.50000000000004,97.828183813028,1.6));
#1186=CARTESIAN_POINT('',(4.49999999999999,101.428183813028,0.));
#1187=CARTESIAN_POINT('Origin',(281.25,101.428183813028,0.));
#1188=CARTESIAN_POINT('',(281.25,101.428183813028,0.));
#1189=CARTESIAN_POINT('',(281.25,101.428183813028,0.));
#1190=CARTESIAN_POINT('',(281.25,101.428183813028,1.6));
#1191=CARTESIAN_POINT('',(281.25,101.428183813028,1.6));
#1192=CARTESIAN_POINT('',(281.25,101.428183813028,0.));
#1193=CARTESIAN_POINT('Origin',(281.25,97.8281838130281,0.));
#1194=CARTESIAN_POINT('',(284.85,97.8281838130281,0.));
#1195=CARTESIAN_POINT('Origin',(281.25,97.8281838130281,0.));
#1196=CARTESIAN_POINT('',(284.85,97.8281838130281,1.6));
#1197=CARTESIAN_POINT('Origin',(281.25,97.8281838130281,1.6));
#1198=CARTESIAN_POINT('',(284.85,97.8281838130281,0.));
#1199=CARTESIAN_POINT('Origin',(284.85,10.6073750885793,0.));
#1200=CARTESIAN_POINT('',(284.85,10.6073750885793,0.));
#1201=CARTESIAN_POINT('',(284.85,10.6073750885793,0.));
#1202=CARTESIAN_POINT('',(284.85,10.6073750885793,1.6));
#1203=CARTESIAN_POINT('',(284.85,10.6073750885793,1.6));
#1204=CARTESIAN_POINT('',(284.85,10.6073750885793,0.));
#1205=CARTESIAN_POINT('Origin',(281.25,10.6073750885791,0.));
#1206=CARTESIAN_POINT('Origin',(281.25,10.6073750885791,0.));
#1207=CARTESIAN_POINT('Origin',(281.25,10.6073750885791,1.6));
#1208=CARTESIAN_POINT('Origin',(142.875,54.2177794508037,1.6));
#1209=CARTESIAN_POINT('Origin',(142.875,54.2177794508037,0.));
#1210=UNCERTAINTY_MEASURE_WITH_UNIT(LENGTH_MEASURE(0.01),#1214,
'DISTANCE_ACCURACY_VALUE',
'Maximum model space distance between geometric entities at asserted c
onnectivities');
#1211=UNCERTAINTY_MEASURE_WITH_UNIT(LENGTH_MEASURE(0.01),#1214,
'DISTANCE_ACCURACY_VALUE',
'Maximum model space distance between geometric entities at asserted c
onnectivities');
#1212=(
GEOMETRIC_REPRESENTATION_CONTEXT(3)
GLOBAL_UNCERTAINTY_ASSIGNED_CONTEXT((#1210))
GLOBAL_UNIT_ASSIGNED_CONTEXT((#1214,#1216,#1217))
REPRESENTATION_CONTEXT('','3D')
);
#1213=(
GEOMETRIC_REPRESENTATION_CONTEXT(3)
GLOBAL_UNCERTAINTY_ASSIGNED_CONTEXT((#1211))
GLOBAL_UNIT_ASSIGNED_CONTEXT((#1214,#1216,#1217))
REPRESENTATION_CONTEXT('','3D')
);
#1214=(
LENGTH_UNIT()
NAMED_UNIT(*)
SI_UNIT(.MILLI.,.METRE.)
);
#1215=(
LENGTH_UNIT()
NAMED_UNIT(*)
SI_UNIT($,.METRE.)
);
#1216=(
NAMED_UNIT(*)
PLANE_ANGLE_UNIT()
SI_UNIT($,.RADIAN.)
);
#1217=(
NAMED_UNIT(*)
SI_UNIT($,.STERADIAN.)
SOLID_ANGLE_UNIT()
);
#1218=SHAPE_DEFINITION_REPRESENTATION(#1219,#1220);
#1219=PRODUCT_DEFINITION_SHAPE('',$,#1222);
#1220=SHAPE_REPRESENTATION('',(#574),#1212);
#1221=PRODUCT_DEFINITION_CONTEXT('part definition',#1226,'design');
#1222=PRODUCT_DEFINITION('summit-weight-external-v3',
'summit-weight-external-v3 v1',#1223,#1221);
#1223=PRODUCT_DEFINITION_FORMATION('',$,#1228);
#1224=PRODUCT_RELATED_PRODUCT_CATEGORY('summit-weight-external-v3 v1',
'summit-weight-external-v3 v1',(#1228));
#1225=APPLICATION_PROTOCOL_DEFINITION('international standard',
'automotive_design',2009,#1226);
#1226=APPLICATION_CONTEXT(
'Core Data for Automotive Mechanical Design Process');
#1227=PRODUCT_CONTEXT('part definition',#1226,'mechanical');
#1228=PRODUCT('summit-weight-external-v3',
'summit-weight-external-v3 v1',$,(#1227));
#1229=PRESENTATION_STYLE_ASSIGNMENT((#1230));
#1230=SURFACE_STYLE_USAGE(.BOTH.,#1231);
#1231=SURFACE_SIDE_STYLE('',(#1232));
#1232=SURFACE_STYLE_FILL_AREA(#1233);
#1233=FILL_AREA_STYLE('Steel - Satin',(#1234));
#1234=FILL_AREA_STYLE_COLOUR('Steel - Satin',#1235);
#1235=COLOUR_RGB('Steel - Satin',0.627450980392157,0.627450980392157,0.627450980392157);
ENDSEC;
END-ISO-10303-21;
