0
SECTION
2
HEADER
9
$INSUNITS
70
4
9
$ACADVER
1
AC1014
9
$HANDSEED
5
FFFF
0
ENDSEC
0
SECTION
2
TABLES
0
TABLE
2
VPORT
5
8
100
AcDbSymbolTable
0
ENDTAB
0
TABLE
2
LTYPE
5
5
100
AcDbSymbolTable
0
LTYPE
5
14
100
AcDbSymbolTableRecord
100
AcDbLinetypeTableRecord
2
BYBLOCK
70
0
0
LTYPE
5
15
100
AcDbSymbolTableRecord
100
AcDbLinetypeTableRecord
2
BYLAYER
70
0
0
ENDTAB
0
TABLE
2
LAYER
5
2
100
AcDbSymbolTable
70
2
0
LAYER
5
50
100
AcDbSymbolTableRecord
100
AcDbLayerTableRecord
2
0
70
0
6
CONTINUOUS
0
ENDTAB
0
TABLE
2
STYLE
5
3
100
AcDbSymbolTable
70
1
0
STYLE
5
11
100
AcDbSymbolTableRecord
100
AcDbTextStyleTableRecord
2
STANDARD
70
0
0
ENDTAB
0
TABLE
2
VIEW
5
6
100
AcDbSymbolTable
70
0
0
ENDTAB
0
TABLE
2
UCS
5
7
100
AcDbSymbolTable
70
0
0
ENDTAB
0
TABLE
2
APPID
5
9
100
AcDbSymbolTable
70
2
0
APPID
5
12
100
AcDbSymbolTableRecord
100
AcDbRegAppTableRecord
2
ACAD
70
0
0
ENDTAB
0
TABLE
2
DIMSTYLE
5
A
100
AcDbSymbolTable
70
1
0
ENDTAB
0
TABLE
2
BLOCK_RECORD
5
1
100
AcDbSymbolTable
70
1
0
BLOCK_RECORD
5
1F
100
AcDbSymbolTableRecord
100
AcDbBlockTableRecord
2
*MODEL_SPACE
0
BLOCK_RECORD
5
1B
100
AcDbSymbolTableRecord
100
AcDbBlockTableRecord
2
*PAPER_SPACE
0
ENDTAB
0
ENDSEC
0
SECTION
2
BLOCKS
0
BLOCK
5
20
100
AcDbEntity
100
AcDbBlockBegin
2
*MODEL_SPACE
0
ENDBLK
5
21
100
AcDbEntity
100
AcDbBlockEnd
0
BLOCK
5
1C
100
AcDbEntity
100
AcDbBlockBegin
2
*PAPER_SPACE
0
ENDBLK
5
1D
100
AcDbEntity
100
AcDbBlockEnd
0
ENDSEC
0
SECTION
2
ENTITIES
0
CIRCLE
5
100
100
AcDbEntity
8
0
100
AcDbCircle
10
9.050000000000006
20
15.157375088579325
30
8.8817841970012523e-15
40
4.1500000000000012
210
4.0473772292961703e-46
220
-4.9960036108132054e-16
230
1
0
CIRCLE
5
101
100
AcDbEntity
8
0
100
AcDbCircle
10
268.85000000000002
20
23.007375088579348
30
1.1102230246251565e-14
40
2.4999999999999996
210
5.4413106848412831e-47
220
-4.9960036108132054e-16
230
1
0
CIRCLE
5
102
100
AcDbEntity
8
0
100
AcDbCircle
10
9.0499999999999972
20
93.278183813028065
30
4.6629367034256575e-14
40
4.1499999999999995
210
-4.1570933164032751e-46
220
-4.7184478546569163e-16
230
1
0
SPLINE
5
103
100
AcDbEntity
8
0
100
AcDbSpline
70
0
71
3
72
23
73
19
74
0
42
0.000000001
43
0.0000000001
44
0.0000000001
40
1.7737257599241268e-05
40
1.7737257599241268e-05
40
1.7737257599241268e-05
40
1.7737257599241268e-05
40
0.090586871590421947
40
0.090586871590421947
40
0.090586871590421947
40
0.28619113128564799
40
0.28619113128564799
40
0.28619113128564799
40
0.55162354275193581
40
0.55162354275193581
40
0.55162354275193581
40
0.7921264592377435
40
0.7921264592377435
40
0.7921264592377435
40
0.82511106965223768
40
0.82511106965223768
40
0.82511106965223768
40
0.99990122196236642
40
0.99990122196236642
40
0.99990122196236642
40
0.99990122196236642
10
127.82479012221101
20
62.031067401160072
30
3.1086244689504383e-14
10
128.74562785100207
20
61.94412582848561
30
3.1086244689504383e-14
10
129.69704936370093
20
61.825695034708829
30
3.1086244689504383e-14
10
130.65520630245143
20
61.683075170391206
30
2.886579864025407e-14
10
132.72456006250184
20
61.375055742103783
30
3.1086244689504383e-14
10
134.84139789821259
20
60.952724556761225
30
2.886579864025407e-14
10
136.86679877061505
20
60.478945086326902
30
2.886579864025407e-14
10
139.61426812676359
20
59.836260176723528
30
2.886579864025407e-14
10
142.12844259911824
20
59.124936093387824
30
2.886579864025407e-14
10
144.02192333207043
20
58.523685711766859
30
2.886579864025407e-14
10
145.73753894660058
20
57.9789141041134
30
2.886579864025407e-14
10
146.92039665940158
20
57.531900948401301
30
2.886579864025407e-14
10
147.88147368123839
20
57.105286079306381
30
2.886579864025407e-14
10
148.01303229451128
20
57.046888199319142
30
2.886579864025407e-14
10
148.14186192057534
20
56.988400745069363
30
2.886579864025407e-14
10
148.26884852744175
20
56.929563046554691
30
2.886579864025407e-14
10
148.94176865827251
20
56.617773695226319
30
2.886579864025407e-14
10
149.56195635653808
20
56.296643358574855
30
2.886579864025407e-14
10
150.26626210661865
20
55.925479673300188
30
2.886579864025407e-14
0
ARC
5
104
100
AcDbEntity
8
0
100
AcDbCircle
10
150.76093429683908
20
56.907976199615753
30
2.886579864025407e-14
40
1.0999999999998347
210
2.0452317471186598e-16
220
-1.0297433535460579e-16
230
1
100
AcDbArc
50
243.27543438186652
51
314.05163275118883
0
SPLINE
5
105
100
AcDbEntity
8
0
100
AcDbSpline
70
0
71
3
72
23
73
19
74
0
42
0.000000001
43
0.0000000001
44
0.0000000001
40
-0.9999753922024297
40
-0.9999753922024297
40
-0.9999753922024297
40
-0.9999753922024297
40
-0.95035176421096579
40
-0.95035176421096579
40
-0.95035176421096579
40
-0.79030098369412505
40
-0.79030098369412505
40
-0.79030098369412505
40
-0.58557656423305271
40
-0.58557656423305271
40
-0.58557656423305271
40
-0.34928597045213378
40
-0.34928597045213378
40
-0.34928597045213378
40
-0.093741974545158049
40
-0.093741974545158049
40
-0.093741974545158049
40
-0.00013096186418870865
40
-0.00013096186418870865
40
-0.00013096186418870865
40
-0.00013096186418870865
10
151.52577125945248
20
56.117391339768588
30
2.886579864025407e-14
10
151.86071708421068
20
56.447734874933332
30
2.886579864025407e-14
10
152.18558355148315
20
56.767344502666802
30
2.886579864025407e-14
10
152.50616127159938
20
57.079972386274051
30
2.886579864025407e-14
10
153.54011861002161
20
58.088289166161104
30
2.886579864025407e-14
10
154.52870234604649
20
59.02319558670888
30
2.886579864025407e-14
10
155.65176826701705
20
59.996045217127758
30
2.886579864025407e-14
10
157.08962544742246
20
61.241581031573737
30
2.886579864025407e-14
10
158.82298020628804
20
62.597900974024093
30
3.1086244689504383e-14
10
161.21431907510117
20
64.275800063587383
30
3.3306690738754696e-14
10
163.97432122535571
20
66.212374237787628
30
3.3306690738754696e-14
10
167.60051064231749
20
68.571448043652566
30
3.5527136788005009e-14
10
171.7480482349589
20
71.069246265658336
30
3.5527136788005009e-14
10
176.23379054303766
20
73.770723687194987
30
3.7747582837255322e-14
10
181.26316500639069
20
76.58778022039121
30
3.9968028886505635e-14
10
186.18833430512868
20
79.01231411021368
30
3.9968028886505635e-14
10
187.99244318650776
20
79.900430408054248
30
3.7747582837255322e-14
10
189.78541936296585
20
80.73802118782929
30
3.9968028886505635e-14
10
191.55720837337202
20
81.516895914842081
30
4.2188474935755949e-14
0
ARC
5
106
100
AcDbEntity
8
0
100
AcDbCircle
10
192.875
20
79.217779450803704
30
3.9968028886505629e-14
40
2.6500021295129788
210
-7.9280374094595441e-18
220
-5.1640918225808179e-16
230
1
100
AcDbArc
50
-65.164136950714692
51
119.82017312180832
0
SPLINE
5
107
100
AcDbEntity
8
0
100
AcDbSpline
70
0
71
3
72
11
73
7
74
0
42
0.000000001
43
0.0000000001
44
0.0000000001
40
0.0078692997913650097
40
0.0078692997913650097
40
0.0078692997913650097
40
0.0078692997913650097
40
0.52144760596754813
40
0.52144760596754813
40
0.52144760596754813
40
0.99213096812029744
40
0.99213096812029744
40
0.99213096812029744
40
0.99213096812029744
10
193.98805443463033
20
76.812863420674361
30
3.7747582837255322e-14
10
183.42754281438937
20
70.425152943264791
30
3.3306690738754696e-14
10
173.7836215131145
20
63.125864902681357
30
3.1086244689504383e-14
10
165.41811328842809
20
54.552306109617859
30
2.886579864025407e-14
10
157.75081961723262
20
46.694326497609211
30
2.2204460492503131e-14
10
151.13415061158577
20
37.783271291149426
30
1.9984014443252818e-14
10
145.27990606901727
20
28.104708549315301
30
1.5543122344752192e-14
0
ARC
5
108
100
AcDbEntity
8
0
100
AcDbCircle
10
142.875
20
29.217779450803697
30
1.3322676295501885e-14
40
2.6500000061389444
210
1.916391855278081e-18
220
-4.7494301992830056e-16
230
1
100
AcDbArc
50
204.83627674752438
51
335.16372338794264
0
SPLINE
5
109
100
AcDbEntity
8
0
100
AcDbSpline
70
0
71
3
72
11
73
7
74
0
42
0.000000001
43
0.0000000001
44
0.0000000001
40
-0.99213096726186034
40
-0.99213096726186034
40
-0.99213096726186034
40
-0.99213096726186034
40
-0.47855241718533542
40
-0.47855241718533542
40
-0.47855241718533542
40
-0.0078690310795764724
40
-0.0078690310795764724
40
-0.0078690310795764724
40
-0.0078690310795764724
10
140.47009393361441
20
28.104708543629279
30
1.3322676295501878e-14
10
134.08238140634708
20
38.665226168448029
30
1.9984014443252818e-14
10
126.7830905720666
20
48.309152720128033
30
2.4424906541753444e-14
10
118.20952781844001
20
56.674665030891887
30
2.6645352591003757e-14
10
110.35154790833718
20
64.341959196073674
30
3.3306690738754696e-14
10
101.44049233868529
20
70.958628624416363
30
3.3306690738754696e-14
10
91.761929051325779
20
76.812873410390367
30
3.7747582837255322e-14
0
ARC
5
110
100
AcDbEntity
8
0
100
AcDbCircle
10
92.875000000000085
20
79.217779450803704
30
3.9968028886505635e-14
40
2.6499999999998298
210
-9.2736177684900583e-18
220
-5.1564030615668749e-16
230
1
100
AcDbArc
50
60.180222819972933
51
245.16372220232677
0
SPLINE
5
111
100
AcDbEntity
8
0
100
AcDbSpline
70
0
71
3
72
23
73
19
74
0
42
0.000000001
43
0.0000000001
44
0.0000000001
40
0.00016222560447065124
40
0.00016222560447065124
40
0.00016222560447065124
40
0.00016222560447065124
40
0.21825838703896752
40
0.21825838703896752
40
0.21825838703896752
40
0.49192854691604881
40
0.49192854691604881
40
0.49192854691604881
40
0.68412361649032816
40
0.68412361649032816
40
0.68412361649032816
40
0.85166689387493444
40
0.85166689387493444
40
0.85166689387493444
40
0.86544873454433513
40
0.86544873454433513
40
0.86544873454433513
40
1.0000939416753207
40
1.0000939416753207
40
1.0000939416753207
40
1.0000939416753207
10
94.192774679630162
20
81.516903173817624
30
4.2188474935755949e-14
10
97.517877985853133
20
80.055024289503763
30
3.9968028886505635e-14
10
101.3027444552103
20
78.102574450629177
30
3.7747582837255322e-14
10
105.19337427530466
20
75.928310458202247
30
3.7747582837255322e-14
10
110.07495356052665
20
73.200258045912364
30
3.7747582837255322e-14
10
115.0555417407727
20
70.172354087370906
30
3.5527136788005009e-14
10
118.85642620471114
20
67.79851877448975
30
3.3306690738754696e-14
10
121.52567549461077
20
66.131444101906553
30
3.3306690738754696e-14
10
123.59056203465329
20
64.802039148886024
30
3.3306690738754696e-14
10
124.88118501920786
20
63.953699084419753
30
3.3306690738754696e-14
10
126.00634875060206
20
63.214117127605711
30
3.1086244689504383e-14
10
126.52847780817346
20
62.850176702554599
30
3.1086244689504383e-14
10
126.78372132616801
20
62.653978344527289
30
3.1086244689504383e-14
10
126.80432268443107
20
62.638142672396995
30
3.1086244689504383e-14
10
126.82368603773185
20
62.623056963337746
30
3.1086244689504383e-14
10
126.84200786447754
20
62.608596491057689
30
3.1086244689504383e-14
10
127.02100762338998
20
62.467321219338523
30
3.1086244689504383e-14
10
127.07979610858432
20
62.403466429302455
30
3.1086244689504383e-14
10
127.2490027792329
20
62.266713010900574
30
3.1086244689504383e-14
0
ARC
5
112
100
AcDbEntity
8
0
100
AcDbCircle
10
127.93653720821069
20
63.125376653997158
30
3.1086244689504383e-14
40
1.1000031104527488
210
2.4915937932422221e-16
220
-1.9950262592971274e-16
230
1
100
AcDbArc
50
231.31564496661812
51
264.169363475034
0
CIRCLE
5
113
100
AcDbEntity
8
0
100
AcDbCircle
10
16.900000000000048
20
85.428183813028085
30
4.2188474935755949e-14
40
2.4999999999999973
210
5.4413106848412831e-47
220
-4.9960036108132054e-16
230
1
0
CIRCLE
5
114
100
AcDbEntity
8
0
100
AcDbCircle
10
276.70000000000005
20
93.278183813028079
30
4.6629367034256575e-14
40
4.1499999999999906
210
-6.5384715559122066e-47
220
-4.7184478546569163e-16
230
1
0
CIRCLE
5
115
100
AcDbEntity
8
0
100
AcDbCircle
10
16.900000000000048
20
23.007375088579348
30
1.1102230246251565e-14
40
2.4999999999999973
210
5.4413106848412831e-47
220
-4.9960036108132054e-16
230
1
0
CIRCLE
5
116
100
AcDbEntity
8
0
100
AcDbCircle
10
268.85000000000002
20
85.428183813028085
30
4.2188474935755949e-14
40
2.4999999999999996
210
5.4413106848412831e-47
220
-4.9960036108132054e-16
230
1
0
CIRCLE
5
117
100
AcDbEntity
8
0
100
AcDbCircle
10
276.70000000000005
20
15.157375088579325
30
8.8817841970012523e-15
40
4.1499999999999906
210
-6.5384715559122066e-47
220
-4.7184478546569163e-16
230
1
0
LWPOLYLINE
5
118
100
AcDbEntity
8
0
100
AcDbPolyline
90
8
70
1
43
0.0
10
0.90000000000000635
20
10.607375088579325
42
0.41421356237309648
10
4.5000000000000275
20
7.0073750885793267
10
281.25000000000006
20
7.0073750885793205
42
0.41421356237311796
10
284.85000000000002
20
10.607375088579253
10
284.85000000000002
20
97.828183813028062
42
0.41421356237309648
10
281.25000000000006
20
101.42818381302808
10
4.4999999999999929
20
101.42818381302808
42
0.41421356237308848
10
0.89999999999999136
20
97.828183813028105
0
ENDSEC
0
SECTION
2
OBJECTS
0
DICTIONARY
5
C
100
AcDbDictionary
3
ACAD_GROUP
350
D
3
ACAD_MLINESTYLE
350
17
0
DICTIONARY
5
D
100
AcDbDictionary
0
DICTIONARY
5
1A
330
C
100
AcDbDictionary
0
DICTIONARY
5
17
100
AcDbDictionary
0
ENDSEC
0
EOF
