0
SECTION
2
HEADER
9
$INSUNITS
70
4
9
$ACADVER
1
AC1014
9
$HANDSEED
5
FFFF
0
ENDSEC
0
SECTION
2
TABLES
0
TABLE
2
VPORT
5
8
100
AcDbSymbolTable
0
ENDTAB
0
TABLE
2
LTYPE
5
5
100
AcDbSymbolTable
0
LTYPE
5
14
100
AcDbSymbolTableRecord
100
AcDbLinetypeTableRecord
2
BYBLOCK
70
0
0
LTYPE
5
15
100
AcDbSymbolTableRecord
100
AcDbLinetypeTableRecord
2
BYLAYER
70
0
0
ENDTAB
0
TABLE
2
LAYER
5
2
100
AcDbSymbolTable
70
2
0
LAYER
5
50
100
AcDbSymbolTableRecord
100
AcDbLayerTableRecord
2
0
70
0
6
CONTINUOUS
0
ENDTAB
0
TABLE
2
STYLE
5
3
100
AcDbSymbolTable
70
1
0
STYLE
5
11
100
AcDbSymbolTableRecord
100
AcDbTextStyleTableRecord
2
STANDARD
70
0
0
ENDTAB
0
TABLE
2
VIEW
5
6
100
AcDbSymbolTable
70
0
0
ENDTAB
0
TABLE
2
UCS
5
7
100
AcDbSymbolTable
70
0
0
ENDTAB
0
TABLE
2
APPID
5
9
100
AcDbSymbolTable
70
2
0
APPID
5
12
100
AcDbSymbolTableRecord
100
AcDbRegAppTableRecord
2
ACAD
70
0
0
ENDTAB
0
TABLE
2
DIMSTYLE
5
A
100
AcDbSymbolTable
70
1
0
ENDTAB
0
TABLE
2
BLOCK_RECORD
5
1
100
AcDbSymbolTable
70
1
0
BLOCK_RECORD
5
1F
100
AcDbSymbolTableRecord
100
AcDbBlockTableRecord
2
*MODEL_SPACE
0
BLOCK_RECORD
5
1B
100
AcDbSymbolTableRecord
100
AcDbBlockTableRecord
2
*PAPER_SPACE
0
ENDTAB
0
ENDSEC
0
SECTION
2
BLOCKS
0
BLOCK
5
20
100
AcDbEntity
100
AcDbBlockBegin
2
*MODEL_SPACE
0
ENDBLK
5
21
100
AcDbEntity
100
AcDbBlockEnd
0
BLOCK
5
1C
100
AcDbEntity
100
AcDbBlockBegin
2
*PAPER_SPACE
0
ENDBLK
5
1D
100
AcDbEntity
100
AcDbBlockEnd
0
ENDSEC
0
SECTION
2
ENTITIES
0
CIRCLE
5
100
100
AcDbEntity
8
0
100
AcDbCircle
10
-268.85000000000002
20
38.099999999999824
30
0
40
2.5
210
0
220
0
230
1
0
LWPOLYLINE
5
101
100
AcDbEntity
8
0
100
AcDbPolyline
90
8
70
1
43
0.0
10
-213.83750000000003
20
41.100000000000009
10
-213.83750000000003
20
35.10000000000008
42
-0.41421356237309631
10
-215.83750000000003
20
33.100000000000065
10
-231.83750000000001
20
33.100000000000016
42
-0.41421356237309503
10
-233.83749999999998
20
35.100000000000009
10
-233.83749999999998
20
41.100000000000001
42
-0.41421356237309503
10
-231.83750000000001
20
43.100000000000009
10
-215.83750000000003
20
43.099999999999994
42
-0.4142135623730937
0
CIRCLE
5
102
100
AcDbEntity
8
0
100
AcDbCircle
10
-16.900000000000013
20
38.099999999999824
30
0
40
2.5000000000000022
210
0
220
0
230
1
0
SPLINE
5
103
100
AcDbEntity
8
0
100
AcDbSpline
70
0
71
3
72
10
73
6
74
0
42
0.000000001
43
0.0000000001
44
0.0000000001
40
-1.1718378198353414
40
-1.1718378198353414
40
-1.1718378198353414
40
-1.1718378198353414
40
-0.61420669253618299
40
-0.61420669253618299
40
0
40
0
40
0
40
0
10
-127.82479012221101
20
63.12728722153701
30
0
10
-133.19350562780426
20
62.624732515932713
30
0
10
-139.18904906348135
20
61.099612895094701
30
0
10
-146.87941077679133
20
58.80792415460111
30
0
10
-148.45166207784439
20
58.022032719936909
30
0
10
-150.26626210661865
20
57.073933643083315
30
0
0
ARC
5
104
100
AcDbEntity
8
0
100
AcDbCircle
10
-101.59640496967671
20
-36.07701051164036
30
0
40
105.09925494810506
210
0
220
0
230
1
100
AcDbArc
50
117.58633750408154
51
124.91814988453494
0
ARC
5
105
100
AcDbEntity
8
0
100
AcDbCircle
10
-164.04543475405893
20
53.381170272572916
30
0
40
4.0000000000000817
210
0
220
0
230
1
100
AcDbArc
50
219.16666667628331
51
304.9181498845353
0
ARC
5
106
100
AcDbEntity
8
0
100
AcDbCircle
10
-201.75408947663203
20
22.663255126008004
30
0
40
44.636744873992015
210
0
220
-0
230
1
100
AcDbArc
50
39.16666667628278
51
129.07377523474545
0
ARC
5
107
100
AcDbEntity
8
0
100
AcDbCircle
10
-232.41082868895484
20
60.421662041626554
30
0
40
4.0000000000001359
210
0
220
0
230
1
100
AcDbArc
50
225.00237599855325
51
309.07377523474554
0
ARC
5
108
100
AcDbEntity
8
0
100
AcDbCircle
10
-258.67500000000007
20
34.15531234252316
30
0
40
33.144687657476823
210
0
220
-0
230
1
100
AcDbArc
50
45.002375998550711
51
89.999999999999915
0
LINE
5
109
100
AcDbEntity
8
0
100
AcDbLine
10
-258.67500000000001
20
67.299999999999997
30
0
11
-273.25000000000006
21
67.300000000000011
31
0
0
ARC
5
110
100
AcDbEntity
8
0
100
AcDbCircle
10
-273.25000000000006
20
63.700000000000031
30
0
40
3.5999999999999854
210
0
220
-0
230
1
100
AcDbArc
50
90
51
180
0
LINE
5
111
100
AcDbEntity
8
0
100
AcDbLine
10
-276.85000000000008
20
63.700000000000003
30
0
11
-276.85000000000008
21
12.500000000000009
31
0
0
ARC
5
112
100
AcDbEntity
8
0
100
AcDbCircle
10
-273.25000000000006
20
12.49999999999998
30
0
40
3.5999999999999943
210
0
220
0
230
1
100
AcDbArc
50
180
51
270
0
LINE
5
113
100
AcDbEntity
8
0
100
AcDbLine
10
-273.25000000000006
20
8.8999999999999861
30
0
11
-183.95000000000005
21
8.9000000000000021
31
0
0
ARC
5
114
100
AcDbEntity
8
0
100
AcDbCircle
10
-183.94999999999999
20
12.499999999999986
30
0
40
3.5999999999999854
210
0
220
0
230
1
100
AcDbArc
50
-90.000000000000924
51
0
0
LINE
5
115
100
AcDbEntity
8
0
100
AcDbLine
10
-180.34999999999999
20
12.5
30
0
11
-180.34999999999999
21
20.575000000000006
31
0
0
ARC
5
116
100
AcDbEntity
8
0
100
AcDbCircle
10
-175.95000000000002
20
20.575000000000014
30
0
40
4.3999999999999995
210
0
220
-0
230
1
100
AcDbArc
50
90
51
180
0
LINE
5
117
100
AcDbEntity
8
0
100
AcDbLine
10
-175.95000000000002
20
24.975000000000016
30
0
11
-109.80000000000001
21
24.975000000000016
31
0
0
ARC
5
118
100
AcDbEntity
8
0
100
AcDbCircle
10
-109.80000000000001
20
20.575000000000017
30
0
40
4.3999999999999773
210
0
220
0
230
1
100
AcDbArc
50
0
51
90
0
LINE
5
119
100
AcDbEntity
8
0
100
AcDbLine
10
-105.40000000000003
20
20.575000000000006
30
0
11
-105.40000000000003
21
12.5
31
0
0
ARC
5
120
100
AcDbEntity
8
0
100
AcDbCircle
10
-101.80000000000004
20
12.499999999999986
30
0
40
3.5999999999999943
210
0
220
0
230
1
100
AcDbArc
50
180
51
270.00000000000068
0
LINE
5
121
100
AcDbEntity
8
0
100
AcDbLine
10
-101.8
20
8.8999999999999915
30
0
11
-12.499999999999964
21
8.8999999999999968
31
0
0
ARC
5
122
100
AcDbEntity
8
0
100
AcDbCircle
10
-12.499999999999964
20
12.499999999999982
30
0
40
3.5999999999999854
210
-0
220
0
230
1
100
AcDbArc
50
-90
51
0
0
LINE
5
123
100
AcDbEntity
8
0
100
AcDbLine
10
-8.899999999999979
20
12.500000000000009
30
0
11
-8.8999999999999702
21
63.700000000000003
31
0
0
ARC
5
124
100
AcDbEntity
8
0
100
AcDbCircle
10
-12.499999999999964
20
63.700000000000031
30
0
40
3.5999999999999943
210
-0
220
0
230
1
100
AcDbArc
50
0
51
90
0
LINE
5
125
100
AcDbEntity
8
0
100
AcDbLine
10
-12.499999999999964
20
67.300000000000026
30
0
11
-27.074999999999996
21
67.299999999999983
31
0
0
ARC
5
126
100
AcDbEntity
8
0
100
AcDbCircle
10
-27.074999999999918
20
34.155312342523018
30
0
40
33.144687657476965
210
0
220
0
230
1
100
AcDbArc
50
90.000000000000142
51
135.04261967764154
0
ARC
5
127
100
AcDbEntity
8
0
100
AcDbCircle
10
-53.359790770582592
20
60.401028094207604
30
0
40
4.0000000000001421
210
0
220
0
230
1
100
AcDbArc
50
231.28383421808459
51
315.04261967764165
0
ARC
5
128
100
AcDbEntity
8
0
100
AcDbCircle
10
-84.381519213488403
20
21.701962977166378
30
0
40
45.598037022833616
210
0
220
-0
230
1
100
AcDbArc
50
51.283834218084749
51
116.80482270227651
0
ARC
5
129
100
AcDbEntity
8
0
100
AcDbCircle
10
-106.74788642853214
20
65.970584981021915
30
0
40
4.0000000000005311
210
0
220
0
230
1
100
AcDbArc
50
258.57147422889648
51
296.80482270227515
0
ARC
5
130
100
AcDbEntity
8
0
100
AcDbCircle
10
-121.33590533933422
20
-6.1924822669393809
30
0
40
69.622812839334159
210
0
220
-0
230
1
100
AcDbArc
50
78.571474228894473
51
95.347759657210858
0
ENDSEC
0
SECTION
2
OBJECTS
0
DICTIONARY
5
C
100
AcDbDictionary
3
ACAD_GROUP
350
D
3
ACAD_MLINESTYLE
350
17
0
DICTIONARY
5
D
100
AcDbDictionary
0
DICTIONARY
5
1A
330
C
100
AcDbDictionary
0
DICTIONARY
5
17
100
AcDbDictionary
0
ENDSEC
0
EOF
